<svg xmlns="http://www.w3.org/2000/svg" width="781" height="461.14" viewBox="0 0 781 461.14"><title>access control</title><polyline points="149.02 372.34 149.02 349.38 113.45 349.38 113.45 325.22 203.75 325.22 203.75 340.02 157.94 340.02 157.94 304.42" fill="none" stroke="#d60000" stroke-miterlimit="10"/><rect x="69.46" y="67.55" width="185.53" height="229.87" fill="#fff" stroke="#d60000" stroke-miterlimit="10" stroke-width="2"/><rect x="59.25" y="372.9" width="185.48" height="51.08" fill="#ebf0f2" stroke="#4c5054" stroke-miterlimit="10" stroke-width="1.32"/><path d="M74.82,390a1.48,1.48,0,0,1,.68-.63,2.25,2.25,0,0,1,1-.22,2.17,2.17,0,0,1,1.67.63,2.55,2.55,0,0,1,.58,1.8v2.55h.12a.74.74,0,0,1,.55.19.78.78,0,0,1,.19.55.75.75,0,0,1-.2.58,1,1,0,0,1-.66.18H77.1a1,1,0,0,1-.66-.18.75.75,0,0,1-.19-.58.65.65,0,0,1,.74-.74h.11v-2a2.43,2.43,0,0,0-.22-1.21.79.79,0,0,0-.73-.34,1.22,1.22,0,0,0-.94.44,1.64,1.64,0,0,0-.39,1.11v2h.11a.75.75,0,0,1,.56.19.78.78,0,0,1,.18.55.75.75,0,0,1-.19.58,1,1,0,0,1-.66.18h-1.7a1,1,0,0,1-.66-.17.78.78,0,0,1-.19-.59.74.74,0,0,1,.19-.55.72.72,0,0,1,.55-.19h.11v-5.93H73a.77.77,0,0,1-.56-.2.95.95,0,0,1,0-1.14,1,1,0,0,1,.67-.18h1.29a.41.41,0,0,1,.32.1.51.51,0,0,1,.09.35Z" fill="#333332"/><path d="M83.85,389.72h2.09a1,1,0,0,1,.66.17.67.67,0,0,1,.2.56.7.7,0,0,1-.2.58,1,1,0,0,1-.66.18H83.85V393a1.64,1.64,0,0,0,.23,1,1,1,0,0,0,.79.28,3.48,3.48,0,0,0,1.26-.31,3.07,3.07,0,0,1,1-.31.67.67,0,0,1,.48.22.8.8,0,0,1,.2.54c0,.35-.32.67-1,1a5.19,5.19,0,0,1-2.17.44,3.52,3.52,0,0,1-1.23-.2,1.88,1.88,0,0,1-.84-.54,1.78,1.78,0,0,1-.33-.66,6.26,6.26,0,0,1-.09-1.28v-1.9h-.64a1,1,0,0,1-.66-.18.74.74,0,0,1-.2-.58.71.71,0,0,1,.19-.57,1,1,0,0,1,.67-.16h.64v-1.6a.93.93,0,0,1,.19-.67.9.9,0,0,1,.65-.19.92.92,0,0,1,.65.19,1,1,0,0,1,.19.67Z" fill="#333332"/><path d="M92.25,389.72h2.09a1,1,0,0,1,.67.17A.93.93,0,0,1,95,391a1,1,0,0,1-.66.18H92.25V393a1.64,1.64,0,0,0,.23,1,1,1,0,0,0,.79.28,3.44,3.44,0,0,0,1.26-.31,3.07,3.07,0,0,1,1-.31.64.64,0,0,1,.48.22.8.8,0,0,1,.2.54c0,.35-.32.67-1,1a5.19,5.19,0,0,1-2.17.44,3.56,3.56,0,0,1-1.23-.2,1.88,1.88,0,0,1-.84-.54,1.63,1.63,0,0,1-.32-.66,5.45,5.45,0,0,1-.1-1.28v-1.9h-.64a1,1,0,0,1-.66-.18.74.74,0,0,1-.2-.58.75.75,0,0,1,.19-.57,1,1,0,0,1,.67-.16h.64v-1.6a1,1,0,0,1,.19-.67.92.92,0,0,1,.65-.19.9.9,0,0,1,.65.19.93.93,0,0,1,.19.67Z" fill="#333332"/><path d="M99.83,395v1.86h.86a1.06,1.06,0,0,1,.67.17.77.77,0,0,1,.2.58.68.68,0,0,1-.2.57,1,1,0,0,1-.67.17H97.8a1,1,0,0,1-.67-.16.75.75,0,0,1-.19-.58.77.77,0,0,1,.2-.58,1,1,0,0,1,.66-.17h.4v-6h-.11a.72.72,0,0,1-.55-.19.77.77,0,0,1-.2-.56.75.75,0,0,1,.2-.58,1,1,0,0,1,.66-.17h1a.6.6,0,0,1,.3.07.26.26,0,0,1,.09.21v.49a2.3,2.3,0,0,1,.85-.7,2.65,2.65,0,0,1,1.11-.23,3.24,3.24,0,0,1,2.33.89,3,3,0,0,1,.92,2.26,3.24,3.24,0,0,1-.9,2.35,2.94,2.94,0,0,1-2.25.94,3.19,3.19,0,0,1-1-.16A2.44,2.44,0,0,1,99.83,395Zm1.57-4.39a1.42,1.42,0,0,0-1.11.5,2.08,2.08,0,0,0,0,2.56,1.49,1.49,0,0,0,2.23,0,1.85,1.85,0,0,0,.44-1.28,1.89,1.89,0,0,0-.43-1.28A1.46,1.46,0,0,0,101.4,390.62Z" fill="#333332"/><path d="M107.72,395.55a1.68,1.68,0,0,1-.36.21,1.07,1.07,0,0,1-.39.07.49.49,0,0,1-.41-.15,1,1,0,0,1-.12-.59v-.91a1.06,1.06,0,0,1,.15-.64.61.61,0,0,1,.52-.19.76.76,0,0,1,.65.39,2.67,2.67,0,0,0,.26.32,2.2,2.2,0,0,0,.77.45,3.22,3.22,0,0,0,1,.15,1.47,1.47,0,0,0,.78-.19.58.58,0,0,0,.3-.5c0-.37-.53-.63-1.58-.77l-.55-.07a3.55,3.55,0,0,1-1.77-.65,1.58,1.58,0,0,1-.58-1.3,1.76,1.76,0,0,1,.7-1.49,3.23,3.23,0,0,1,2-.52,5.75,5.75,0,0,1,.91.07,7.31,7.31,0,0,1,1,.22,1,1,0,0,1,.3-.25.73.73,0,0,1,.36-.08.55.55,0,0,1,.43.17.79.79,0,0,1,.15.52v.85a.64.64,0,0,1-.15.45.57.57,0,0,1-.43.16,2.09,2.09,0,0,1-1-.49,2.36,2.36,0,0,0-1.36-.49,1.6,1.6,0,0,0-.83.18.51.51,0,0,0-.29.48c0,.32.41.53,1.23.64l.56.07a4.93,4.93,0,0,1,2.12.67,1.61,1.61,0,0,1,.58,1.33,1.88,1.88,0,0,1-.77,1.6,3.59,3.59,0,0,1-2.16.56,7.22,7.22,0,0,1-1-.07A7.74,7.74,0,0,1,107.72,395.55Z" fill="#333332"/><path d="M117.93,389.53a1.49,1.49,0,0,1,1,.35,1.21,1.21,0,0,1,.38.92,1.25,1.25,0,0,1-.39.95,1.62,1.62,0,0,1-2,0,1.23,1.23,0,0,1-.39-.94,1.19,1.19,0,0,1,.39-.92A1.49,1.49,0,0,1,117.93,389.53Zm0,3.64a1.45,1.45,0,0,1,1,.36,1.15,1.15,0,0,1,.4.92,1.18,1.18,0,0,1-.4.93,1.45,1.45,0,0,1-1,.36,1.49,1.49,0,0,1-1-.36,1.22,1.22,0,0,1-.39-.93,1.19,1.19,0,0,1,.39-.92A1.49,1.49,0,0,1,117.93,393.17Z" fill="#333332"/><path d="M129.09,387.15l-4,8.58a1.76,1.76,0,0,1-.34.56.47.47,0,0,1-.37.16.85.85,0,0,1-.55-.2.6.6,0,0,1-.25-.49,1.91,1.91,0,0,1,.19-.62v0l4-8.57a2.11,2.11,0,0,1,.35-.57.49.49,0,0,1,.37-.16.87.87,0,0,1,.55.2.58.58,0,0,1,.25.49,1.27,1.27,0,0,1,0,.26A2.93,2.93,0,0,1,129.09,387.15Z" fill="#333332"/><path d="M137.49,387.15l-4,8.58a1.94,1.94,0,0,1-.35.56.47.47,0,0,1-.37.16.85.85,0,0,1-.55-.2.62.62,0,0,1-.24-.49,1.83,1.83,0,0,1,.18-.62v0l4-8.57a2.11,2.11,0,0,1,.35-.57.5.5,0,0,1,.37-.16.85.85,0,0,1,.55.2.58.58,0,0,1,.25.49.82.82,0,0,1,0,.26A2.93,2.93,0,0,1,137.49,387.15Z" fill="#333332"/><path d="M144.09,394.15h1.47a1.06,1.06,0,0,1,.67.17.74.74,0,0,1,.2.57.75.75,0,0,1-.2.58,1,1,0,0,1-.67.18h-4.62a1,1,0,0,1-.67-.18.75.75,0,0,1-.2-.58.74.74,0,0,1,.19-.57,1.07,1.07,0,0,1,.68-.17h1.47v-3.32h-.78a1,1,0,0,1-.65-.18.71.71,0,0,1-.2-.57.75.75,0,0,1,.19-.58,1,1,0,0,1,.66-.17h2.06a.51.51,0,0,1,.3.08.29.29,0,0,1,.1.22Zm-1-7.91a.91.91,0,0,1,.67.19,1.64,1.64,0,0,1,.16.92,1.57,1.57,0,0,1-.15.87c-.09.11-.33.16-.69.16a1.07,1.07,0,0,1-.69-.15,1,1,0,0,1-.15-.63,2.37,2.37,0,0,1,.16-1.12Q142.56,386.24,143.1,386.24Z" fill="#333332"/><path d="M154.4,394.14h.09a.78.78,0,0,1,.58.19.77.77,0,0,1,.19.56.75.75,0,0,1-.2.58,1,1,0,0,1-.66.18h-1.68a1,1,0,0,1-.66-.18.75.75,0,0,1-.2-.58.73.73,0,0,1,.2-.56.78.78,0,0,1,.58-.19h.08v-2a2.12,2.12,0,0,0-.23-1.16.84.84,0,0,0-.76-.35,1.19,1.19,0,0,0-.93.41,1.69,1.69,0,0,0-.35,1.1v2h.08a.78.78,0,0,1,.58.19.73.73,0,0,1,.19.56.75.75,0,0,1-.2.58,1,1,0,0,1-.65.18h-1.7a1,1,0,0,1-.66-.18.75.75,0,0,1-.19-.58.73.73,0,0,1,.19-.56.78.78,0,0,1,.58-.19h.08v-3.31h-.12a.67.67,0,0,1-.75-.74.75.75,0,0,1,.2-.58,1,1,0,0,1,.67-.18h1.16a.46.46,0,0,1,.29.08.25.25,0,0,1,.1.22v.53a2,2,0,0,1,.8-.74,2.45,2.45,0,0,1,1.14-.25,2,2,0,0,1,1.63.66,3.17,3.17,0,0,1,.53,2Z" fill="#333332"/><path d="M158.13,395.55a1.53,1.53,0,0,1-.37.21,1,1,0,0,1-.38.07.51.51,0,0,1-.42-.15,1,1,0,0,1-.12-.59v-.91a1.06,1.06,0,0,1,.15-.64.64.64,0,0,1,.52-.19.76.76,0,0,1,.66.39,2.78,2.78,0,0,0,.25.32,2.34,2.34,0,0,0,.78.45,3.2,3.2,0,0,0,1,.15,1.51,1.51,0,0,0,.79-.19.57.57,0,0,0,.29-.5c0-.37-.52-.63-1.57-.77l-.55-.07a3.55,3.55,0,0,1-1.77-.65,1.58,1.58,0,0,1-.58-1.3,1.78,1.78,0,0,1,.69-1.49,3.27,3.27,0,0,1,2-.52,5.88,5.88,0,0,1,.92.07,7.31,7.31,0,0,1,1,.22.87.87,0,0,1,.3-.25.73.73,0,0,1,.36-.08.55.55,0,0,1,.43.17.85.85,0,0,1,.14.52v.85a.64.64,0,0,1-.15.45.54.54,0,0,1-.42.16,2.09,2.09,0,0,1-1-.49,2.36,2.36,0,0,0-1.36-.49,1.57,1.57,0,0,0-.83.18.52.52,0,0,0-.3.48c0,.32.41.53,1.23.64l.57.07a4.93,4.93,0,0,1,2.12.67,1.61,1.61,0,0,1,.58,1.33,1.88,1.88,0,0,1-.77,1.6,3.63,3.63,0,0,1-2.16.56,7.12,7.12,0,0,1-1-.07A7.38,7.38,0,0,1,158.13,395.55Z" fill="#333332"/><path d="M166.48,392.89a1.83,1.83,0,0,0,.68,1.14,2.24,2.24,0,0,0,1.36.37,3.61,3.61,0,0,0,1.67-.41,4.3,4.3,0,0,1,1-.41.52.52,0,0,1,.42.19.73.73,0,0,1,.16.48c0,.43-.32.8-1,1.1a5.35,5.35,0,0,1-2.35.47,3.9,3.9,0,0,1-2.7-.93,3.29,3.29,0,0,1,0-4.78,3.9,3.9,0,0,1,2.7-.93,3.51,3.51,0,0,1,2.44.87,2.78,2.78,0,0,1,1,2.14.65.65,0,0,1-.19.55,1.45,1.45,0,0,1-.8.15Zm3.68-1.06a1.53,1.53,0,0,0-.6-1,2.1,2.1,0,0,0-1.25-.35,1.92,1.92,0,0,0-1.2.34,1.69,1.69,0,0,0-.63,1Z" fill="#333332"/><path d="M178.77,389.7a.77.77,0,0,1,.25-.4.73.73,0,0,1,.45-.13.6.6,0,0,1,.53.22,1.46,1.46,0,0,1,.15.77v1.12a.92.92,0,0,1-.17.62.65.65,0,0,1-.52.19A.75.75,0,0,1,179,392a1.52,1.52,0,0,1-.36-.45,1.63,1.63,0,0,0-.72-.68,2.33,2.33,0,0,0-1.08-.23,1.74,1.74,0,0,0-1.31.53,1.83,1.83,0,0,0-.51,1.33,1.86,1.86,0,0,0,.52,1.38,2,2,0,0,0,1.42.52,3.21,3.21,0,0,0,1.6-.45,3.38,3.38,0,0,1,1-.45.53.53,0,0,1,.42.2.72.72,0,0,1,.16.49c0,.42-.32.81-1,1.14a4.92,4.92,0,0,1-2.31.51,3.86,3.86,0,0,1-2.69-.93,3.27,3.27,0,0,1,0-4.77,3.61,3.61,0,0,1,2.58-.95,4,4,0,0,1,1,.13A4.57,4.57,0,0,1,178.77,389.7Z" fill="#333332"/><path d="M186.22,390.83h-.11a.75.75,0,0,1-.56-.19.81.81,0,0,1-.19-.56.75.75,0,0,1,.2-.58,1,1,0,0,1,.66-.17h1.29a.5.5,0,0,1,.29.08.26.26,0,0,1,.1.22v4.52H188a.79.79,0,0,1,.56.19.74.74,0,0,1,.2.55.78.78,0,0,1-.2.59,1.06,1.06,0,0,1-.67.17h-1.15a.51.51,0,0,1-.3-.08.28.28,0,0,1-.1-.23v-.52a2.11,2.11,0,0,1-.81.74,2.39,2.39,0,0,1-1.11.25,2,2,0,0,1-1.64-.67,3.24,3.24,0,0,1-.53-2v-2.28h-.12a.76.76,0,0,1-.56-.19.81.81,0,0,1-.19-.56.75.75,0,0,1,.2-.58,1,1,0,0,1,.67-.17h1.29a.47.47,0,0,1,.28.08.28.28,0,0,1,.09.22v3.18a2.25,2.25,0,0,0,.23,1.18.86.86,0,0,0,.77.34,1.17,1.17,0,0,0,.93-.42,1.59,1.59,0,0,0,.37-1.1Z" fill="#333332"/><path d="M193.23,391.94v2.21h1.62a1,1,0,0,1,.65.17.71.71,0,0,1,.2.57.72.72,0,0,1-.2.58.94.94,0,0,1-.65.18H191a1,1,0,0,1-.67-.18.75.75,0,0,1-.19-.58.74.74,0,0,1,.19-.57,1.07,1.07,0,0,1,.68-.17h.52v-3.32h-.3a1,1,0,0,1-.66-.18.71.71,0,0,1-.19-.57.79.79,0,0,1,.18-.58,1,1,0,0,1,.67-.17h1.46a.47.47,0,0,1,.28.08.27.27,0,0,1,.11.22v1a5.13,5.13,0,0,1,1.39-1.14,2.9,2.9,0,0,1,1.39-.35,1.72,1.72,0,0,1,1.07.31,1,1,0,0,1,.4.82.83.83,0,0,1-.28.65,1,1,0,0,1-.7.25,1.58,1.58,0,0,1-.73-.22,1.6,1.6,0,0,0-.58-.23,1.48,1.48,0,0,0-.78.3A7.24,7.24,0,0,0,193.23,391.94Z" fill="#333332"/><path d="M200.08,392.89a1.89,1.89,0,0,0,.69,1.14,2.24,2.24,0,0,0,1.36.37,3.64,3.64,0,0,0,1.67-.41,4,4,0,0,1,1-.41.5.5,0,0,1,.41.19.68.68,0,0,1,.16.48c0,.43-.31.8-1,1.1a5.29,5.29,0,0,1-2.35.47,3.88,3.88,0,0,1-2.69-.93,3.29,3.29,0,0,1,0-4.78,3.88,3.88,0,0,1,2.69-.93,3.53,3.53,0,0,1,2.45.87,2.78,2.78,0,0,1,1,2.14.65.65,0,0,1-.2.55,1.42,1.42,0,0,1-.8.15Zm3.69-1.06a1.53,1.53,0,0,0-.6-1,2.11,2.11,0,0,0-1.26-.35,2,2,0,0,0-1.2.34,1.74,1.74,0,0,0-.63,1Z" fill="#333332"/><path d="M207.49,391.72h5.67a.37.37,0,0,1,.25.08.29.29,0,0,1,.08.24v.85a.35.35,0,0,1-.1.26.31.31,0,0,1-.23.12h-5.67a.24.24,0,0,1-.21-.1.41.41,0,0,1-.08-.28V392a.34.34,0,0,1,.08-.23A.26.26,0,0,1,207.49,391.72Z" fill="#333332"/><path d="M73.82,407.63l.55,3.36.73-2.6a1,1,0,0,1,.29-.54.88.88,0,0,1,.53-.13,1,1,0,0,1,.53.12,1.06,1.06,0,0,1,.3.55l.76,2.6.52-3.36h-.12a.75.75,0,0,1-.56-.19.76.76,0,0,1-.19-.56.75.75,0,0,1,.19-.58,1.07,1.07,0,0,1,.68-.17h1.6a1,1,0,0,1,.67.18.71.71,0,0,1,.2.57.67.67,0,0,1-.75.75h-.12l-.85,4.31a.76.76,0,0,1-.32.52,1.27,1.27,0,0,1-.71.16,1.33,1.33,0,0,1-.72-.16.91.91,0,0,1-.35-.52l-.8-2.66-.71,2.66a.81.81,0,0,1-.36.51,1.34,1.34,0,0,1-.72.17,1.24,1.24,0,0,1-.71-.16.79.79,0,0,1-.31-.52l-.87-4.31h-.11a.71.71,0,0,1-.55-.19.76.76,0,0,1-.19-.56.71.71,0,0,1,.19-.57,1,1,0,0,1,.66-.18h1.62a.93.93,0,0,1,.66.18.71.71,0,0,1,.2.57.81.81,0,0,1-.19.56.74.74,0,0,1-.55.19Z" fill="#333332"/><path d="M82.46,409.69a1.89,1.89,0,0,0,.69,1.14,2.24,2.24,0,0,0,1.36.37,3.64,3.64,0,0,0,1.67-.41,4,4,0,0,1,1-.41.49.49,0,0,1,.41.19.68.68,0,0,1,.16.48c0,.43-.31.8-1,1.1a5.29,5.29,0,0,1-2.35.47,3.88,3.88,0,0,1-2.69-.93,3.29,3.29,0,0,1,0-4.78,3.88,3.88,0,0,1,2.69-.93,3.53,3.53,0,0,1,2.45.87,2.76,2.76,0,0,1,1,2.14.68.68,0,0,1-.19.55,1.49,1.49,0,0,1-.81.15Zm3.69-1.06a1.53,1.53,0,0,0-.6-1,2.11,2.11,0,0,0-1.26-.35,1.91,1.91,0,0,0-1.19.34,1.7,1.7,0,0,0-.64,1Z" fill="#333332"/><path d="M91.49,406.75a2.49,2.49,0,0,1,.78-.45,2.75,2.75,0,0,1,1-.17,3.1,3.1,0,0,1,2.32.94,3.31,3.31,0,0,1,.91,2.41,3,3,0,0,1-.92,2.24,3.21,3.21,0,0,1-2.33.9,2.74,2.74,0,0,1-1.15-.23,1.9,1.9,0,0,1-.8-.69v.45a.25.25,0,0,1-.1.22.51.51,0,0,1-.3.08h-1a1,1,0,0,1-.66-.18.74.74,0,0,1-.2-.58.78.78,0,0,1,.19-.55.75.75,0,0,1,.56-.19h.11V405h-.11a.77.77,0,0,1-.57-.2.93.93,0,0,1,0-1.14,1,1,0,0,1,.67-.18h1.28a.4.4,0,0,1,.31.11.46.46,0,0,1,.1.34Zm1.51.84a1.45,1.45,0,0,0-1.11.5,2.1,2.1,0,0,0,0,2.57,1.39,1.39,0,0,0,1.11.5,1.44,1.44,0,0,0,1.12-.5,1.92,1.92,0,0,0,.44-1.29,1.89,1.89,0,0,0-.44-1.28A1.45,1.45,0,0,0,93,407.59Z" fill="#333332"/><path d="M99.32,412.35a1.53,1.53,0,0,1-.37.21,1,1,0,0,1-.38.07.51.51,0,0,1-.42-.15,1,1,0,0,1-.12-.59V411a1,1,0,0,1,.16-.64.6.6,0,0,1,.51-.19.76.76,0,0,1,.66.39c.1.14.19.25.25.32a2.34,2.34,0,0,0,.78.45,3.2,3.2,0,0,0,1,.15,1.51,1.51,0,0,0,.79-.19.57.57,0,0,0,.29-.5c0-.37-.52-.63-1.57-.77l-.55-.07a3.55,3.55,0,0,1-1.77-.65A1.58,1.58,0,0,1,98,408a1.78,1.78,0,0,1,.69-1.49,3.27,3.27,0,0,1,2-.52,5.88,5.88,0,0,1,.92.07,7.31,7.31,0,0,1,1,.22.87.87,0,0,1,.3-.25.73.73,0,0,1,.36-.08.55.55,0,0,1,.43.17.79.79,0,0,1,.14.52v.85a.64.64,0,0,1-.15.45.54.54,0,0,1-.42.16,2.09,2.09,0,0,1-1-.49,2.36,2.36,0,0,0-1.36-.49,1.57,1.57,0,0,0-.83.18.52.52,0,0,0-.3.48c0,.32.41.53,1.24.64l.56.07a4.93,4.93,0,0,1,2.12.67,1.61,1.61,0,0,1,.58,1.33,1.88,1.88,0,0,1-.77,1.6,3.61,3.61,0,0,1-2.16.56,7.12,7.12,0,0,1-1-.07A7.38,7.38,0,0,1,99.32,412.35Z" fill="#333332"/><path d="M110.48,411H112a1,1,0,0,1,.67.17.74.74,0,0,1,.2.57.75.75,0,0,1-.2.58,1,1,0,0,1-.67.18h-4.62a1,1,0,0,1-.67-.18.75.75,0,0,1-.2-.58.74.74,0,0,1,.2-.57,1,1,0,0,1,.67-.17h1.47v-3.32H108a1,1,0,0,1-.66-.18.71.71,0,0,1-.2-.57.75.75,0,0,1,.2-.58,1,1,0,0,1,.66-.17h2.06a.5.5,0,0,1,.29.08.26.26,0,0,1,.1.22Zm-1-7.91a.89.89,0,0,1,.66.19,1.62,1.62,0,0,1,.17.92,1.57,1.57,0,0,1-.15.87c-.1.11-.33.16-.7.16a1,1,0,0,1-.68-.16.91.91,0,0,1-.16-.62,2.51,2.51,0,0,1,.16-1.12C108.91,403.12,109.14,403,109.5,403Z" fill="#333332"/><path d="M117.46,406.52h2.08a1,1,0,0,1,.67.17.7.7,0,0,1,.2.56.74.74,0,0,1-.2.58,1,1,0,0,1-.67.18h-2.08v1.75a1.65,1.65,0,0,0,.22,1,1,1,0,0,0,.79.28,3.39,3.39,0,0,0,1.26-.31,3.22,3.22,0,0,1,1-.31.68.68,0,0,1,.49.22.8.8,0,0,1,.2.54q0,.53-1,1a5.11,5.11,0,0,1-2.16.44,3.62,3.62,0,0,1-1.24-.2,2,2,0,0,1-.84-.54,1.63,1.63,0,0,1-.32-.66,6.07,6.07,0,0,1-.1-1.28V408h-.64a1,1,0,0,1-.66-.18.74.74,0,0,1-.19-.58.71.71,0,0,1,.19-.57,1,1,0,0,1,.66-.16h.64v-1.6a.92.92,0,0,1,.2-.67.88.88,0,0,1,.64-.19.89.89,0,0,1,.65.19.92.92,0,0,1,.2.67Z" fill="#333332"/><path d="M124.47,409.69a1.89,1.89,0,0,0,.69,1.14,2.23,2.23,0,0,0,1.35.37,3.65,3.65,0,0,0,1.68-.41,4,4,0,0,1,1-.41.52.52,0,0,1,.41.19.68.68,0,0,1,.16.48c0,.43-.32.8-.95,1.1a5.32,5.32,0,0,1-2.35.47,3.88,3.88,0,0,1-2.69-.93,3.27,3.27,0,0,1,0-4.78,3.88,3.88,0,0,1,2.69-.93,3.55,3.55,0,0,1,2.45.87,2.8,2.8,0,0,1,1,2.14.65.65,0,0,1-.2.55,1.45,1.45,0,0,1-.8.15Zm3.68-1.06a1.48,1.48,0,0,0-.59-1,2.13,2.13,0,0,0-1.26-.35,1.92,1.92,0,0,0-1.2.34,1.74,1.74,0,0,0-.63,1Z" fill="#333332"/><path d="M134.73,410a1.5,1.5,0,0,1,1,.36,1.21,1.21,0,0,1,.39.93,1.17,1.17,0,0,1-.39.92,1.67,1.67,0,0,1-2.07,0,1.17,1.17,0,0,1-.39-.92,1.21,1.21,0,0,1,.39-.93A1.49,1.49,0,0,1,134.73,410Z" fill="#333332"/><path d="M145.16,406.5a.78.78,0,0,1,.26-.4.69.69,0,0,1,.45-.13.58.58,0,0,1,.52.22,1.36,1.36,0,0,1,.16.77v1.12a1,1,0,0,1-.17.62.67.67,0,0,1-.53.19.77.77,0,0,1-.42-.11,1.26,1.26,0,0,1-.36-.45,1.73,1.73,0,0,0-.72-.68,2.41,2.41,0,0,0-1.09-.23A1.76,1.76,0,0,0,142,408a1.83,1.83,0,0,0-.51,1.33,1.87,1.87,0,0,0,.53,1.38,1.94,1.94,0,0,0,1.41.52,3.25,3.25,0,0,0,1.61-.45,3.38,3.38,0,0,1,1-.45.53.53,0,0,1,.42.2.73.73,0,0,1,.17.49c0,.42-.32.81-1,1.14a4.89,4.89,0,0,1-2.31.51,3.88,3.88,0,0,1-2.69-.93,3.07,3.07,0,0,1-1-2.39,3.12,3.12,0,0,1,1-2.38,3.63,3.63,0,0,1,2.59-.95,3.86,3.86,0,0,1,1,.13A4.11,4.11,0,0,1,145.16,406.5Z" fill="#333332"/><path d="M151.53,406a3.89,3.89,0,0,1,2.7.93,3.29,3.29,0,0,1,0,4.78,3.89,3.89,0,0,1-2.7.93,3.83,3.83,0,0,1-2.68-.93,3.27,3.27,0,0,1,0-4.78A3.85,3.85,0,0,1,151.53,406Zm0,1.44a1.76,1.76,0,0,0-1.31.53,1.79,1.79,0,0,0-.52,1.33,1.86,1.86,0,0,0,.52,1.36,1.87,1.87,0,0,0,2.63,0,1.86,1.86,0,0,0,.52-1.36,1.79,1.79,0,0,0-.52-1.33A1.76,1.76,0,0,0,151.53,407.42Z" fill="#333332"/><path d="M160.37,406.6a1.9,1.9,0,0,1,.66-.47,2,2,0,0,1,.81-.16,1.55,1.55,0,0,1,1.34.55,3.18,3.18,0,0,1,.41,1.84V411h.1a.59.59,0,0,1,.48.19,1,1,0,0,1,0,1.13.75.75,0,0,1-.57.18h-1.16a.5.5,0,0,1-.29-.08.25.25,0,0,1-.1-.22v-3.86a1.35,1.35,0,0,0-.14-.68.48.48,0,0,0-.42-.23.57.57,0,0,0-.53.31,1.61,1.61,0,0,0-.19.87V411h.1a.59.59,0,0,1,.48.19,1,1,0,0,1,0,1.13.79.79,0,0,1-.58.18H159.6a.5.5,0,0,1-.29-.08.23.23,0,0,1-.11-.22v-3.86a1.35,1.35,0,0,0-.14-.68.45.45,0,0,0-.41-.23.62.62,0,0,0-.54.31,1.63,1.63,0,0,0-.19.87V411h.1a.58.58,0,0,1,.48.19.79.79,0,0,1,.16.55.77.77,0,0,1-.17.58.75.75,0,0,1-.57.18h-1.55a.75.75,0,0,1-.57-.18.79.79,0,0,1-.17-.58.82.82,0,0,1,.16-.55.59.59,0,0,1,.48-.19h.1v-3.32h-.1a.62.62,0,0,1-.49-.2.82.82,0,0,1-.17-.55.75.75,0,0,1,.18-.57.77.77,0,0,1,.58-.18h.92a.48.48,0,0,1,.38.12.71.71,0,0,1,.1.43,1.66,1.66,0,0,1,1.4-.71,1.52,1.52,0,0,1,.69.15A1.29,1.29,0,0,1,160.37,406.6Z" fill="#333332"/><path d="M171.1,404l-4,8.58a2,2,0,0,1-.34.56.49.49,0,0,1-.37.16.87.87,0,0,1-.56-.2.62.62,0,0,1-.24-.49,1.68,1.68,0,0,1,.19-.62v0l4-8.57a1.88,1.88,0,0,1,.35-.57.47.47,0,0,1,.37-.16.81.81,0,0,1,.55.2.61.61,0,0,1,.25.49.85.85,0,0,1-.05.26A2.62,2.62,0,0,1,171.1,404Z" fill="#333332"/><path d="M179.53,411h.11a.77.77,0,0,1,.56.2.74.74,0,0,1,.19.55.68.68,0,0,1-.2.57,1,1,0,0,1-.66.18h-.65a.84.84,0,0,1-.51-.13,1,1,0,0,1-.27-.47,4.62,4.62,0,0,1-1.21.57,4.33,4.33,0,0,1-1.28.2,2.53,2.53,0,0,1-1.73-.55,1.86,1.86,0,0,1-.63-1.49,1.84,1.84,0,0,1,.81-1.6,4,4,0,0,1,2.29-.56l.69,0c.25,0,.53.06.83.11v-.13a1.34,1.34,0,0,0-.3-.94,1.13,1.13,0,0,0-.87-.32,2.79,2.79,0,0,0-1.16.34,2.79,2.79,0,0,1-1,.33.69.69,0,0,1-.52-.19.61.61,0,0,1-.2-.49c0-.37.27-.66.81-.88a6,6,0,0,1,2.2-.33,3.09,3.09,0,0,1,2.09.57,2.43,2.43,0,0,1,.63,1.9Zm-1.66-1.32a6,6,0,0,0-.63-.11,3.4,3.4,0,0,0-.53,0,2.41,2.41,0,0,0-1.18.25.8.8,0,0,0-.43.7.7.7,0,0,0,.28.61,1.25,1.25,0,0,0,.78.21,2.86,2.86,0,0,0,.89-.14,2.82,2.82,0,0,0,.82-.43Z" fill="#333332"/><path d="M188.05,411h.12a.72.72,0,0,1,.55.19.78.78,0,0,1,.18.55.75.75,0,0,1-.19.58,1,1,0,0,1-.66.18H187a.51.51,0,0,1-.3-.08.25.25,0,0,1-.11-.22v-.47a2.19,2.19,0,0,1-.86.7,2.8,2.8,0,0,1-1.18.24,3,3,0,0,1-2.24-.91,3.12,3.12,0,0,1-.9-2.28,3.23,3.23,0,0,1,.91-2.36,3.21,3.21,0,0,1,3.27-.78,3,3,0,0,1,.84.46V405h-.91a1,1,0,0,1-.67-.18.77.77,0,0,1-.2-.58.75.75,0,0,1,.2-.58,1,1,0,0,1,.67-.18h2.13a.37.37,0,0,1,.31.1.51.51,0,0,1,.09.35Zm-3.21-3.36a1.45,1.45,0,0,0-1.11.5,2.1,2.1,0,0,0,0,2.57,1.39,1.39,0,0,0,1.11.5,1.42,1.42,0,0,0,1.12-.5,1.87,1.87,0,0,0,.44-1.29,1.89,1.89,0,0,0-.44-1.28A1.45,1.45,0,0,0,184.84,407.59Z" fill="#333332"/><path d="M194,406.6a1.9,1.9,0,0,1,.66-.47,2,2,0,0,1,.81-.16,1.56,1.56,0,0,1,1.34.55,3.18,3.18,0,0,1,.41,1.84V411h.09a.57.57,0,0,1,.48.19,1,1,0,0,1,0,1.13.75.75,0,0,1-.57.18H196a.47.47,0,0,1-.28-.08.25.25,0,0,1-.1-.22v-3.86a1.25,1.25,0,0,0-.15-.68.46.46,0,0,0-.42-.23.57.57,0,0,0-.52.31,1.61,1.61,0,0,0-.19.87V411h.1a.59.59,0,0,1,.48.19.82.82,0,0,1,.16.55.77.77,0,0,1-.17.58.75.75,0,0,1-.57.18H193.2a.5.5,0,0,1-.29-.08.25.25,0,0,1-.11-.22v-3.86a1.25,1.25,0,0,0-.14-.68.44.44,0,0,0-.41-.23.62.62,0,0,0-.53.31,1.62,1.62,0,0,0-.2.87V411h.11a.59.59,0,0,1,.48.19.84.84,0,0,1,.16.55.82.82,0,0,1-.17.58.79.79,0,0,1-.58.18H190a.78.78,0,0,1-.57-.18.84.84,0,0,1-.17-.58.88.88,0,0,1,.16-.55.6.6,0,0,1,.49-.19H190v-3.32h-.09a.6.6,0,0,1-.49-.2.77.77,0,0,1-.17-.55.64.64,0,0,1,.75-.75h.92a.47.47,0,0,1,.38.12.64.64,0,0,1,.1.43,1.71,1.71,0,0,1,.61-.53,1.73,1.73,0,0,1,.79-.18,1.47,1.47,0,0,1,.69.15A1.39,1.39,0,0,1,194,406.6Z" fill="#333332"/><path d="M202.9,411h1.47a1.06,1.06,0,0,1,.67.17.74.74,0,0,1,.2.57.72.72,0,0,1-.21.58,1,1,0,0,1-.66.18h-4.62a1,1,0,0,1-.67-.18.75.75,0,0,1-.2-.58.74.74,0,0,1,.19-.57,1.07,1.07,0,0,1,.68-.17h1.47v-3.32h-.78a1,1,0,0,1-.65-.18.71.71,0,0,1-.2-.57.75.75,0,0,1,.19-.58,1,1,0,0,1,.66-.17h2.06a.51.51,0,0,1,.3.08.29.29,0,0,1,.1.22Zm-1-7.91a.91.91,0,0,1,.67.19,1.64,1.64,0,0,1,.16.92,1.57,1.57,0,0,1-.15.87c-.09.11-.33.16-.69.16a1,1,0,0,1-.69-.16.91.91,0,0,1-.15-.62,2.37,2.37,0,0,1,.16-1.12Q201.37,403,201.91,403Z" fill="#333332"/><path d="M213.21,410.94h.09a.78.78,0,0,1,.58.19.77.77,0,0,1,.19.56.75.75,0,0,1-.2.58,1,1,0,0,1-.66.18h-1.68a1,1,0,0,1-.66-.18.75.75,0,0,1-.2-.58.7.7,0,0,1,.2-.56.77.77,0,0,1,.58-.19h.08v-2a2.12,2.12,0,0,0-.23-1.16.84.84,0,0,0-.76-.35,1.19,1.19,0,0,0-.93.41,1.69,1.69,0,0,0-.35,1.1v2h.08a.78.78,0,0,1,.58.19.73.73,0,0,1,.19.56.75.75,0,0,1-.2.58,1,1,0,0,1-.65.18h-1.7a1,1,0,0,1-.66-.18.75.75,0,0,1-.19-.58.73.73,0,0,1,.19-.56.77.77,0,0,1,.58-.19h.08v-3.31h-.12a.67.67,0,0,1-.75-.74.75.75,0,0,1,.2-.58,1,1,0,0,1,.67-.18h1.16a.46.46,0,0,1,.29.08.25.25,0,0,1,.1.22V407a2,2,0,0,1,.8-.74,2.45,2.45,0,0,1,1.14-.25,2,2,0,0,1,1.63.66,3.23,3.23,0,0,1,.53,2Z" fill="#333332"/><rect x="69.46" y="38.34" width="185.53" height="29.27" fill="#edd6d6" stroke="#d60000" stroke-miterlimit="10" stroke-width="2"/><line x1="167.71" y1="52.86" x2="181.84" y2="52.86" fill="none" stroke="#d60000" stroke-miterlimit="10" stroke-width="2"/><line x1="188.53" y1="52.86" x2="202.66" y2="52.86" fill="none" stroke="#d60000" stroke-miterlimit="10" stroke-width="2"/><line x1="209.2" y1="52.86" x2="223.33" y2="52.86" fill="none" stroke="#d60000" stroke-miterlimit="10" stroke-width="2"/><line x1="230.02" y1="52.86" x2="244.15" y2="52.86" fill="none" stroke="#d60000" stroke-miterlimit="10" stroke-width="2"/><text transform="translate(86.35 104.62)" font-size="27" fill="#d60000" font-family="Arial-BoldMT, Arial" font-weight="700">Admin</text><text transform="translate(86.35 131.04)" font-size="18" fill="#d60000" font-family="ArialMT, Arial">Delete users:</text><polyline points="374.76 327.14 374.76 372.34 374.76 387.69 327.31 387.69 327.31 361.32 350.78 361.32 350.78 401.93 263.81 401.93" fill="none" stroke="#cbd0d1" stroke-miterlimit="10"/><polyline points="397.72 329.69 397.72 387.14 431.27 387.14 431.27 424.73 406.51 424.73 406.51 398.36 449.72 398.36" fill="none" stroke="#cbd0d1" stroke-miterlimit="10"/><rect x="460.99" y="373.05" width="292.39" height="51.08" fill="#ebf0f2" stroke="#4c5054" stroke-miterlimit="10" stroke-width="1.32"/><path d="M475.78,387.65a1.48,1.48,0,0,1,.68-.63,2.25,2.25,0,0,1,1-.22,2.17,2.17,0,0,1,1.67.63,2.53,2.53,0,0,1,.58,1.8v2.55h.12a.74.74,0,0,1,.55.19.76.76,0,0,1,.18.55.75.75,0,0,1-.19.58,1,1,0,0,1-.66.18h-1.69a1,1,0,0,1-.66-.18.75.75,0,0,1-.19-.58.65.65,0,0,1,.74-.74h.11v-2a2.43,2.43,0,0,0-.22-1.21.8.8,0,0,0-.74-.34,1.21,1.21,0,0,0-.93.44,1.62,1.62,0,0,0-.39,1.11v2h.11a.65.65,0,0,1,.74.74.75.75,0,0,1-.19.58,1,1,0,0,1-.66.18h-1.7a1,1,0,0,1-.66-.18.74.74,0,0,1-.19-.58.67.67,0,0,1,.74-.74h.11v-5.93H474a.68.68,0,0,1-.75-.76.75.75,0,0,1,.19-.58,1,1,0,0,1,.67-.18h1.29a.45.45,0,0,1,.32.09.56.56,0,0,1,.09.36Z" fill="#333332"/><path d="M484.81,387.34h2.08a1,1,0,0,1,.67.17.71.71,0,0,1,.2.57.74.74,0,0,1-.2.58,1,1,0,0,1-.67.18h-2.08v1.75a1.65,1.65,0,0,0,.22,1,1,1,0,0,0,.8.28,3.48,3.48,0,0,0,1.26-.31,3.07,3.07,0,0,1,1-.31.64.64,0,0,1,.48.22.8.8,0,0,1,.2.54c0,.35-.32.67-.95,1a5.19,5.19,0,0,1-2.17.43,3.53,3.53,0,0,1-1.23-.19,2.08,2.08,0,0,1-.85-.54,1.84,1.84,0,0,1-.32-.66,6.32,6.32,0,0,1-.09-1.28v-1.9h-.65a.94.94,0,0,1-.65-.18.7.7,0,0,1-.2-.58.71.71,0,0,1,.19-.57,1,1,0,0,1,.66-.17h.65v-1.6a.91.91,0,0,1,.19-.66.9.9,0,0,1,.65-.19.88.88,0,0,1,.64.19.91.91,0,0,1,.2.66Z" fill="#333332"/><path d="M493.21,387.34h2.09a1.08,1.08,0,0,1,.67.17.74.74,0,0,1,.19.57.7.7,0,0,1-.2.58,1,1,0,0,1-.66.18h-2.09v1.75a1.64,1.64,0,0,0,.23,1,1,1,0,0,0,.79.28,3.48,3.48,0,0,0,1.26-.31,3.07,3.07,0,0,1,1-.31.62.62,0,0,1,.48.22.8.8,0,0,1,.2.54c0,.35-.32.67-.95,1a5.19,5.19,0,0,1-2.17.43,3.53,3.53,0,0,1-1.23-.19,2,2,0,0,1-.84-.54,1.86,1.86,0,0,1-.33-.66,6.32,6.32,0,0,1-.09-1.28v-1.9h-.64a1,1,0,0,1-.66-.18.74.74,0,0,1-.2-.58.75.75,0,0,1,.19-.57,1,1,0,0,1,.67-.17h.64v-1.6a.91.91,0,0,1,.19-.66,1.21,1.21,0,0,1,1.3,0,.91.91,0,0,1,.19.66Z" fill="#333332"/><path d="M500.78,392.64v1.85h.87a1,1,0,0,1,.67.18.75.75,0,0,1,.2.58.71.71,0,0,1-.2.57,1,1,0,0,1-.67.17h-2.9a1,1,0,0,1-.66-.17.95.95,0,0,1,0-1.15.92.92,0,0,1,.65-.18h.41v-6h-.11a.67.67,0,0,1-.75-.75.79.79,0,0,1,.19-.58,1,1,0,0,1,.67-.17h1a.46.46,0,0,1,.29.07.24.24,0,0,1,.1.21v.49a2.26,2.26,0,0,1,.84-.7,2.7,2.7,0,0,1,1.12-.23,3.24,3.24,0,0,1,2.33.89,3,3,0,0,1,.92,2.26,3.24,3.24,0,0,1-.9,2.35,3,3,0,0,1-2.25.94,3.19,3.19,0,0,1-1-.16A2.59,2.59,0,0,1,500.78,392.64Zm1.58-4.39a1.42,1.42,0,0,0-1.11.5,2.08,2.08,0,0,0,0,2.56,1.42,1.42,0,0,0,1.11.5,1.44,1.44,0,0,0,1.12-.5,1.89,1.89,0,0,0,.44-1.28,1.83,1.83,0,0,0-.44-1.28A1.42,1.42,0,0,0,502.36,388.25Z" fill="#333332"/><path d="M508.68,393.18a1.53,1.53,0,0,1-.37.21,1,1,0,0,1-.38.07.51.51,0,0,1-.42-.15,1.18,1.18,0,0,1-.11-.59v-.91a1,1,0,0,1,.15-.64.6.6,0,0,1,.51-.19.76.76,0,0,1,.66.39,2.7,2.7,0,0,0,.25.31,2.21,2.21,0,0,0,.78.46,3.22,3.22,0,0,0,1,.15,1.41,1.41,0,0,0,.78-.2.56.56,0,0,0,.3-.49c0-.37-.53-.63-1.58-.77-.24,0-.42-.05-.55-.08a3.55,3.55,0,0,1-1.77-.64,1.58,1.58,0,0,1-.58-1.3,1.77,1.77,0,0,1,.69-1.49,3.27,3.27,0,0,1,2-.52,5.88,5.88,0,0,1,.92.07,7.31,7.31,0,0,1,1,.22.87.87,0,0,1,.3-.25.73.73,0,0,1,.36-.08.52.52,0,0,1,.43.17.79.79,0,0,1,.14.52v.84a.65.65,0,0,1-.15.46.54.54,0,0,1-.42.16,2.09,2.09,0,0,1-1-.49,2.29,2.29,0,0,0-1.36-.49,1.6,1.6,0,0,0-.83.18.51.51,0,0,0-.29.48c0,.32.41.53,1.23.64l.56.07a4.8,4.8,0,0,1,2.12.67,1.59,1.59,0,0,1,.58,1.33,1.88,1.88,0,0,1-.77,1.6,3.59,3.59,0,0,1-2.16.56,7.12,7.12,0,0,1-1-.07A7.38,7.38,0,0,1,508.68,393.18Z" fill="#333332"/><path d="M518.89,387.16a1.51,1.51,0,0,1,1,.35,1.32,1.32,0,0,1,0,1.86,1.41,1.41,0,0,1-1,.37,1.49,1.49,0,0,1-1-.37,1.24,1.24,0,0,1-.4-.94,1.19,1.19,0,0,1,.4-.92A1.49,1.49,0,0,1,518.89,387.16Zm0,3.64a1.51,1.51,0,0,1,1,.35,1.2,1.2,0,0,1,.39.92,1.21,1.21,0,0,1-.39.94,1.47,1.47,0,0,1-1,.36,1.49,1.49,0,0,1-1-.36,1.25,1.25,0,0,1-.4-.94,1.17,1.17,0,0,1,.4-.91A1.49,1.49,0,0,1,518.89,390.8Z" fill="#333332"/><path d="M530.05,384.78l-4,8.58a1.88,1.88,0,0,1-.34.56.52.52,0,0,1-.37.16.85.85,0,0,1-.55-.2.6.6,0,0,1-.25-.49,1.63,1.63,0,0,1,.19-.62v0l4-8.56a2.11,2.11,0,0,1,.35-.58.51.51,0,0,1,.37-.15.86.86,0,0,1,.55.19.62.62,0,0,1,.25.5,1.27,1.27,0,0,1,0,.26A2.93,2.93,0,0,1,530.05,384.78Z" fill="#333332"/><path d="M538.45,384.78l-4,8.58a1.88,1.88,0,0,1-.34.56.51.51,0,0,1-.37.16.85.85,0,0,1-.55-.2.63.63,0,0,1-.25-.49,1.84,1.84,0,0,1,.19-.62v0l4-8.56a2.4,2.4,0,0,1,.35-.58.51.51,0,0,1,.37-.15.86.86,0,0,1,.55.19.62.62,0,0,1,.25.5.82.82,0,0,1,0,.26A2.93,2.93,0,0,1,538.45,384.78Z" fill="#333332"/><path d="M545.05,391.78h1.47a1.06,1.06,0,0,1,.67.17.91.91,0,0,1,0,1.15,1,1,0,0,1-.66.18H541.9a1,1,0,0,1-.67-.18.75.75,0,0,1-.2-.58.71.71,0,0,1,.19-.57,1.07,1.07,0,0,1,.68-.17h1.47v-3.32h-.78a1,1,0,0,1-.65-.18.71.71,0,0,1-.2-.57.75.75,0,0,1,.19-.58,1,1,0,0,1,.66-.17h2.06a.46.46,0,0,1,.29.08.25.25,0,0,1,.11.21Zm-1-7.91a.86.86,0,0,1,.67.19,1.62,1.62,0,0,1,.16.92,1.51,1.51,0,0,1-.15.86c-.09.12-.33.17-.69.17a1,1,0,0,1-.69-.16.91.91,0,0,1-.15-.62,2.37,2.37,0,0,1,.16-1.12Q543.52,383.87,544.06,383.87Z" fill="#333332"/><path d="M555.36,391.77h.09a.78.78,0,0,1,.58.19.77.77,0,0,1,.19.56.75.75,0,0,1-.2.58,1,1,0,0,1-.66.18h-1.68a1,1,0,0,1-.66-.18.75.75,0,0,1-.2-.58.7.7,0,0,1,.2-.56.77.77,0,0,1,.58-.19h.08v-2a2.2,2.2,0,0,0-.23-1.16.82.82,0,0,0-.76-.35,1.19,1.19,0,0,0-.93.41,1.62,1.62,0,0,0-.36,1.1v2h.09a.78.78,0,0,1,.58.19.73.73,0,0,1,.19.56.75.75,0,0,1-.2.58,1,1,0,0,1-.66.18h-1.69a1,1,0,0,1-.66-.18.75.75,0,0,1-.2-.58.73.73,0,0,1,.2-.56.77.77,0,0,1,.58-.19h.08v-3.31h-.12a.81.81,0,0,1-.56-.19.74.74,0,0,1-.19-.55.75.75,0,0,1,.2-.58,1,1,0,0,1,.67-.18h1.16a.46.46,0,0,1,.29.08.24.24,0,0,1,.1.21v.54a2,2,0,0,1,.8-.74,2.45,2.45,0,0,1,1.14-.25,2,2,0,0,1,1.63.66,3.23,3.23,0,0,1,.53,2Z" fill="#333332"/><path d="M559.09,393.18a1.53,1.53,0,0,1-.37.21,1,1,0,0,1-.38.07.51.51,0,0,1-.42-.15,1.06,1.06,0,0,1-.12-.59v-.91a1,1,0,0,1,.15-.64.62.62,0,0,1,.52-.19.76.76,0,0,1,.66.39,1.93,1.93,0,0,0,.25.31,2.21,2.21,0,0,0,.78.46,3.2,3.2,0,0,0,1,.15,1.42,1.42,0,0,0,.79-.2.55.55,0,0,0,.29-.49c0-.37-.52-.63-1.58-.77-.23,0-.41-.05-.54-.08a3.48,3.48,0,0,1-1.77-.64,1.58,1.58,0,0,1-.58-1.3,1.77,1.77,0,0,1,.69-1.49,3.27,3.27,0,0,1,2-.52,5.88,5.88,0,0,1,.92.07,7.31,7.31,0,0,1,1,.22.87.87,0,0,1,.3-.25.73.73,0,0,1,.36-.08.52.52,0,0,1,.43.17.85.85,0,0,1,.14.52v.84a.65.65,0,0,1-.15.46.54.54,0,0,1-.42.16,2.09,2.09,0,0,1-1-.49,2.32,2.32,0,0,0-1.37-.49,1.56,1.56,0,0,0-.82.18.52.52,0,0,0-.3.48c0,.32.41.53,1.23.64l.56.07a4.85,4.85,0,0,1,2.13.67,1.59,1.59,0,0,1,.57,1.33,1.87,1.87,0,0,1-.76,1.6,3.63,3.63,0,0,1-2.16.56,7,7,0,0,1-1-.07A7.38,7.38,0,0,1,559.09,393.18Z" fill="#333332"/><path d="M567.44,390.52a1.83,1.83,0,0,0,.68,1.14,2.24,2.24,0,0,0,1.36.37,3.77,3.77,0,0,0,1.67-.41,3.85,3.85,0,0,1,1-.41.54.54,0,0,1,.42.18.78.78,0,0,1,.16.49c0,.43-.32.79-1,1.1a5.36,5.36,0,0,1-2.36.47,3.89,3.89,0,0,1-2.69-.93,3.29,3.29,0,0,1,0-4.78,3.89,3.89,0,0,1,2.69-.93,3.53,3.53,0,0,1,2.45.87,2.76,2.76,0,0,1,1,2.14.65.65,0,0,1-.19.55,1.46,1.46,0,0,1-.81.15Zm3.68-1.06a1.5,1.5,0,0,0-.6-1,2.1,2.1,0,0,0-1.25-.35,1.92,1.92,0,0,0-1.2.34,1.65,1.65,0,0,0-.63,1Z" fill="#333332"/><path d="M579.73,387.33a.77.77,0,0,1,.25-.4.73.73,0,0,1,.45-.13.6.6,0,0,1,.53.22,1.44,1.44,0,0,1,.15.77v1.12a.87.87,0,0,1-.17.61.62.62,0,0,1-.52.2.83.83,0,0,1-.43-.11,1.52,1.52,0,0,1-.36-.45,1.63,1.63,0,0,0-.72-.68,2.36,2.36,0,0,0-1.08-.23,1.74,1.74,0,0,0-1.31.53,1.83,1.83,0,0,0-.51,1.33,1.86,1.86,0,0,0,.52,1.38A2,2,0,0,0,578,392a3.21,3.21,0,0,0,1.6-.45,3.38,3.38,0,0,1,1-.45.56.56,0,0,1,.42.2.71.71,0,0,1,.16.48c0,.43-.32.82-1,1.15a4.92,4.92,0,0,1-2.31.51,3.86,3.86,0,0,1-2.69-.93,3.27,3.27,0,0,1,0-4.77,3.61,3.61,0,0,1,2.58-.95,3.86,3.86,0,0,1,1,.13A4,4,0,0,1,579.73,387.33Z" fill="#333332"/><path d="M587.18,388.46h-.11a.79.79,0,0,1-.56-.19.81.81,0,0,1-.19-.56.79.79,0,0,1,.19-.58,1,1,0,0,1,.67-.17h1.29a.5.5,0,0,1,.29.08.27.27,0,0,1,.1.21v4.53H589a.76.76,0,0,1,.56.19.9.9,0,0,1,0,1.13,1,1,0,0,1-.67.18h-1.15a.51.51,0,0,1-.3-.08.29.29,0,0,1-.1-.23v-.52a2.2,2.2,0,0,1-.81.74,2.42,2.42,0,0,1-1.11.24,2,2,0,0,1-1.64-.66,3.24,3.24,0,0,1-.53-2v-2.28h-.12a.81.81,0,0,1-.56-.19.76.76,0,0,1-.19-.56.75.75,0,0,1,.2-.58,1,1,0,0,1,.67-.17h1.28a.43.43,0,0,1,.28.08.24.24,0,0,1,.1.21v3.18a2.3,2.3,0,0,0,.23,1.19.89.89,0,0,0,.77.34,1.17,1.17,0,0,0,.93-.42,1.6,1.6,0,0,0,.37-1.11Z" fill="#333332"/><path d="M594.19,389.56v2.22h1.61a1,1,0,0,1,.66.17.71.71,0,0,1,.2.57.75.75,0,0,1-.2.58,1,1,0,0,1-.66.18H592a1,1,0,0,1-.67-.18.75.75,0,0,1-.2-.58.71.71,0,0,1,.2-.57,1.07,1.07,0,0,1,.68-.17h.52v-3.32h-.3a1,1,0,0,1-.66-.18.71.71,0,0,1-.2-.57.79.79,0,0,1,.19-.58,1,1,0,0,1,.67-.17h1.45a.48.48,0,0,1,.29.08.24.24,0,0,1,.1.21v1a5.15,5.15,0,0,1,1.4-1.14,2.9,2.9,0,0,1,1.39-.35,1.72,1.72,0,0,1,1.07.31,1,1,0,0,1,.4.81.84.84,0,0,1-.28.66,1,1,0,0,1-.7.25,1.58,1.58,0,0,1-.73-.22,1.6,1.6,0,0,0-.58-.23,1.48,1.48,0,0,0-.78.3A7.07,7.07,0,0,0,594.19,389.56Z" fill="#333332"/><path d="M601,390.52a1.89,1.89,0,0,0,.69,1.14,2.23,2.23,0,0,0,1.35.37,3.78,3.78,0,0,0,1.68-.41,3.58,3.58,0,0,1,1-.41.52.52,0,0,1,.41.18.72.72,0,0,1,.16.49c0,.43-.31.79-1,1.1a5.32,5.32,0,0,1-2.35.47,3.88,3.88,0,0,1-2.69-.93,3.27,3.27,0,0,1,0-4.78,3.88,3.88,0,0,1,2.69-.93,3.55,3.55,0,0,1,2.45.87,2.8,2.8,0,0,1,1,2.14.65.65,0,0,1-.2.55,1.45,1.45,0,0,1-.8.15Zm3.69-1.06a1.5,1.5,0,0,0-.6-1,2.11,2.11,0,0,0-1.26-.35,2,2,0,0,0-1.2.34,1.74,1.74,0,0,0-.63,1Z" fill="#333332"/><path d="M608.45,389.35h5.67a.28.28,0,0,1,.33.32v.85a.35.35,0,0,1-.1.26.31.31,0,0,1-.23.12h-5.67a.3.3,0,0,1-.22-.1.47.47,0,0,1-.07-.28v-.85a.28.28,0,0,1,.08-.23A.26.26,0,0,1,608.45,389.35Z" fill="#333332"/><path d="M617.6,388.46l.55,3.36.73-2.6a1,1,0,0,1,.3-.54.83.83,0,0,1,.52-.13.94.94,0,0,1,.53.12,1,1,0,0,1,.3.55l.76,2.6.52-3.36h-.12a.81.81,0,0,1-.56-.19.76.76,0,0,1-.19-.56.79.79,0,0,1,.19-.58,1.09,1.09,0,0,1,.68-.17h1.6a1,1,0,0,1,.67.18.68.68,0,0,1,.2.57.76.76,0,0,1-.19.56.81.81,0,0,1-.56.19h-.12l-.85,4.31a.79.79,0,0,1-.31.52,1.42,1.42,0,0,1-.72.16,1.36,1.36,0,0,1-.71-.16.88.88,0,0,1-.36-.52l-.8-2.66-.71,2.66a.83.83,0,0,1-.35.51,1.38,1.38,0,0,1-.73.17,1.36,1.36,0,0,1-.71-.16.79.79,0,0,1-.31-.52l-.87-4.31h-.11a.67.67,0,0,1-.74-.75.71.71,0,0,1,.19-.57A1,1,0,0,1,616,387h1.62a1,1,0,0,1,.67.18.71.71,0,0,1,.19.57.67.67,0,0,1-.74.75Z" fill="#333332"/><path d="M626.24,390.52a1.89,1.89,0,0,0,.69,1.14,2.24,2.24,0,0,0,1.36.37,3.77,3.77,0,0,0,1.67-.41,3.85,3.85,0,0,1,1-.41.54.54,0,0,1,.42.18.78.78,0,0,1,.16.49c0,.43-.32.79-.95,1.1a5.36,5.36,0,0,1-2.36.47,3.88,3.88,0,0,1-2.69-.93,3.29,3.29,0,0,1,0-4.78,3.88,3.88,0,0,1,2.69-.93,3.53,3.53,0,0,1,2.45.87,2.76,2.76,0,0,1,1,2.14.65.65,0,0,1-.19.55,1.46,1.46,0,0,1-.81.15Zm3.69-1.06a1.5,1.5,0,0,0-.6-1,2.1,2.1,0,0,0-1.25-.35,1.92,1.92,0,0,0-1.2.34,1.7,1.7,0,0,0-.64,1Z" fill="#333332"/><path d="M635.27,387.58a2.31,2.31,0,0,1,.78-.45,2.75,2.75,0,0,1,1-.17,3.09,3.09,0,0,1,2.33.94,3.35,3.35,0,0,1,.9,2.41,3,3,0,0,1-.92,2.24,3.21,3.21,0,0,1-2.33.9,2.74,2.74,0,0,1-1.15-.23,1.88,1.88,0,0,1-.79-.69V393a.27.27,0,0,1-.11.22.51.51,0,0,1-.3.08h-1a1,1,0,0,1-.66-.18.74.74,0,0,1-.19-.58.76.76,0,0,1,.18-.55.75.75,0,0,1,.56-.19h.11v-5.93h-.11a.75.75,0,0,1-.56-.2.77.77,0,0,1-.2-.56.75.75,0,0,1,.2-.58,1,1,0,0,1,.67-.18h1.28a.4.4,0,0,1,.32.11.51.51,0,0,1,.09.34Zm1.52.84a1.39,1.39,0,0,0-1.11.5,1.83,1.83,0,0,0-.45,1.27,1.93,1.93,0,0,0,.44,1.3,1.49,1.49,0,0,0,2.23,0,1.88,1.88,0,0,0,.44-1.3,1.84,1.84,0,0,0-.44-1.27A1.45,1.45,0,0,0,636.79,388.42Z" fill="#333332"/><path d="M643.1,393.18a1.68,1.68,0,0,1-.36.21,1.07,1.07,0,0,1-.39.07.49.49,0,0,1-.41-.15,1.06,1.06,0,0,1-.12-.59v-.91a1,1,0,0,1,.15-.64.61.61,0,0,1,.52-.19.75.75,0,0,1,.65.39,1.88,1.88,0,0,0,.26.31,2,2,0,0,0,.78.46,3.11,3.11,0,0,0,1,.15,1.36,1.36,0,0,0,.78-.2.56.56,0,0,0,.3-.49c0-.37-.53-.63-1.58-.77-.23,0-.42-.05-.55-.08a3.55,3.55,0,0,1-1.77-.64,1.58,1.58,0,0,1-.58-1.3,1.75,1.75,0,0,1,.7-1.49,3.23,3.23,0,0,1,2-.52,5.75,5.75,0,0,1,.91.07,7.31,7.31,0,0,1,1,.22,1,1,0,0,1,.3-.25.73.73,0,0,1,.36-.08.52.52,0,0,1,.43.17.79.79,0,0,1,.15.52v.84a.65.65,0,0,1-.15.46.56.56,0,0,1-.43.16,2.18,2.18,0,0,1-1-.49,2.29,2.29,0,0,0-1.36-.49,1.6,1.6,0,0,0-.83.18.51.51,0,0,0-.29.48c0,.32.41.53,1.23.64l.56.07a4.75,4.75,0,0,1,2.12.67,1.57,1.57,0,0,1,.58,1.33,1.9,1.9,0,0,1-.76,1.6,3.64,3.64,0,0,1-2.17.56,7.22,7.22,0,0,1-1-.07A7.74,7.74,0,0,1,643.1,393.18Z" fill="#333332"/><path d="M654.27,391.78h1.46a1,1,0,0,1,.67.17.68.68,0,0,1,.2.57.72.72,0,0,1-.2.58,1,1,0,0,1-.67.18h-4.62a1,1,0,0,1-.66-.18.95.95,0,0,1,0-1.15,1,1,0,0,1,.67-.17h1.47v-3.32h-.77a1,1,0,0,1-.66-.18.71.71,0,0,1-.19-.57.75.75,0,0,1,.19-.58,1,1,0,0,1,.66-.17h2.06a.48.48,0,0,1,.29.08.25.25,0,0,1,.11.21Zm-1-7.91a.85.85,0,0,1,.66.19,1.6,1.6,0,0,1,.17.92,1.51,1.51,0,0,1-.15.86c-.1.12-.33.17-.69.17a1,1,0,0,1-.69-.16.91.91,0,0,1-.15-.62,2.55,2.55,0,0,1,.15-1.12C652.69,384,652.92,383.87,653.28,383.87Z" fill="#333332"/><path d="M661.24,387.34h2.08a1,1,0,0,1,.67.17.93.93,0,0,1,0,1.15,1,1,0,0,1-.67.18h-2.08v1.75a1.65,1.65,0,0,0,.22,1,1,1,0,0,0,.8.28,3.39,3.39,0,0,0,1.25-.31,3.22,3.22,0,0,1,1-.31.64.64,0,0,1,.49.22.8.8,0,0,1,.2.54c0,.35-.32.67-.95,1a5.19,5.19,0,0,1-2.17.43,3.63,3.63,0,0,1-1.24-.19,2.11,2.11,0,0,1-.84-.54,1.84,1.84,0,0,1-.32-.66,6.32,6.32,0,0,1-.09-1.28v-1.9h-.65a1,1,0,0,1-.66-.18.74.74,0,0,1-.19-.58.71.71,0,0,1,.19-.57,1,1,0,0,1,.66-.17h.65v-1.6a.91.91,0,0,1,.19-.66.9.9,0,0,1,.65-.19.88.88,0,0,1,.64.19.91.91,0,0,1,.2.66Z" fill="#333332"/><path d="M668.25,390.52a1.89,1.89,0,0,0,.69,1.14,2.24,2.24,0,0,0,1.36.37,3.77,3.77,0,0,0,1.67-.41,3.58,3.58,0,0,1,1-.41.52.52,0,0,1,.41.18.72.72,0,0,1,.16.49c0,.43-.31.79-.95,1.1a5.29,5.29,0,0,1-2.35.47,3.88,3.88,0,0,1-2.69-.93,3.29,3.29,0,0,1,0-4.78,3.88,3.88,0,0,1,2.69-.93,3.53,3.53,0,0,1,2.45.87,2.76,2.76,0,0,1,1,2.14.65.65,0,0,1-.2.55,1.42,1.42,0,0,1-.8.15Zm3.69-1.06a1.5,1.5,0,0,0-.6-1,2.11,2.11,0,0,0-1.26-.35,2,2,0,0,0-1.2.34,1.74,1.74,0,0,0-.63,1Z" fill="#333332"/><path d="M678.51,390.8a1.48,1.48,0,0,1,1,.36,1.19,1.19,0,0,1,.39.93,1.17,1.17,0,0,1-.39.92,1.48,1.48,0,0,1-1,.36,1.44,1.44,0,0,1-1-.36,1.15,1.15,0,0,1-.4-.92,1.18,1.18,0,0,1,.4-.93A1.44,1.44,0,0,1,678.51,390.8Z" fill="#333332"/><path d="M688.94,387.33a.78.78,0,0,1,.26-.4.73.73,0,0,1,.45-.13.58.58,0,0,1,.52.22,1.34,1.34,0,0,1,.16.77v1.12a.93.93,0,0,1-.17.61.63.63,0,0,1-.53.2.79.79,0,0,1-.42-.11,1.52,1.52,0,0,1-.36-.45,1.63,1.63,0,0,0-.72-.68,2.41,2.41,0,0,0-1.09-.23,1.76,1.76,0,0,0-1.31.53,2.06,2.06,0,0,0,0,2.71,2,2,0,0,0,1.42.52,3.24,3.24,0,0,0,1.6-.45,3.51,3.51,0,0,1,1-.45.53.53,0,0,1,.42.2.67.67,0,0,1,.17.48c0,.43-.32.82-1,1.15a4.93,4.93,0,0,1-2.32.51,3.88,3.88,0,0,1-2.69-.93,3.07,3.07,0,0,1-1-2.39,3.1,3.1,0,0,1,1-2.38,3.65,3.65,0,0,1,2.59-.95,3.86,3.86,0,0,1,1,.13A3.81,3.81,0,0,1,688.94,387.33Z" fill="#333332"/><path d="M695.31,386.81a3.89,3.89,0,0,1,2.7.93,3.29,3.29,0,0,1,0,4.78,4.36,4.36,0,0,1-5.38,0,3.29,3.29,0,0,1,0-4.78A3.87,3.87,0,0,1,695.31,386.81Zm0,1.44a1.76,1.76,0,0,0-1.31.53,1.79,1.79,0,0,0-.52,1.33,1.86,1.86,0,0,0,.52,1.36,1.87,1.87,0,0,0,2.63,0,1.86,1.86,0,0,0,.52-1.36,1.83,1.83,0,0,0-.51-1.33A1.8,1.8,0,0,0,695.31,388.25Z" fill="#333332"/><path d="M704.15,387.43a1.9,1.9,0,0,1,.67-.47,2,2,0,0,1,.8-.16,1.55,1.55,0,0,1,1.34.55,3.09,3.09,0,0,1,.41,1.84v2.59h.1a.59.59,0,0,1,.48.19.8.8,0,0,1,.16.55.77.77,0,0,1-.17.58.75.75,0,0,1-.57.18h-1.16a.5.5,0,0,1-.29-.08.29.29,0,0,1-.1-.22v-3.86a1.33,1.33,0,0,0-.14-.68.48.48,0,0,0-.42-.23.59.59,0,0,0-.53.31,1.7,1.7,0,0,0-.19.87v2.39h.11a.56.56,0,0,1,.47.19.8.8,0,0,1,.17.55.82.82,0,0,1-.17.58.79.79,0,0,1-.58.18h-1.16a.5.5,0,0,1-.29-.08A.24.24,0,0,1,703,393v-3.86a1.33,1.33,0,0,0-.14-.68.45.45,0,0,0-.41-.23.6.6,0,0,0-.54.31,1.73,1.73,0,0,0-.19.87v2.39h.1a.57.57,0,0,1,.48.19.79.79,0,0,1,.16.55.77.77,0,0,1-.17.58.75.75,0,0,1-.57.18h-1.55a.75.75,0,0,1-.57-.18.84.84,0,0,1-.17-.58.8.8,0,0,1,.16-.55.59.59,0,0,1,.48-.19h.1v-3.32h-.1a.63.63,0,0,1-.49-.2.82.82,0,0,1-.16-.55.75.75,0,0,1,.17-.57.79.79,0,0,1,.58-.18h.92a.52.52,0,0,1,.38.11.68.68,0,0,1,.1.44,1.71,1.71,0,0,1,.61-.53,1.73,1.73,0,0,1,.79-.18,1.49,1.49,0,0,1,.69.15A1.29,1.29,0,0,1,704.15,387.43Z" fill="#333332"/><path d="M714.88,384.78l-4,8.58a1.88,1.88,0,0,1-.34.56.52.52,0,0,1-.37.16.85.85,0,0,1-.55-.2.6.6,0,0,1-.25-.49,1.63,1.63,0,0,1,.19-.62v0l4-8.56a2.11,2.11,0,0,1,.35-.58.51.51,0,0,1,.37-.15.86.86,0,0,1,.55.19.62.62,0,0,1,.25.5,1.27,1.27,0,0,1,0,.26A2.93,2.93,0,0,1,714.88,384.78Z" fill="#333332"/><path d="M479.67,408.58h.11a.68.68,0,0,1,.76.75.68.68,0,0,1-.21.57,1,1,0,0,1-.66.18H479a.87.87,0,0,1-.51-.13.92.92,0,0,1-.28-.47,4.71,4.71,0,0,1-1.2.57,4.45,4.45,0,0,1-1.29.2,2.58,2.58,0,0,1-1.73-.55,1.87,1.87,0,0,1-.63-1.5,1.82,1.82,0,0,1,.82-1.59,3.92,3.92,0,0,1,2.28-.57c.22,0,.45,0,.7,0s.52.06.82.11v-.13a1.37,1.37,0,0,0-.29-.94,1.16,1.16,0,0,0-.88-.32,2.72,2.72,0,0,0-1.15.34,2.82,2.82,0,0,1-1,.33.69.69,0,0,1-.52-.19.65.65,0,0,1-.2-.49c0-.37.27-.67.81-.88a6,6,0,0,1,2.2-.33,3.13,3.13,0,0,1,2.09.56,2.46,2.46,0,0,1,.63,1.9ZM478,407.26a5.43,5.43,0,0,0-.62-.11,3.53,3.53,0,0,0-.54,0,2.33,2.33,0,0,0-1.18.25.78.78,0,0,0-.42.7.7.7,0,0,0,.27.6,1.2,1.2,0,0,0,.79.21,2.8,2.8,0,0,0,.88-.13,2.94,2.94,0,0,0,.82-.43Z" fill="#333332"/><path d="M487.31,404.13a.78.78,0,0,1,.26-.4.69.69,0,0,1,.45-.13.58.58,0,0,1,.52.22,1.34,1.34,0,0,1,.16.77v1.12a.93.93,0,0,1-.17.61.65.65,0,0,1-.53.2.77.77,0,0,1-.42-.11,1.26,1.26,0,0,1-.36-.45,1.83,1.83,0,0,0-.72-.69,2.55,2.55,0,0,0-1.09-.22,1.79,1.79,0,0,0-1.31.52,1.85,1.85,0,0,0-.51,1.34,1.87,1.87,0,0,0,.53,1.38,1.94,1.94,0,0,0,1.41.52,3.25,3.25,0,0,0,1.61-.45,3.38,3.38,0,0,1,1-.45.55.55,0,0,1,.42.19.75.75,0,0,1,.17.49c0,.43-.33.81-1,1.15a4.89,4.89,0,0,1-2.31.51,3.88,3.88,0,0,1-2.69-.93,3.07,3.07,0,0,1-1-2.39,3.1,3.1,0,0,1,1-2.38,3.62,3.62,0,0,1,2.58-.95,3.88,3.88,0,0,1,1,.13A4.11,4.11,0,0,1,487.31,404.13Z" fill="#333332"/><path d="M495.71,404.13a.78.78,0,0,1,.26-.4.69.69,0,0,1,.45-.13.58.58,0,0,1,.52.22,1.34,1.34,0,0,1,.16.77v1.12a.93.93,0,0,1-.17.61.65.65,0,0,1-.53.2.77.77,0,0,1-.42-.11,1.26,1.26,0,0,1-.36-.45,1.83,1.83,0,0,0-.72-.69,2.55,2.55,0,0,0-1.09-.22,1.79,1.79,0,0,0-1.31.52,1.85,1.85,0,0,0-.51,1.34,1.87,1.87,0,0,0,.53,1.38,2,2,0,0,0,1.42.52,3.24,3.24,0,0,0,1.6-.45,3.38,3.38,0,0,1,1-.45.55.55,0,0,1,.42.19.75.75,0,0,1,.17.49c0,.43-.32.81-1,1.15a4.93,4.93,0,0,1-2.32.51,3.88,3.88,0,0,1-2.69-.93,3.07,3.07,0,0,1-1-2.39,3.1,3.1,0,0,1,1-2.38,3.65,3.65,0,0,1,2.59-.95,3.86,3.86,0,0,1,1,.13A4.11,4.11,0,0,1,495.71,404.13Z" fill="#333332"/><path d="M502.08,403.61a3.89,3.89,0,0,1,2.7.93,3.29,3.29,0,0,1,0,4.78,4.36,4.36,0,0,1-5.38,0,3.27,3.27,0,0,1,0-4.78A3.85,3.85,0,0,1,502.08,403.61Zm0,1.44a1.79,1.79,0,0,0-1.31.52,1.82,1.82,0,0,0-.52,1.34,1.86,1.86,0,0,0,.52,1.36,1.87,1.87,0,0,0,2.63,0,2,2,0,0,0,0-2.7A1.83,1.83,0,0,0,502.08,405.05Z" fill="#333332"/><path d="M511.56,405.26h-.1a.77.77,0,0,1-.56-.19.76.76,0,0,1-.19-.56.75.75,0,0,1,.19-.58,1,1,0,0,1,.66-.17h1.3a.44.44,0,0,1,.28.08.25.25,0,0,1,.11.22v4.52h.11a.76.76,0,0,1,.56.19.93.93,0,0,1,0,1.13,1,1,0,0,1-.67.18H512.1a.45.45,0,0,1-.3-.09.25.25,0,0,1-.11-.22v-.52a2.1,2.1,0,0,1-.8.74,2.46,2.46,0,0,1-1.12.24,2,2,0,0,1-1.63-.66,3.18,3.18,0,0,1-.53-2v-2.28h-.12a.79.79,0,0,1-.56-.19.76.76,0,0,1-.19-.56.75.75,0,0,1,.19-.58,1.07,1.07,0,0,1,.68-.17h1.28a.43.43,0,0,1,.28.08.25.25,0,0,1,.1.22v3.17a2.3,2.3,0,0,0,.23,1.19.89.89,0,0,0,.77.34,1.18,1.18,0,0,0,.93-.42,1.65,1.65,0,0,0,.36-1.11Z" fill="#333332"/><path d="M521.76,408.57h.09a.81.81,0,0,1,.57.18.77.77,0,0,1,.19.57.75.75,0,0,1-.19.58,1,1,0,0,1-.66.18h-1.68a1,1,0,0,1-.66-.18.72.72,0,0,1-.21-.58.77.77,0,0,1,.2-.57.82.82,0,0,1,.58-.18h.09v-2a2.24,2.24,0,0,0-.23-1.17.89.89,0,0,0-.77-.34,1.19,1.19,0,0,0-.92.41,1.64,1.64,0,0,0-.36,1.1v2h.08a.82.82,0,0,1,.58.18.77.77,0,0,1,.19.57.75.75,0,0,1-.19.58,1,1,0,0,1-.66.18h-1.7a1,1,0,0,1-.65-.18.75.75,0,0,1-.2-.58.77.77,0,0,1,.19-.57.82.82,0,0,1,.58-.18h.08v-3.31H516a.75.75,0,0,1-.56-.19.74.74,0,0,1-.19-.55.75.75,0,0,1,.19-.58,1,1,0,0,1,.67-.18h1.17a.5.5,0,0,1,.29.08.27.27,0,0,1,.1.22v.53a2,2,0,0,1,.8-.74,2.38,2.38,0,0,1,1.13-.25,2,2,0,0,1,1.63.66,3.16,3.16,0,0,1,.54,2Z" fill="#333332"/><path d="M526.82,404.14h2.08a1,1,0,0,1,.67.17.74.74,0,0,1,.2.57.75.75,0,0,1-.2.58,1,1,0,0,1-.67.18h-2.08v1.75a1.65,1.65,0,0,0,.22,1,1,1,0,0,0,.79.28,3.39,3.39,0,0,0,1.26-.31,3.22,3.22,0,0,1,1-.31.68.68,0,0,1,.49.22.8.8,0,0,1,.2.54q0,.53-1,1a5.11,5.11,0,0,1-2.16.43,3.63,3.63,0,0,1-1.24-.19,2.11,2.11,0,0,1-.84-.54,1.69,1.69,0,0,1-.32-.66,6.14,6.14,0,0,1-.1-1.28v-1.9h-.64a1,1,0,0,1-.66-.18.75.75,0,0,1-.19-.58.71.71,0,0,1,.19-.57,1,1,0,0,1,.66-.17h.64v-1.6a.91.91,0,0,1,.2-.66.89.89,0,0,1,.65-.19.88.88,0,0,1,.64.19.91.91,0,0,1,.2.66Z" fill="#333332"/><path d="M533.88,410a1.47,1.47,0,0,1-.36.21,1.07,1.07,0,0,1-.39.07.48.48,0,0,1-.41-.16,1,1,0,0,1-.12-.58v-.91a1,1,0,0,1,.15-.64.61.61,0,0,1,.52-.19.76.76,0,0,1,.66.39,1.93,1.93,0,0,0,.25.31,2.33,2.33,0,0,0,.78.46,3.11,3.11,0,0,0,1,.15,1.42,1.42,0,0,0,.79-.2.57.57,0,0,0,.29-.5c0-.36-.53-.62-1.58-.76l-.55-.07a3.55,3.55,0,0,1-1.77-.65,1.63,1.63,0,0,1-.58-1.3,1.75,1.75,0,0,1,.7-1.49,3.25,3.25,0,0,1,2-.52,5.75,5.75,0,0,1,.91.07,7.31,7.31,0,0,1,1,.22,1,1,0,0,1,.31-.25.67.67,0,0,1,.35-.08.52.52,0,0,1,.43.17.79.79,0,0,1,.15.52v.84a.65.65,0,0,1-.15.46.58.58,0,0,1-.43.16,2.18,2.18,0,0,1-1-.49,2.27,2.27,0,0,0-1.36-.49,1.71,1.71,0,0,0-.83.17.56.56,0,0,0-.29.49c0,.32.41.53,1.23.64l.56.07a4.75,4.75,0,0,1,2.12.67,1.57,1.57,0,0,1,.58,1.33,1.87,1.87,0,0,1-.76,1.6,3.64,3.64,0,0,1-2.17.56,7.22,7.22,0,0,1-1-.07A7.74,7.74,0,0,1,533.88,410Z" fill="#333332"/><path d="M546.85,401.58l-4,8.58a1.94,1.94,0,0,1-.35.56.5.5,0,0,1-.36.16.87.87,0,0,1-.56-.2.62.62,0,0,1-.24-.49,1.83,1.83,0,0,1,.18-.62v0l4-8.56a2.4,2.4,0,0,1,.35-.58.53.53,0,0,1,.37-.15.8.8,0,0,1,.55.2.58.58,0,0,1,.25.49.82.82,0,0,1,0,.26A2.93,2.93,0,0,1,546.85,401.58Z" fill="#333332"/><path d="M555.28,408.58h.11a.75.75,0,0,1,.56.19.77.77,0,0,1,.2.56.71.71,0,0,1-.2.57,1,1,0,0,1-.67.18h-.64a.87.87,0,0,1-.51-.13,1.08,1.08,0,0,1-.28-.47,4.71,4.71,0,0,1-1.2.57,4.34,4.34,0,0,1-1.29.2,2.58,2.58,0,0,1-1.73-.55,1.89,1.89,0,0,1-.62-1.5,1.83,1.83,0,0,1,.81-1.59,3.92,3.92,0,0,1,2.28-.57c.22,0,.45,0,.7,0s.52.06.83.11v-.13a1.33,1.33,0,0,0-.3-.94,1.16,1.16,0,0,0-.88-.32,2.76,2.76,0,0,0-1.15.34,2.82,2.82,0,0,1-1,.33.71.71,0,0,1-.52-.19.65.65,0,0,1-.2-.49c0-.37.27-.67.81-.88a6,6,0,0,1,2.21-.33,3.12,3.12,0,0,1,2.08.56,2.46,2.46,0,0,1,.63,1.9Zm-1.65-1.32a6,6,0,0,0-.63-.11,3.44,3.44,0,0,0-.54,0,2.33,2.33,0,0,0-1.18.25.78.78,0,0,0-.42.7.7.7,0,0,0,.27.6,1.22,1.22,0,0,0,.79.21,2.9,2.9,0,0,0,.89-.13,3.24,3.24,0,0,0,.82-.43Z" fill="#333332"/><path d="M559.66,404.38a2.33,2.33,0,0,1,.78-.46,2.75,2.75,0,0,1,.95-.16,3.07,3.07,0,0,1,2.32.94,3.31,3.31,0,0,1,.91,2.41,3,3,0,0,1-.92,2.24,3.21,3.21,0,0,1-2.33.9,2.74,2.74,0,0,1-1.15-.23,1.9,1.9,0,0,1-.8-.69v.45a.26.26,0,0,1-.1.22.51.51,0,0,1-.3.08h-1a1,1,0,0,1-.66-.18.74.74,0,0,1-.2-.58.76.76,0,0,1,.19-.55.75.75,0,0,1,.56-.19H558v-5.93h-.11a.77.77,0,0,1-.57-.2.76.76,0,0,1-.19-.56.74.74,0,0,1,.2-.58,1,1,0,0,1,.67-.18h1.28a.4.4,0,0,1,.31.1.5.5,0,0,1,.1.35Zm1.51.84a1.41,1.41,0,0,0-1.11.5,1.87,1.87,0,0,0-.44,1.27,1.93,1.93,0,0,0,.44,1.3,1.42,1.42,0,0,0,1.11.5,1.44,1.44,0,0,0,1.12-.5,1.93,1.93,0,0,0,.44-1.3,1.89,1.89,0,0,0-.44-1.27A1.45,1.45,0,0,0,561.17,405.22Z" fill="#333332"/><path d="M570.33,408.62h1.11a1,1,0,0,1,.66.17.69.69,0,0,1,.21.56.72.72,0,0,1-.2.56,1,1,0,0,1-.67.17h-4a1,1,0,0,1-.67-.17.88.88,0,0,1,0-1.12,1.08,1.08,0,0,1,.67-.17h1.27v-5.77l-.77.2-.29.06a.66.66,0,0,1-.17,0A.52.52,0,0,1,567,403a.68.68,0,0,1-.16-.5.53.53,0,0,1,.17-.4,1.19,1.19,0,0,1,.53-.26l1.69-.46.35-.09.23,0a.47.47,0,0,1,.39.15.9.9,0,0,1,.11.5Z" fill="#333332"/><path d="M576.79,408.54h2.4v0a.68.68,0,0,1,.18-.52.8.8,0,0,1,.56-.17.61.61,0,0,1,.47.17.62.62,0,0,1,.16.47v.09l0,1.06a.66.66,0,0,1-.1.39.43.43,0,0,1-.31.09h-4.92a1,1,0,0,1-.61-.17.59.59,0,0,1-.22-.49,1.09,1.09,0,0,1,.14-.51,2.06,2.06,0,0,1,.42-.53l2.79-2.68a3.6,3.6,0,0,0,.67-.88,1.87,1.87,0,0,0,.22-.87,1.26,1.26,0,0,0-.3-.92,1.21,1.21,0,0,0-.9-.3,1.74,1.74,0,0,0-.63.1.93.93,0,0,0-.43.3,1.92,1.92,0,0,0-.2.3c-.22.35-.46.53-.72.53a.63.63,0,0,1-.52-.23,1.05,1.05,0,0,1-.17-.67,1.71,1.71,0,0,1,.1-.68,1.32,1.32,0,0,1,.44-.45,4.16,4.16,0,0,1,1.13-.53,4.72,4.72,0,0,1,1.28-.17,2.9,2.9,0,0,1,2.05.7,2.4,2.4,0,0,1,.76,1.87,3,3,0,0,1-.4,1.51,5.2,5.2,0,0,1-1.22,1.44Z" fill="#333332"/><path d="M587.35,405.39a2.22,2.22,0,0,1,1.17.77,2.37,2.37,0,0,1,.38,1.38,2.55,2.55,0,0,1-.87,2,3.45,3.45,0,0,1-2.35.75,4.49,4.49,0,0,1-2-.4c-.52-.27-.79-.59-.79-1a.75.75,0,0,1,.22-.55.77.77,0,0,1,.57-.21,3.61,3.61,0,0,1,.87.31,3,3,0,0,0,1.23.31,1.2,1.2,0,0,0,1.33-1.33,1.36,1.36,0,0,0-.29-1,1.73,1.73,0,0,0-1.11-.33.58.58,0,0,1-.72-.71.58.58,0,0,1,.58-.63l.13,0a1.56,1.56,0,0,0,.95-.35,1.17,1.17,0,0,0,.22-.81,1,1,0,0,0-.26-.76,1,1,0,0,0-.74-.26,2.58,2.58,0,0,0-1.14.31,2.56,2.56,0,0,1-.86.32.58.58,0,0,1-.43-.17.63.63,0,0,1-.16-.44c0-.39.27-.72.8-1a4.3,4.3,0,0,1,2-.42,2.79,2.79,0,0,1,1.9.62,2.06,2.06,0,0,1,.71,1.63,1.89,1.89,0,0,1-.33,1.13A2.37,2.37,0,0,1,587.35,405.39Z" fill="#333332"/><path d="M596.32,406.66h.11a.53.53,0,0,0,.32-.17.49.49,0,0,1,.3-.18.69.69,0,0,1,.45.14.51.51,0,0,1,.16.4.71.71,0,0,1,0,.14.32.32,0,0,1,0,.14l-.15.5a.43.43,0,0,1-.13.22.49.49,0,0,1-.25.06h-.77v.86H597a.54.54,0,0,1,.41.18.63.63,0,0,1,.18.46.58.58,0,0,1-.21.5,1.11,1.11,0,0,1-.66.15h-2.89a1.11,1.11,0,0,1-.66-.15.59.59,0,0,1-.19-.5.57.57,0,0,1,.2-.5,1.09,1.09,0,0,1,.65-.15h1v-.86h-3.15a.31.31,0,0,1-.27-.11.46.46,0,0,1-.09-.31v-.42a1.92,1.92,0,0,1,0-.39,1.82,1.82,0,0,1,.13-.3l2.87-4.88a.86.86,0,0,1,.17-.21.3.3,0,0,1,.18,0h.19l1.21.21a.26.26,0,0,1,.16.11.43.43,0,0,1,.05.24Zm-1.48-3.78-2.15,3.78h2.15Z" fill="#333332"/><path d="M601.66,403v1.58a6.06,6.06,0,0,1,.8-.19,4.18,4.18,0,0,1,.68-.06,2.61,2.61,0,0,1,2,.81,3,3,0,0,1,.76,2.13,2.8,2.8,0,0,1-.93,2.27,4.1,4.1,0,0,1-2.7.78,5.07,5.07,0,0,1-1.93-.28.89.89,0,0,1-.66-.82.77.77,0,0,1,.23-.57.74.74,0,0,1,.55-.24,4.25,4.25,0,0,1,.86.2,3.79,3.79,0,0,0,1.13.2,1.66,1.66,0,0,0,1.2-.4,1.47,1.47,0,0,0,.42-1.13,1.56,1.56,0,0,0-.4-1.13,1.42,1.42,0,0,0-1.08-.42,2.5,2.5,0,0,0-1,.28,2.45,2.45,0,0,1-.82.28.62.62,0,0,1-.55-.22,1.2,1.2,0,0,1-.17-.73V402c0-.25,0-.4.1-.46a.46.46,0,0,1,.34-.1h4.48a.83.83,0,0,1,.59.17,1.14,1.14,0,0,1,0,1.2.83.83,0,0,1-.59.16Z" fill="#333332"/><path d="M614.06,401.58l-4,8.58a2.22,2.22,0,0,1-.34.56.54.54,0,0,1-.37.16.87.87,0,0,1-.56-.2.62.62,0,0,1-.24-.49,1.83,1.83,0,0,1,.18-.62v0l4-8.56a2.4,2.4,0,0,1,.35-.58.53.53,0,0,1,.37-.15.84.84,0,0,1,.56.2.6.6,0,0,1,.24.49.82.82,0,0,1,0,.26A2.93,2.93,0,0,1,614.06,401.58Z" fill="#333332"/><path d="M622.49,408.58h.11a.79.79,0,0,1,.57.19.81.81,0,0,1,.19.56.71.71,0,0,1-.2.57,1,1,0,0,1-.67.18h-.64a.87.87,0,0,1-.51-.13,1.08,1.08,0,0,1-.28-.47,4.56,4.56,0,0,1-1.2.57,4.34,4.34,0,0,1-1.29.2,2.54,2.54,0,0,1-1.72-.55,1.87,1.87,0,0,1-.63-1.5,1.83,1.83,0,0,1,.81-1.59,3.92,3.92,0,0,1,2.28-.57c.22,0,.45,0,.7,0s.52.06.83.11v-.13a1.33,1.33,0,0,0-.3-.94,1.16,1.16,0,0,0-.88-.32,2.76,2.76,0,0,0-1.15.34,2.82,2.82,0,0,1-1,.33.71.71,0,0,1-.52-.19.65.65,0,0,1-.2-.49c0-.37.27-.67.81-.88a6,6,0,0,1,2.21-.33,3.12,3.12,0,0,1,2.08.56,2.46,2.46,0,0,1,.63,1.9Zm-1.65-1.32a6,6,0,0,0-.63-.11,3.4,3.4,0,0,0-.53,0,2.28,2.28,0,0,0-1.18.25.77.77,0,0,0-.43.7.7.7,0,0,0,.27.6,1.22,1.22,0,0,0,.79.21,2.9,2.9,0,0,0,.89-.13,3.08,3.08,0,0,0,.82-.43Z" fill="#333332"/><path d="M630.13,404.13a.78.78,0,0,1,.26-.4.73.73,0,0,1,.45-.13.58.58,0,0,1,.52.22,1.34,1.34,0,0,1,.16.77v1.12a.87.87,0,0,1-.17.61.63.63,0,0,1-.53.2.82.82,0,0,1-.42-.11A1.52,1.52,0,0,1,630,406a1.71,1.71,0,0,0-.72-.69,2.55,2.55,0,0,0-1.09-.22,1.79,1.79,0,0,0-1.31.52,1.88,1.88,0,0,0-.5,1.34,1.86,1.86,0,0,0,.52,1.38,2,2,0,0,0,1.42.52,3.21,3.21,0,0,0,1.6-.45,3.51,3.51,0,0,1,1-.45.55.55,0,0,1,.42.19.7.7,0,0,1,.17.49c0,.43-.32.81-1,1.15a4.93,4.93,0,0,1-2.32.51,3.88,3.88,0,0,1-2.69-.93,3.07,3.07,0,0,1-1-2.39,3.1,3.1,0,0,1,1-2.38,3.65,3.65,0,0,1,2.59-.95,3.86,3.86,0,0,1,1,.13A3.81,3.81,0,0,1,630.13,404.13Z" fill="#333332"/><path d="M638.54,404.13a.77.77,0,0,1,.25-.4.73.73,0,0,1,.45-.13.6.6,0,0,1,.53.22,1.44,1.44,0,0,1,.15.77v1.12a.87.87,0,0,1-.17.61.62.62,0,0,1-.52.2.83.83,0,0,1-.43-.11,1.52,1.52,0,0,1-.36-.45,1.71,1.71,0,0,0-.72-.69,2.5,2.5,0,0,0-1.08-.22,1.77,1.77,0,0,0-1.31.52,2.05,2.05,0,0,0,0,2.72,2,2,0,0,0,1.42.52,3.21,3.21,0,0,0,1.6-.45,3.38,3.38,0,0,1,1-.45.59.59,0,0,1,.42.19.74.74,0,0,1,.16.49c0,.43-.32.81-1,1.15a4.92,4.92,0,0,1-2.31.51,3.9,3.9,0,0,1-2.7-.93,3.28,3.28,0,0,1,0-4.77,3.61,3.61,0,0,1,2.58-.95,3.86,3.86,0,0,1,1,.13A4,4,0,0,1,638.54,404.13Z" fill="#333332"/><path d="M644.91,403.61a3.88,3.88,0,0,1,2.69.93,3.29,3.29,0,0,1,0,4.78,4.36,4.36,0,0,1-5.38,0,3.29,3.29,0,0,1,0-4.78A3.88,3.88,0,0,1,644.91,403.61Zm0,1.44a1.81,1.81,0,0,0-1.32.52,1.86,1.86,0,0,0-.52,1.34,1.9,1.9,0,0,0,.52,1.36,1.88,1.88,0,0,0,2.64,0,1.9,1.9,0,0,0,.52-1.36,1.86,1.86,0,0,0-.52-1.34A1.81,1.81,0,0,0,644.91,405.05Z" fill="#333332"/><path d="M654.39,405.26h-.11a.79.79,0,0,1-.56-.19.81.81,0,0,1-.19-.56.75.75,0,0,1,.2-.58,1,1,0,0,1,.66-.17h1.29a.5.5,0,0,1,.29.08.25.25,0,0,1,.1.22v4.52h.11a.68.68,0,0,1,.76.74.74.74,0,0,1-.2.58,1,1,0,0,1-.67.18h-1.15a.45.45,0,0,1-.3-.09.25.25,0,0,1-.1-.22v-.52a2.2,2.2,0,0,1-.81.74,2.39,2.39,0,0,1-1.11.24,2,2,0,0,1-1.64-.66,3.24,3.24,0,0,1-.53-2v-2.28h-.12a.67.67,0,0,1-.75-.75.75.75,0,0,1,.2-.58,1,1,0,0,1,.67-.17h1.29a.47.47,0,0,1,.28.08.27.27,0,0,1,.09.22v3.17a2.3,2.3,0,0,0,.23,1.19.89.89,0,0,0,.77.34,1.17,1.17,0,0,0,.93-.42,1.6,1.6,0,0,0,.37-1.11Z" fill="#333332"/><path d="M664.58,408.57h.09a.8.8,0,0,1,.57.18.77.77,0,0,1,.2.57.75.75,0,0,1-.2.58,1,1,0,0,1-.66.18H662.9a1,1,0,0,1-.66-.18.72.72,0,0,1-.2-.58.77.77,0,0,1,.19-.57.85.85,0,0,1,.59-.18h.08v-2a2.24,2.24,0,0,0-.23-1.17.87.87,0,0,0-.76-.34,1.19,1.19,0,0,0-.93.41,1.64,1.64,0,0,0-.36,1.1v2h.08a.85.85,0,0,1,.59.18.81.81,0,0,1,.19.57.75.75,0,0,1-.2.58,1,1,0,0,1-.66.18h-1.69a1,1,0,0,1-.66-.18.75.75,0,0,1-.2-.58.81.81,0,0,1,.19-.57.85.85,0,0,1,.59-.18h.08v-3.31h-.12a.75.75,0,0,1-.56-.19.74.74,0,0,1-.19-.55.75.75,0,0,1,.2-.58,1,1,0,0,1,.67-.18h1.16a.48.48,0,0,1,.29.08.25.25,0,0,1,.1.22v.53a2,2,0,0,1,.8-.74,2.41,2.41,0,0,1,1.13-.25,2,2,0,0,1,1.63.66,3.16,3.16,0,0,1,.54,2Z" fill="#333332"/><path d="M669.64,404.14h2.08a1,1,0,0,1,.67.17.71.71,0,0,1,.2.57.75.75,0,0,1-.2.58,1,1,0,0,1-.67.18h-2.08v1.75a1.65,1.65,0,0,0,.22,1,1,1,0,0,0,.8.28,3.48,3.48,0,0,0,1.26-.31,3.07,3.07,0,0,1,1-.31.67.67,0,0,1,.48.22.8.8,0,0,1,.2.54c0,.35-.32.67-1,1a5.19,5.19,0,0,1-2.17.43,3.53,3.53,0,0,1-1.23-.19,2.08,2.08,0,0,1-.85-.54,1.84,1.84,0,0,1-.32-.66,6.32,6.32,0,0,1-.09-1.28v-1.9h-.65a.94.94,0,0,1-.65-.18.95.95,0,0,1,0-1.15,1,1,0,0,1,.66-.17H668v-1.6a.91.91,0,0,1,.19-.66.9.9,0,0,1,.65-.19.88.88,0,0,1,.64.19.91.91,0,0,1,.2.66Z" fill="#333332"/><path d="M679,404.23a1.78,1.78,0,0,1,.66-.47,2,2,0,0,1,.81-.16,1.55,1.55,0,0,1,1.34.55,3.16,3.16,0,0,1,.41,1.84v2.59h.1a.59.59,0,0,1,.48.19.86.86,0,0,1,.16.55.82.82,0,0,1-.17.58.75.75,0,0,1-.57.18H681a.48.48,0,0,1-.29-.08.26.26,0,0,1-.1-.22v-3.86a1.25,1.25,0,0,0-.15-.68.45.45,0,0,0-.41-.23.58.58,0,0,0-.53.3,1.67,1.67,0,0,0-.19.88v2.39h.1a.59.59,0,0,1,.48.19.8.8,0,0,1,.16.55.77.77,0,0,1-.17.58.75.75,0,0,1-.57.18h-1.16a.53.53,0,0,1-.3-.08.27.27,0,0,1-.11-.22v-3.86a1.37,1.37,0,0,0-.13-.68.45.45,0,0,0-.41-.23.6.6,0,0,0-.54.31,1.61,1.61,0,0,0-.19.87v2.39h.1a.62.62,0,0,1,.48.18.83.83,0,0,1,.16.56.82.82,0,0,1-.17.58.76.76,0,0,1-.57.18h-1.56a.74.74,0,0,1-.56-.18.79.79,0,0,1-.17-.58.8.8,0,0,1,.16-.55.57.57,0,0,1,.48-.19h.09v-3.32h-.09a.6.6,0,0,1-.49-.2.82.82,0,0,1-.17-.55.79.79,0,0,1,.18-.58.81.81,0,0,1,.57-.17h.93a.54.54,0,0,1,.38.11.74.74,0,0,1,.1.44,1.59,1.59,0,0,1,.6-.53,1.74,1.74,0,0,1,.8-.18,1.52,1.52,0,0,1,.69.15A1.44,1.44,0,0,1,679,404.23Z" fill="#333332"/><path d="M685.05,407.32a1.89,1.89,0,0,0,.69,1.14,2.24,2.24,0,0,0,1.36.37,3.64,3.64,0,0,0,1.67-.41,3.71,3.71,0,0,1,1-.41.54.54,0,0,1,.42.18.78.78,0,0,1,.16.49c0,.42-.32.79-1,1.1a5.36,5.36,0,0,1-2.36.47,3.88,3.88,0,0,1-2.69-.93,3.29,3.29,0,0,1,0-4.78,3.88,3.88,0,0,1,2.69-.93,3.53,3.53,0,0,1,2.45.87,2.76,2.76,0,0,1,1,2.14.65.65,0,0,1-.19.55,1.46,1.46,0,0,1-.81.15Zm3.69-1.06a1.5,1.5,0,0,0-.6-1,2.1,2.1,0,0,0-1.25-.35,2,2,0,0,0-1.2.33,1.76,1.76,0,0,0-.64,1Z" fill="#333332"/><path d="M698.19,408.57h.08a.82.82,0,0,1,.58.18.77.77,0,0,1,.19.57.75.75,0,0,1-.19.58,1,1,0,0,1-.66.18H696.5a1,1,0,0,1-.66-.18.75.75,0,0,1-.2-.58.77.77,0,0,1,.2-.57.82.82,0,0,1,.58-.18h.08v-2a2.25,2.25,0,0,0-.22-1.17.89.89,0,0,0-.77-.34,1.19,1.19,0,0,0-.92.41,1.64,1.64,0,0,0-.36,1.1v2h.08a.82.82,0,0,1,.58.18.77.77,0,0,1,.19.57.72.72,0,0,1-.2.58,1,1,0,0,1-.65.18h-1.7a1,1,0,0,1-.65-.18.72.72,0,0,1-.2-.58.77.77,0,0,1,.19-.57.82.82,0,0,1,.58-.18h.08v-3.31h-.11a.73.73,0,0,1-.56-.19.74.74,0,0,1-.2-.55.75.75,0,0,1,.2-.58,1,1,0,0,1,.67-.18h1.16a.46.46,0,0,1,.29.08.25.25,0,0,1,.1.22v.53a2,2,0,0,1,.81-.74,2.38,2.38,0,0,1,1.13-.25,2,2,0,0,1,1.63.66,3.16,3.16,0,0,1,.54,2Z" fill="#333332"/><path d="M704.8,405.26h-.11a.79.79,0,0,1-.56-.19.76.76,0,0,1-.19-.56.79.79,0,0,1,.19-.58,1,1,0,0,1,.67-.17h1.29a.5.5,0,0,1,.29.08.27.27,0,0,1,.1.22v4.52h.11a.76.76,0,0,1,.56.19.9.9,0,0,1,0,1.13,1,1,0,0,1-.67.18h-1.15a.45.45,0,0,1-.3-.09.25.25,0,0,1-.1-.22v-.52a2.2,2.2,0,0,1-.81.74,2.42,2.42,0,0,1-1.11.24,2,2,0,0,1-1.64-.66,3.24,3.24,0,0,1-.53-2v-2.28h-.12a.81.81,0,0,1-.56-.19.76.76,0,0,1-.19-.56.72.72,0,0,1,.2-.58,1,1,0,0,1,.67-.17h1.28a.43.43,0,0,1,.28.08.25.25,0,0,1,.1.22v3.17a2.3,2.3,0,0,0,.23,1.19.89.89,0,0,0,.77.34,1.17,1.17,0,0,0,.93-.42,1.65,1.65,0,0,0,.37-1.11Z" fill="#333332"/><path d="M712.12,407.6a1.45,1.45,0,0,1,1,.36,1.27,1.27,0,0,1,0,1.85,1.45,1.45,0,0,1-1,.36,1.49,1.49,0,0,1-1-.36,1.19,1.19,0,0,1-.39-.92,1.21,1.21,0,0,1,.39-.93A1.49,1.49,0,0,1,712.12,407.6Z" fill="#333332"/><path d="M720.58,405.26H718.3a1,1,0,0,1-.67-.18.74.74,0,0,1-.2-.57.75.75,0,0,1,.19-.58,1.07,1.07,0,0,1,.68-.17h3.56a.51.51,0,0,1,.3.08.25.25,0,0,1,.1.22V410a2.76,2.76,0,0,1-.76,2.13,3.34,3.34,0,0,1-2.32.71,3.94,3.94,0,0,1-1.53-.22.75.75,0,0,1-.45-.74.64.64,0,0,1,.18-.49.74.74,0,0,1,.52-.16,4.83,4.83,0,0,1,.64.07,6.71,6.71,0,0,0,.8.06,1.09,1.09,0,0,0,1-.38,3.33,3.33,0,0,0,.27-1.66Zm.4-4.59a.85.85,0,0,1,.66.19,2.59,2.59,0,0,1,0,1.79c-.09.11-.32.16-.68.16a1,1,0,0,1-.69-.16.9.9,0,0,1-.16-.63,2.34,2.34,0,0,1,.16-1.11Q720.44,400.67,721,400.67Z" fill="#333332"/><path d="M727.12,410a1.53,1.53,0,0,1-.37.21,1,1,0,0,1-.39.07.48.48,0,0,1-.41-.16,1,1,0,0,1-.12-.58v-.91A1,1,0,0,1,726,408a.61.61,0,0,1,.52-.19.76.76,0,0,1,.66.39,1.93,1.93,0,0,0,.25.31,2.33,2.33,0,0,0,.78.46,3.11,3.11,0,0,0,1,.15,1.42,1.42,0,0,0,.79-.2.57.57,0,0,0,.29-.5c0-.36-.53-.62-1.58-.76l-.55-.07a3.55,3.55,0,0,1-1.77-.65,1.63,1.63,0,0,1-.58-1.3,1.77,1.77,0,0,1,.7-1.49,3.27,3.27,0,0,1,2-.52,5.67,5.67,0,0,1,.91.07,7.31,7.31,0,0,1,1,.22,1,1,0,0,1,.31-.25.68.68,0,0,1,.36-.08.51.51,0,0,1,.42.17.79.79,0,0,1,.15.52v.84a.65.65,0,0,1-.15.46.57.57,0,0,1-.42.16,2.15,2.15,0,0,1-1-.49,2.27,2.27,0,0,0-1.36-.49,1.74,1.74,0,0,0-.83.17.56.56,0,0,0-.29.49c0,.32.41.53,1.23.64l.56.07a4.75,4.75,0,0,1,2.12.67,1.57,1.57,0,0,1,.58,1.33,1.87,1.87,0,0,1-.76,1.6,3.63,3.63,0,0,1-2.16.56,7.26,7.26,0,0,1-1.06-.07A7.59,7.59,0,0,1,727.12,410Z" fill="#333332"/><path d="M736,409.43v1.86h.87a1,1,0,0,1,.67.18.75.75,0,0,1,.2.58.71.71,0,0,1-.2.57,1,1,0,0,1-.67.17H734a1,1,0,0,1-.66-.17.71.71,0,0,1-.19-.57.75.75,0,0,1,.19-.58,1,1,0,0,1,.66-.18h.41v-6h-.11a.81.81,0,0,1-.56-.19.76.76,0,0,1-.19-.56.75.75,0,0,1,.19-.58,1,1,0,0,1,.67-.17h1.05a.46.46,0,0,1,.29.07.24.24,0,0,1,.1.21v.49a2.26,2.26,0,0,1,.84-.7,2.55,2.55,0,0,1,1.12-.23,3.17,3.17,0,0,1,2.32.89,3,3,0,0,1,.93,2.26,3.24,3.24,0,0,1-.9,2.35,3,3,0,0,1-2.25.94,3.49,3.49,0,0,1-1-.16A2.43,2.43,0,0,1,736,409.43Zm1.58-4.38a1.42,1.42,0,0,0-1.11.5,2.08,2.08,0,0,0,0,2.56,1.48,1.48,0,0,0,2.23,0,1.87,1.87,0,0,0,.44-1.27,1.85,1.85,0,0,0-.44-1.28A1.42,1.42,0,0,0,737.6,405.05Z" fill="#333332"/><polyline points="622.19 371.83 622.19 348.87 570.05 348.87 570.05 324.89 665.15 324.89 665.15 305 624.97 305 624.97 280.35" fill="none" stroke="#d60000" stroke-miterlimit="10"/><path d="M379.34,158.72c-.59-.36-8.09-3.69-8.92-4.41s-.36,5.48-.36,5.48l-.36,12.73s27.73,1.07,28.69.84,11.18-6.19,11.18-6.19l-.23-11.07s-7,4.76-15.48,4.88A42,42,0,0,1,379.34,158.72Z" fill="#fff"/><path d="M379.34,158.72c-.59-.36-8.09-3.69-8.92-4.41s-.36,5.48-.36,5.48l-.36,12.73s27.73,1.07,28.69.84,11.18-6.19,11.18-6.19l-.23-11.07s-7,4.76-15.48,4.88A42,42,0,0,1,379.34,158.72Z" fill="#fff"/><path d="M369.6,154.66a77.84,77.84,0,0,1,0,16.15c-.93,9-13.29,9.89-30.89,13.59-10.6,1.44-32.43,45.41-32.43,62.47,0,8,23.11,49.82,23.11,49.82" fill="none" stroke="#4c5054" stroke-miterlimit="10" stroke-width="2"/><path d="M409.79,154.66a77.84,77.84,0,0,0,0,16.15c.92,9,13.28,9.89,30.88,13.59,20.87,8.08,29.91,53.52,34.05,68.14C472.46,264.89,451,296.69,451,296.69" fill="none" stroke="#4c5054" stroke-miterlimit="10" stroke-width="2"/><path d="M389.38,180.39h1.44c9.27-.2,14.48-2.36,19.77-6.63,2.88,3.22,8.46,7.57,11,6.64s-13.76,12-32.3,10.81-25.95-6.41-28.74-11.7c3.57-1.52,7.28-2.8,8.12-5.75C374,179.46,382.57,180.79,389.38,180.39Z" fill="#4c5054" stroke="#4c5054" stroke-miterlimit="10" stroke-width="2"/><polygon points="436.13 216.78 347.58 216.78 347.36 203.8 436.13 202.51 436.13 216.78" fill="#4c5054"/><polygon points="439.71 232.91 343.28 232.91 343.02 228.5 438.31 228.5 439.71 232.91" fill="#4c5054"/><polyline points="456.78 287.7 467.22 287.7 450.98 321.99 330.15 321.99 311.54 287.7 323.13 287.7" fill="none" stroke="#4c5054" stroke-miterlimit="10" stroke-width="2"/><polygon points="319.5 232.66 460.9 232.66 447.08 321.99 333.3 321.99 319.5 232.66" fill="#fff" stroke="#4c5054" stroke-miterlimit="10" stroke-width="2"/><polyline points="311.54 287.7 330.15 327.21 450.98 327.21 467.22 287.7" fill="none" stroke="#4c5054" stroke-miterlimit="10" stroke-width="2"/><path d="M326,199.2c3.52,6.92,18.82,17.37,21.56,17.58s3.58-12,3.58-12c-9.18-4.67-15.85-10.06-18.1-16.23Z" fill="#4c5054"/><path d="M318.57,209.68c5.72,7.31,29.81,20.74,32.59,20-.62,2-3.59,3.21-4.63,3.21.42.44-21.31-1.15-21.31-1.15s-13.59-6.67-12.36-9.69C314.3,218.6,319.08,209.62,318.57,209.68Z" fill="#4c5054"/><path d="M307.56,237.92c1.76,1.45,11.84,5.34,13.52,5-.08,1,1.36,11.91,1.36,11.91s-13.88.59-15.84-2.29C306.9,249.05,307.56,237.92,307.56,237.92Z" fill="#4c5054"/><path d="M314.36,267.76c6.67.11,10.29-1.74,10.12-2.83s1.44,9.34,1.44,9.34,4.45,5.19-5.34,5.91C317.2,277,314.36,267.76,314.36,267.76Z" fill="#4c5054"/><path d="M455.3,199.2c-3.53,6.92-16.43,17.37-19.17,17.58s-7.22-10.9-7.22-10.9c9.27-2.69,17.1-11.19,19.31-17.36Z" fill="#4c5054"/><path d="M461.82,211.16c-5.73,7.32-24.26,18.75-27,18,.63,1.95-1,3.7,0,3.7-.41.45,21.31-1.14,21.31-1.14s11.43-5.5,10.19-8.5C464.86,219.77,461.31,211.1,461.82,211.16Z" fill="#4c5054"/><path d="M471,238.86c-1.76,1.45-9.12,4.4-10.79,4,.08,1-1.37,11.91-1.37,11.91s13.89.6,15.85-2.28C474.43,249.05,471,238.86,471,238.86Z" fill="#4c5054"/><path d="M468.83,267.07c-6.66.12-12.16-1.05-12-2.14s-1.44,9.34-1.44,9.34-3.17,4.26,6.62,4.94C465.39,276.11,468.83,267.07,468.83,267.07Z" fill="#4c5054"/><path d="M364,75.18a5.85,5.85,0,0,0-4.62,2.19c-4.38,5.69-4.33,17.49-3.53,24,.25,2.09-6.59-1.23-11.12,1.67-5.25,19,11.33,23,11.33,25.44l2,8.75A25.43,25.43,0,0,0,364.17,149c5.81,6.17,15.29,12,26.74,12,16.06,0,25.93-9.87,29.68-19.09A39.13,39.13,0,0,0,424,128.19c12-5.56,13.59-24.4,10.19-25.13-3.13-.78-1.38-1.06-4.6-1,0-9.16,1.35-30.57-8.53-30.57L391.7,54.68Z" fill="#fff" stroke="#4c5054" stroke-miterlimit="10" stroke-width="2"/><path d="M425.86,107.63l-.64-6.09-17.14-2.77a30.17,30.17,0,0,0-4.7-.67,15.66,15.66,0,0,0-9.85,3.31,10.12,10.12,0,0,1-5.13.76l-2.29-.88a15.69,15.69,0,0,0-9.69-3.19,71.74,71.74,0,0,0-7.36,1.14L355.89,102l-.63,6.09s10.86,8.59,10.91,8.38a15.43,15.43,0,0,0,10.25,3.68,15,15,0,0,0,10.21-3.55,5,5,0,0,1,6.74.09c1.85,1.9,6.07,3.46,10,3.46,4.78,0,11.49-4.93,11.49-4.93Z" fill="#4c5054"/><ellipse cx="376.57" cy="108.48" rx="6.51" ry="3.54" fill="#fff"/><ellipse cx="404.45" cy="108.64" rx="6.51" ry="3.54" fill="#fff"/><line x1="384.89" y1="139.94" x2="395.33" y2="139.94" fill="none" stroke="#4c5054" stroke-miterlimit="10" stroke-width="2"/><path d="M402.3,276.92a5.63,5.63,0,0,0-3.34-5.59,20.8,20.8,0,0,0-3.78.29s-1.71.25-3.17.56-1.79,1.42-1.24,4.55a6.8,6.8,0,0,0,7.21,5.11C401.21,281.56,401.88,279.67,402.3,276.92Z" fill="#d60000"/><path d="M389.12,279.91s-1.95.39-2.46,3.88-.62,4.74-.27,4.75,1.1-1.16,1.6-1.81.69-1,1.23-1,1.72,1.9,2.1,2.29.23.41.59.37,0-3.67-.6-5.55S389.88,279.92,389.12,279.91Z" fill="#d60000"/><path d="M419.3,292.9c-1.79-1.45-6.22-1.06-9.32-1.68-2.84-.6-9.46-2.94-10.53-3.27a2.4,2.4,0,0,1,.7-.75,18.22,18.22,0,0,0,3.81-3.63l3.9-1.34A45.23,45.23,0,0,1,417,280a3.84,3.84,0,0,0,3.54-3.24,2.42,2.42,0,0,0-1.17-2.36,11.61,11.61,0,0,0,0-1.18,2.42,2.42,0,0,0-1-1.91,3.06,3.06,0,0,0-3.72.16,27.26,27.26,0,0,1-4.4,3.46c-.91.51-3.29,1.55-4.6,2.15a20,20,0,0,1,.54-4.5,68.11,68.11,0,0,0,2-8.81c.43-3.3.47-6.48-4.25-9.11A26.4,26.4,0,0,0,387.6,251h-.53c-2.94.13-7.66.71-10.72,2.93-4.78,3.39-5.67,6-5.42,9.43s1.49,9.11,1.67,10.86a25.19,25.19,0,0,1,.09,2.75,43.3,43.3,0,0,1-4.47-2.22,17.61,17.61,0,0,1-3.48-3,3.07,3.07,0,0,0-3.72-.22,2.42,2.42,0,0,0-1.09,1.88l0,1.17a2.46,2.46,0,0,0-1.24,2.34,3.84,3.84,0,0,0,3.49,3.31,32.58,32.58,0,0,1,8.21,1.91c3.26,1.17,3.89,1.42,4,1.46A9.66,9.66,0,0,0,378,287a5.93,5.93,0,0,1,1.65,1.3,95.09,95.09,0,0,1-10.56,3.59c-3.17.58-6.91.07-8.73,1.49a3,3,0,0,0-1.21,3.91,2.87,2.87,0,0,0,1.56,2l.47.19a3.16,3.16,0,0,0,1.22,3.18c1.68,1.09,3.15,1.38,5.31-1.21a23.54,23.54,0,0,1,8.78-6.05c2.91-1.26,5-2.13,5.63-2.4a9.7,9.7,0,0,0,6.14,2.47H389c1.58,0,5.31-.13,7.28-2.34.23-.25.42-.52.63-.77.64.29,2.67,1.2,5.56,2.53a23.23,23.23,0,0,1,8.65,6.25c2.1,2.61,4,2.52,5.72,1.45a2.68,2.68,0,0,0,.86-3.16s0-.09.46-.28a3.19,3.19,0,0,0,2.13-1.9A3.49,3.49,0,0,0,419.3,292.9Zm-13.7-14.84s4.22-1.8,5.24-2.38a15.49,15.49,0,0,0,3.67-3,2.4,2.4,0,0,1,3.17-.37,2.73,2.73,0,0,1,.61,2,5.53,5.53,0,0,1-.9,1.8,4.09,4.09,0,0,0,1-1.15,1.59,1.59,0,0,1,1,1.93c-.25,1-.62,1.57-4.09,2.14a44.63,44.63,0,0,0-8.47,2.46l-2,.72a1.25,1.25,0,0,1,.15-.46,6.09,6.09,0,0,0,.45-1.58,7.69,7.69,0,0,0,.16-1C405.6,278.19,405.6,278.06,405.6,278.06Zm-34.2,3.39a47.63,47.63,0,0,0-8.45-2.32c-3.46-.59-3.23-1.06-3.46-2.05a1.48,1.48,0,0,1,1-1.83h0a4,4,0,0,0,.93,1.15,5.61,5.61,0,0,1-.87-1.81,2.74,2.74,0,0,1,.65-1.94,1.59,1.59,0,0,1,2.18-.53,1.63,1.63,0,0,1,.45.42,15.27,15.27,0,0,0,3.61,3c.94.55,4.72,2.25,5.14,2.46v.46a1.75,1.75,0,0,0,.09.68h0a15.83,15.83,0,0,0,.69,3ZM372.48,296a18.5,18.5,0,0,0-5.87,4.68c-1.13,1.18-2.9,2.26-4.45.65s.46-4,.39-4a5.38,5.38,0,0,0-1.06,1.22,3.18,3.18,0,0,1-1.27-.84,2.64,2.64,0,0,1,0-3.27c.77-1.12,3.36-1.23,7.93-1.77a50.25,50.25,0,0,0,11.62-3.88s.27.65.55,1.23,1,1.92,1,1.92-5.47,2.32-8.9,4.07Zm23.17-6.34-.11.13c-.18,0-.32,0-.29.31a2,2,0,0,1-.62,2c-.72.52-.83-1-.83-1h-.13s.21,1.49-.46,1.67-.55-1.36-.55-1.36h-.23s.41,1.76-.57,2-.68-1.79-.68-1.79h-.41s.52,2.18-.88,2.21-.88-2.08-.88-2.08h-.55s.52,2.14-.92,2.16-.85-2.23-.85-2.23h-.54s.23,1.88-.65,1.89-.61-2.13-.61-2.13h-.19a4.08,4.08,0,0,1-.15,1c-.15.47-.55.66-.78.32a3.68,3.68,0,0,1-.14-1.58h-.1v.39c0,.4-.17.83-.75.74s-.54-1.59-.55-2.19v-.2s-.93-1.6-1.44-2.73-1.49-1.09-3.14-1.9-3.89-1.79-4-7.35v-.42h0l0-1.78c.15-2.15,2.16-4.72,2.41-8.91s-.79-4.75-1-4.49-.93,5.26-1.35,7.33a15.55,15.55,0,0,1-.9,3.15s-2.21-9.51-.28-12.31a16.35,16.35,0,0,1,7.5-6.47,48.46,48.46,0,0,1,8.33-1.78,26.08,26.08,0,0,1,8.36,1.25c4.55,1.53,9.52,6.11,9.61,8.9a22,22,0,0,1-.94,7.12c-.73,3.05-1,4-1,4s-2.12-8.85-2.38-10-1-1.27-1.27.08a14.1,14.1,0,0,0,1.11,7.45c1.41,3.37,2.77,6.22,1.86,9.51s-3.62,4.58-5.5,5.78a8.17,8.17,0,0,0-2.65,3.31Zm23,7.92a3.13,3.13,0,0,1-1.29.79,5.57,5.57,0,0,0-1-1.24s1.9,2.45.3,4-3.32.44-4.43-.76a18.68,18.68,0,0,0-5.77-4.8c-3.31-1.76-8.49-4.11-8.75-4.24a23.25,23.25,0,0,0,1.3-2.47,67.66,67.66,0,0,0,11.83,3.46c4.55.64,7.14.81,7.89,1.95a2.66,2.66,0,0,1-.07,3.28Z" fill="#d60000"/><path d="M386.11,272.11c-1.42-.33-3.16-.62-3.16-.62a20.87,20.87,0,0,0-3.78-.37,5.65,5.65,0,0,0-3.46,5.52c.37,2.75,1,4.66,4.19,5a6.81,6.81,0,0,0,7.31-4.95C387.86,273.57,387.54,272.46,386.11,272.11Z" fill="#d60000"/><path d="M404.3,278.92a5.63,5.63,0,0,0-3.34-5.59,20.8,20.8,0,0,0-3.78.29s-1.71.25-3.17.56-1.79,1.42-1.24,4.55a6.8,6.8,0,0,0,7.21,5.11C403.21,283.56,403.88,281.67,404.3,278.92Z" fill="#60bcd8"/><path d="M391.12,281.91s-1.95.39-2.46,3.88-.62,4.74-.27,4.75,1.1-1.16,1.6-1.81.69-1,1.23-1,1.72,1.9,2.1,2.29.23.41.59.37,0-3.67-.6-5.55S391.88,281.92,391.12,281.91Z" fill="#60bcd8"/><path d="M421.3,294.9c-1.79-1.45-6.22-1.06-9.32-1.68-2.84-.6-9.46-2.94-10.53-3.27a2.4,2.4,0,0,1,.7-.75,18.22,18.22,0,0,0,3.81-3.63l3.9-1.34A45.23,45.23,0,0,1,419,282a3.84,3.84,0,0,0,3.54-3.24,2.42,2.42,0,0,0-1.17-2.36,11.61,11.61,0,0,0,0-1.18,2.42,2.42,0,0,0-1-1.91,3.06,3.06,0,0,0-3.72.16,27.26,27.26,0,0,1-4.4,3.46c-.91.51-3.29,1.55-4.6,2.15a20,20,0,0,1,.54-4.5,68.11,68.11,0,0,0,2-8.81c.43-3.3.47-6.48-4.25-9.11A26.4,26.4,0,0,0,389.6,253h-.53c-2.94.13-7.66.71-10.72,2.93-4.78,3.39-5.67,6-5.42,9.43s1.49,9.11,1.67,10.86a25.19,25.19,0,0,1,.09,2.75,43.3,43.3,0,0,1-4.47-2.22,17.61,17.61,0,0,1-3.48-3,3.07,3.07,0,0,0-3.72-.22,2.42,2.42,0,0,0-1.09,1.88l0,1.17a2.46,2.46,0,0,0-1.24,2.34,3.84,3.84,0,0,0,3.49,3.31,32.58,32.58,0,0,1,8.21,1.91c3.26,1.17,3.89,1.42,4,1.46A9.66,9.66,0,0,0,380,289a5.93,5.93,0,0,1,1.65,1.3,95.09,95.09,0,0,1-10.56,3.59c-3.17.58-6.91.07-8.73,1.49a3,3,0,0,0-1.21,3.91,2.87,2.87,0,0,0,1.56,2l.47.19a3.16,3.16,0,0,0,1.22,3.18c1.68,1.09,3.15,1.38,5.31-1.21a23.54,23.54,0,0,1,8.78-6.05c2.91-1.26,5-2.13,5.63-2.4a9.7,9.7,0,0,0,6.14,2.47H391c1.58,0,5.31-.13,7.28-2.34.23-.25.42-.52.63-.77.64.29,2.67,1.2,5.56,2.53a23.23,23.23,0,0,1,8.65,6.25c2.1,2.61,4,2.52,5.72,1.45a2.68,2.68,0,0,0,.86-3.16s0-.09.46-.28a3.19,3.19,0,0,0,2.13-1.9A3.49,3.49,0,0,0,421.3,294.9Zm-13.7-14.84s4.22-1.8,5.24-2.38a15.49,15.49,0,0,0,3.67-3,2.4,2.4,0,0,1,3.17-.37,2.73,2.73,0,0,1,.61,2,5.53,5.53,0,0,1-.9,1.8,4.09,4.09,0,0,0,1-1.15,1.59,1.59,0,0,1,1,1.93c-.25,1-.62,1.57-4.09,2.14a44.63,44.63,0,0,0-8.47,2.46l-2,.72a1.25,1.25,0,0,1,.15-.46,6.09,6.09,0,0,0,.45-1.58,7.69,7.69,0,0,0,.16-1C407.6,280.19,407.6,280.06,407.6,280.06Zm-34.2,3.39a47.63,47.63,0,0,0-8.45-2.32c-3.46-.59-3.23-1.06-3.46-2.05a1.48,1.48,0,0,1,1-1.83h0a4,4,0,0,0,.93,1.15,5.61,5.61,0,0,1-.87-1.81,2.74,2.74,0,0,1,.65-1.94,1.59,1.59,0,0,1,2.18-.53,1.63,1.63,0,0,1,.45.42,15.27,15.27,0,0,0,3.61,3c.94.55,4.72,2.25,5.14,2.46v.46a1.75,1.75,0,0,0,.09.68h0a15.83,15.83,0,0,0,.69,3ZM374.48,298a18.5,18.5,0,0,0-5.87,4.68c-1.13,1.18-2.9,2.26-4.45.65s.46-4,.39-4a5.38,5.38,0,0,0-1.06,1.22,3.18,3.18,0,0,1-1.27-.84,2.64,2.64,0,0,1,0-3.27c.77-1.12,3.36-1.23,7.93-1.77a50.25,50.25,0,0,0,11.62-3.88s.27.65.55,1.23,1,1.92,1,1.92-5.47,2.32-8.9,4.07Zm23.17-6.34-.11.13c-.18,0-.32,0-.29.31a2,2,0,0,1-.62,2c-.72.52-.83-1-.83-1h-.13s.21,1.49-.46,1.67-.55-1.36-.55-1.36h-.23s.41,1.76-.57,2-.68-1.79-.68-1.79h-.41s.52,2.18-.88,2.21-.88-2.08-.88-2.08h-.55s.52,2.14-.92,2.16-.85-2.23-.85-2.23h-.54s.23,1.88-.65,1.89-.61-2.13-.61-2.13h-.19a4.08,4.08,0,0,1-.15,1c-.15.47-.55.66-.78.32a3.68,3.68,0,0,1-.14-1.58h-.1v.39c0,.4-.17.83-.75.74s-.54-1.59-.55-2.19v-.2s-.93-1.6-1.44-2.73-1.49-1.09-3.14-1.9-3.89-1.79-4-7.35v-.42h0l0-1.78c.15-2.15,2.16-4.72,2.41-8.91s-.79-4.75-1-4.49-.93,5.26-1.35,7.33a15.55,15.55,0,0,1-.9,3.15s-2.21-9.51-.28-12.31a16.35,16.35,0,0,1,7.5-6.47,48.46,48.46,0,0,1,8.33-1.78,26.08,26.08,0,0,1,8.36,1.25c4.55,1.53,9.52,6.11,9.61,8.9a22,22,0,0,1-.94,7.12c-.73,3.05-1,4-1,4s-2.12-8.85-2.38-10-1-1.27-1.27.08a14.1,14.1,0,0,0,1.11,7.45c1.41,3.37,2.77,6.22,1.86,9.51s-3.62,4.58-5.5,5.78a8.17,8.17,0,0,0-2.65,3.31Zm23,7.92a3.13,3.13,0,0,1-1.29.79,5.57,5.57,0,0,0-1-1.24s1.9,2.45.3,4-3.32.44-4.43-.76a18.68,18.68,0,0,0-5.77-4.8c-3.31-1.76-8.49-4.11-8.75-4.24a23.25,23.25,0,0,0,1.3-2.47,67.66,67.66,0,0,0,11.83,3.46c4.55.64,7.14.81,7.89,1.95a2.66,2.66,0,0,1-.07,3.28Z" fill="#60bcd8"/><path d="M388.11,274.11c-1.42-.33-3.16-.62-3.16-.62a20.87,20.87,0,0,0-3.78-.37,5.65,5.65,0,0,0-3.46,5.52c.37,2.75,1,4.66,4.19,5a6.81,6.81,0,0,0,7.31-4.95C389.86,275.57,389.54,274.46,388.11,274.11Z" fill="#60bcd8"/><path d="M403.3,277.92a5.63,5.63,0,0,0-3.34-5.59,20.8,20.8,0,0,0-3.78.29s-1.71.25-3.17.56-1.79,1.42-1.24,4.55a6.8,6.8,0,0,0,7.21,5.11C402.21,282.56,402.88,280.67,403.3,277.92Z" fill="#4c5054"/><path d="M390.12,280.91s-1.95.39-2.46,3.88-.62,4.74-.27,4.75,1.1-1.16,1.6-1.81.69-1,1.23-1,1.72,1.9,2.1,2.29.23.41.59.37,0-3.67-.6-5.55S390.88,280.92,390.12,280.91Z" fill="#4c5054"/><path d="M420.3,293.9c-1.79-1.45-6.22-1.06-9.32-1.68-2.84-.6-9.46-2.94-10.53-3.27a2.4,2.4,0,0,1,.7-.75,18.22,18.22,0,0,0,3.81-3.63l3.9-1.34A45.23,45.23,0,0,1,418,281a3.84,3.84,0,0,0,3.54-3.24,2.42,2.42,0,0,0-1.17-2.36,11.61,11.61,0,0,0,0-1.18,2.42,2.42,0,0,0-1-1.91,3.06,3.06,0,0,0-3.72.16,27.26,27.26,0,0,1-4.4,3.46c-.91.51-3.29,1.55-4.6,2.15a20,20,0,0,1,.54-4.5,68.11,68.11,0,0,0,2-8.81c.43-3.3.47-6.48-4.25-9.11A26.4,26.4,0,0,0,388.6,252h-.53c-2.94.13-7.66.71-10.72,2.93-4.78,3.39-5.67,6-5.42,9.43s1.49,9.11,1.67,10.86a25.19,25.19,0,0,1,.09,2.75,43.3,43.3,0,0,1-4.47-2.22,17.61,17.61,0,0,1-3.48-3,3.07,3.07,0,0,0-3.72-.22,2.42,2.42,0,0,0-1.09,1.88l0,1.17a2.46,2.46,0,0,0-1.24,2.34,3.84,3.84,0,0,0,3.49,3.31,32.58,32.58,0,0,1,8.21,1.91c3.26,1.17,3.89,1.42,4,1.46A9.66,9.66,0,0,0,379,288a5.93,5.93,0,0,1,1.65,1.3,95.09,95.09,0,0,1-10.56,3.59c-3.17.58-6.91.07-8.73,1.49a3,3,0,0,0-1.21,3.91,2.87,2.87,0,0,0,1.56,2l.47.19a3.16,3.16,0,0,0,1.22,3.18c1.68,1.09,3.15,1.38,5.31-1.21a23.54,23.54,0,0,1,8.78-6.05c2.91-1.26,5-2.13,5.63-2.4a9.7,9.7,0,0,0,6.14,2.47H390c1.58,0,5.31-.13,7.28-2.34.23-.25.42-.52.63-.77.64.29,2.67,1.2,5.56,2.53a23.23,23.23,0,0,1,8.65,6.25c2.1,2.61,4,2.52,5.72,1.45a2.68,2.68,0,0,0,.86-3.16s0-.09.46-.28a3.19,3.19,0,0,0,2.13-1.9A3.49,3.49,0,0,0,420.3,293.9Zm-13.7-14.84s4.22-1.8,5.24-2.38a15.49,15.49,0,0,0,3.67-3,2.4,2.4,0,0,1,3.17-.37,2.73,2.73,0,0,1,.61,2,5.53,5.53,0,0,1-.9,1.8,4.09,4.09,0,0,0,1-1.15,1.59,1.59,0,0,1,1,1.93c-.25,1-.62,1.57-4.09,2.14a44.63,44.63,0,0,0-8.47,2.46l-2,.72a1.25,1.25,0,0,1,.15-.46,6.09,6.09,0,0,0,.45-1.58,7.69,7.69,0,0,0,.16-1C406.6,279.19,406.6,279.06,406.6,279.06Zm-34.2,3.39a47.63,47.63,0,0,0-8.45-2.32c-3.46-.59-3.23-1.06-3.46-2.05a1.48,1.48,0,0,1,1-1.83h0a4,4,0,0,0,.93,1.15,5.61,5.61,0,0,1-.87-1.81,2.74,2.74,0,0,1,.65-1.94,1.59,1.59,0,0,1,2.18-.53,1.63,1.63,0,0,1,.45.42,15.27,15.27,0,0,0,3.61,3c.94.55,4.72,2.25,5.14,2.46v.46a1.75,1.75,0,0,0,.09.68h0a15.83,15.83,0,0,0,.69,3ZM373.48,297a18.5,18.5,0,0,0-5.87,4.68c-1.13,1.18-2.9,2.26-4.45.65s.46-4,.39-4a5.38,5.38,0,0,0-1.06,1.22,3.18,3.18,0,0,1-1.27-.84,2.64,2.64,0,0,1,0-3.27c.77-1.12,3.36-1.23,7.93-1.77a50.25,50.25,0,0,0,11.62-3.88s.27.65.55,1.23,1,1.92,1,1.92-5.47,2.32-8.9,4.07Zm23.17-6.34-.11.13c-.18,0-.32,0-.29.31a2,2,0,0,1-.62,2c-.72.52-.83-1-.83-1h-.13s.21,1.49-.46,1.67-.55-1.36-.55-1.36h-.23s.41,1.76-.57,2-.68-1.79-.68-1.79h-.41s.52,2.18-.88,2.21-.88-2.08-.88-2.08h-.55s.52,2.14-.92,2.16-.85-2.23-.85-2.23h-.54s.23,1.88-.65,1.89-.61-2.13-.61-2.13h-.19a4.08,4.08,0,0,1-.15,1c-.15.47-.55.66-.78.32a3.68,3.68,0,0,1-.14-1.58h-.1v.39c0,.4-.17.83-.75.74s-.54-1.59-.55-2.19v-.2s-.93-1.6-1.44-2.73-1.49-1.09-3.14-1.9-3.89-1.79-4-7.35v-.42h0l0-1.78c.15-2.15,2.16-4.72,2.41-8.91s-.79-4.75-1-4.49-.93,5.26-1.35,7.33a15.55,15.55,0,0,1-.9,3.15s-2.21-9.51-.28-12.31a16.35,16.35,0,0,1,7.5-6.47,48.46,48.46,0,0,1,8.33-1.78,26.08,26.08,0,0,1,8.36,1.25c4.55,1.53,9.52,6.11,9.61,8.9a22,22,0,0,1-.94,7.12c-.73,3.05-1,4-1,4s-2.12-8.85-2.38-10-1-1.27-1.27.08a14.1,14.1,0,0,0,1.11,7.45c1.41,3.37,2.77,6.22,1.86,9.51s-3.62,4.58-5.5,5.78a8.17,8.17,0,0,0-2.65,3.31Zm23,7.92a3.13,3.13,0,0,1-1.29.79,5.57,5.57,0,0,0-1-1.24s1.9,2.45.3,4-3.32.44-4.43-.76a18.68,18.68,0,0,0-5.77-4.8c-3.31-1.76-8.49-4.11-8.75-4.24a23.25,23.25,0,0,0,1.3-2.47,67.66,67.66,0,0,0,11.83,3.46c4.55.64,7.14.81,7.89,1.95a2.66,2.66,0,0,1-.07,3.28Z" fill="#4c5054"/><path d="M387.11,273.11c-1.42-.33-3.16-.62-3.16-.62a20.87,20.87,0,0,0-3.78-.37,5.65,5.65,0,0,0-3.46,5.52c.37,2.75,1,4.66,4.19,5a6.81,6.81,0,0,0,7.31-4.95C388.86,274.57,388.54,273.46,387.11,273.11Z" fill="#4c5054"/><rect x="212.01" y="148.99" width="21.82" height="21.82" fill="#fff" stroke="#d60000" stroke-miterlimit="10" stroke-width="2"/><polyline points="241.28 145.39 223.29 163.39 217.06 157.16" fill="none" stroke="#fff" stroke-miterlimit="10" stroke-width="7"/><polyline points="241.28 145.39 223.29 163.39 217.06 157.16" fill="#fff" stroke="#d60000" stroke-miterlimit="10" stroke-width="2"/><circle cx="101.68" cy="159.7" r="12.22" fill="#fff" stroke="#d60000" stroke-miterlimit="10" stroke-width="2"/><circle cx="101.76" cy="156.26" r="3.5" fill="#fff" stroke="#d60000" stroke-miterlimit="10" stroke-width="2"/><path d="M92.52,167.9a16.07,16.07,0,0,1,18.21-.18" fill="#fff" stroke="#d60000" stroke-miterlimit="10" stroke-width="2"/><line x1="129.59" y1="156.73" x2="193.66" y2="156.73" fill="#fff" stroke="#d60000" stroke-miterlimit="10" stroke-width="2"/><line x1="129.59" y1="162.03" x2="151.32" y2="162.03" fill="#fff" stroke="#d60000" stroke-miterlimit="10" stroke-width="2"/><rect x="212.01" y="189.94" width="21.82" height="21.82" fill="#fff" stroke="#d60000" stroke-miterlimit="10" stroke-width="2"/><circle cx="101.68" cy="200.66" r="12.22" fill="#fff" stroke="#d60000" stroke-miterlimit="10" stroke-width="2"/><circle cx="101.76" cy="197.21" r="3.5" fill="#fff" stroke="#d60000" stroke-miterlimit="10" stroke-width="2"/><path d="M92.52,208.86a16,16,0,0,1,18.21-.19" fill="#fff" stroke="#d60000" stroke-miterlimit="10" stroke-width="2"/><line x1="129.59" y1="197.68" x2="193.66" y2="197.68" fill="#fff" stroke="#d60000" stroke-miterlimit="10" stroke-width="2"/><line x1="129.59" y1="202.98" x2="151.32" y2="202.98" fill="#fff" stroke="#d60000" stroke-miterlimit="10" stroke-width="2"/><rect x="212.01" y="230.9" width="21.82" height="21.82" fill="#fff" stroke="#d60000" stroke-miterlimit="10" stroke-width="2"/><circle cx="101.68" cy="241.61" r="12.22" fill="#fff" stroke="#d60000" stroke-miterlimit="10" stroke-width="2"/><circle cx="101.76" cy="238.17" r="3.5" fill="#fff" stroke="#d60000" stroke-miterlimit="10" stroke-width="2"/><path d="M92.52,249.81a16.07,16.07,0,0,1,18.21-.18" fill="#fff" stroke="#d60000" stroke-miterlimit="10" stroke-width="2"/><line x1="129.59" y1="238.63" x2="193.66" y2="238.63" fill="#fff" stroke="#d60000" stroke-miterlimit="10" stroke-width="2"/><line x1="129.59" y1="243.93" x2="151.32" y2="243.93" fill="#fff" stroke="#d60000" stroke-miterlimit="10" stroke-width="2"/><rect x="175.28" y="266" width="59.63" height="16.67" fill="#d60000"/><text transform="translate(189.2 278.38)" font-size="11" fill="#fff" font-family="Arial-BoldMT, Arial" font-weight="700">Delete</text><rect x="532.5" y="67.55" width="185.53" height="198.8" fill="#fff" stroke="#d60000" stroke-miterlimit="10" stroke-width="2"/><rect x="532.5" y="38.34" width="185.53" height="29.27" fill="#edd6d6" stroke="#d60000" stroke-miterlimit="10" stroke-width="2"/><line x1="630.75" y1="52.86" x2="644.88" y2="52.86" fill="none" stroke="#d60000" stroke-miterlimit="10" stroke-width="2"/><line x1="651.58" y1="52.86" x2="665.71" y2="52.86" fill="none" stroke="#d60000" stroke-miterlimit="10" stroke-width="2"/><line x1="672.24" y1="52.86" x2="686.37" y2="52.86" fill="none" stroke="#d60000" stroke-miterlimit="10" stroke-width="2"/><line x1="693.07" y1="52.86" x2="707.2" y2="52.86" fill="none" stroke="#d60000" stroke-miterlimit="10" stroke-width="2"/><text transform="translate(548.26 104.62)" font-size="27" fill="#d60000" font-family="Arial-BoldMT, Arial" font-weight="700">My account</text><text transform="translate(548.26 150.35)" font-size="18" fill="#d60000" font-family="ArialMT, Arial">Balance:</text><text transform="translate(548.26 183.71)" font-size="18" fill="#d60000" font-family="ArialMT, Arial"><tspan letter-spacing="-0.04em">T</tspan><tspan x="10.33" y="0">ransfer</tspan><tspan x="0" y="21.6">amount:</tspan></text><rect x="638.33" y="225.68" width="59.63" height="16.67" fill="#d60000"/><text transform="translate(646.24 238.06)" font-size="11" fill="#fff" font-family="Arial-BoldMT, Arial" font-weight="700" letter-spacing="-0.06em">T<tspan x="6.11" y="0" letter-spacing="0em">ransfer</tspan></text><polyline points="704.49 170.35 686.49 188.35 680.26 182.12" fill="none" stroke="#fff" stroke-miterlimit="10" stroke-width="7"/><polygon points="619.26 280.25 625.19 271.39 631.26 280.35 619.26 280.25" fill="#d60000"/><polygon points="132.93 355.54 124.07 349.61 133.03 343.54 132.93 355.54" fill="#d60000"/><polygon points="151.92 313.69 157.85 304.83 163.92 313.79 151.92 313.69" fill="#d60000"/><polygon points="590.07 319.21 598.93 325.14 589.97 331.21 590.07 319.21" fill="#d60000"/><polygon points="403.86 340.29 397.93 349.15 391.86 340.19 403.86 340.29" fill="#cbd0d1"/><polygon points="380.55 340.29 374.62 349.15 368.55 340.19 380.55 340.29" fill="#cbd0d1"/><polygon points="444.14 392.2 453 398.13 444.04 404.2 444.14 392.2" fill="#cbd0d1"/><polygon points="265.83 407.67 256.97 401.74 265.93 395.67 265.83 407.67" fill="#cbd0d1"/><path d="M524.8,254.42a2.51,2.51,0,1,1-.45,5H513.92a1.6,1.6,0,0,0-1.6,1.6h0a1.6,1.6,0,0,0,1.6,1.6h-.15a1.7,1.7,0,0,1,.45,0,2.51,2.51,0,1,1-.45,5H501.16a1.6,1.6,0,0,0-1.6,1.6h0a1.6,1.6,0,0,0,1.6,1.6h.36a2.51,2.51,0,0,1,0,5H488a2.51,2.51,0,0,1,0-5h6.9a1.6,1.6,0,0,0,1.4-1.6h0a1.62,1.62,0,0,0-1.4-1.6h0a2.51,2.51,0,0,1,0-5h6.67A1.6,1.6,0,0,0,503,261h0a1.62,1.62,0,0,0-1.4-1.6h-.43a2.51,2.51,0,0,1,0-5h23.21A1.7,1.7,0,0,1,524.8,254.42Z" fill="#4c5054"/><path d="M475.61,292.05l1.17,12.5,2,21.41,1.74,18.61a1,1,0,0,0,1,1h25a.81.81,0,0,0,.81-.74L509.08,326l2-21.41,1.16-12.5Z" fill="#fff" stroke="#4c5054" stroke-miterlimit="10" stroke-width="2"/><path d="M514.75,292.09a.28.28,0,0,0,.17-.35l-.6-1.64-.08-.21H473.56l-.07.21-.58,1.64a.29.29,0,0,0,0,.09.27.27,0,0,0,.27.27h41.59Z" fill="#4c5054"/><path d="M513.68,288.43H474.13a.57.57,0,0,0-.57.56v.9h40.68V289A.56.56,0,0,0,513.68,288.43Z" fill="#4c5054"/><path d="M512.13,287.83l-.51-3.19h0a1.17,1.17,0,0,0-1.17-1.15H477.4a1.16,1.16,0,0,0-1.16,1.16l-.53,3.19-.1.6h36.63Z" fill="#4c5054"/><path d="M484.54,283.15v0a.77.77,0,0,0-.77-.75h-4a.77.77,0,0,0-.77.77v.33h5.52Z" fill="#4c5054"/><polygon points="476.97 300.45 478.84 334.79 509.15 334.79 511.27 300.45 476.97 300.45" fill="#4c5054"/><path d="M489.72,320.1v-.29h-.5v.29h-.93v-.19h-.43v.19h-.37v-1h-.21v1h-.12v1H487v-1h-.11l.11-11.18h.19v1h.12v-1h.12v-1.07h.21v1H488v-.11h.38V309h.93v-.28h.55V309h.48v1.31h.14V309h.31v.59H491V309h.81v1.16h.37V309h.63v-.1h.1c.26,0,.33.28.45.45a.15.15,0,0,0,.13,0c.2-.16.29-.41.56-.45h.23v.69h.34v-.69h.46v-.82h.2v.82h.83v-.15h.67v.15h.13v.64h.21v-.63h.32v-.31h.29v.3h.38L498,320.06h-.38v-.31h-.29v.31H497v.63h-.21v-.63h-.13v-.16H496V320h-.83v-.82H495V320h-.46v.68h-.33V320h-.56c-.23,0-.32.26-.48.39s-.3-.2-.44-.3v.1a.29.29,0,0,0-.22-.11h-.39l0,1.16h-.37v-1.15h-.81v.58h-.26v-.59h-.3l0,1.31h-.14l0-1.31Z" fill="#d60000"/><path d="M499.91,325.82v-.15h-.66v.15h-.83V325h-.21v.81h-.47v.69h-.34v-.68h-.54c-.28,0-.37.31-.6.37s-.22-.18-.33-.28V326a.35.35,0,0,0-.23-.12h-.39V327h-.37l0-1.17h-.82v.58h-.25v-.59h-.3l0,1.3h-.14l0-1.3h-.49v-.25h-.49v.29h-.93v-.2h-.38v.19h-.39v-1.08h-.16v1h-.13v1h-.12v-1h-.2l.11-11.18h.2v1h.12v-1h.13v-1h.19v1.05h.38v-.19h.36v.18h.93v-.28h.5v.29h.48V316h.14v-1.33H494v.58h.25v-.59h.82v1.16h.36l0-1.16h.62v-.1h.11c.18.08.22.29.35.43a.09.09,0,0,0,.1,0c.22-.12.33-.44.61-.44h.3v.68h.34v-.65h.46v-.82h.21v.82h.83v-.19H500v.15h.14v.62h.2v-.59h.33v-.31H501v.31h.38l-.11,11.17h-.39v-.3h-.28v.29h-.32v.63H500v-.63Z" fill="#60bcd8"/><path d="M491.34,323v-.28h-.49V323h-.93v-.18h-.41V323h-.38v-1h-.2V323h-.12v1h-.12v-1h-.2l.11-11.17h.2v1h.12v-1H489v-1h.2v1h.38v-.21H490v.19h.93v-.28h.5v.28h.49l0,1.31H492l0-1.29h.31v.6h.25v-.6h.82V313h.37v-1.17h.66v-.09h.11c.22,0,.27.28.41.44a.06.06,0,0,0,.08,0c.23-.12.34-.47.64-.46h.23v.68h.34v-.69h.47v-.81h.19v.81h.83v-.08h.67v.15h.13v.63h.2v-.63h.35v-.33h.28v.3h.39L499.67,323h-.38v-.3H499V323h-.33v.63h-.2V323h-.13v-.15h-.67V323h-.82v-.82h-.19V323h-.47v.69h-.34V323h-.56c-.27,0-.36.3-.59.37s-.22-.19-.32-.29a.17.17,0,0,0,0,.1l-.15-.08h-.47v1.17h-.36V323h-.82v.6h-.25V323H492v1.31h-.14V323Z" fill="#fff"/><text transform="translate(680.39 149.29)" font-size="21.22" fill="#d60000" font-family="Arial-BoldMT, Arial" font-weight="700">$</text><text transform="translate(668.5 149.29)" font-size="21.22" fill="#d60000" font-family="Arial-BoldMT, Arial" font-weight="700">$</text><text transform="translate(678.63 196.19)" font-size="21.22" fill="#d60000" font-family="Arial-BoldMT, Arial" font-weight="700">$</text><text transform="translate(667.4 196.19)" font-size="21.22" fill="#d60000" font-family="Arial-BoldMT, Arial" font-weight="700">$</text><text transform="translate(656.62 149.29)" font-size="21.22" fill="#d60000" font-family="Arial-BoldMT, Arial" font-weight="700">$</text><rect x="639.13" y="176.43" width="58.82" height="25.37" fill="none" stroke="#d60000" stroke-miterlimit="10"/><path d="M435.55,210.46c1.4-7.23,16.94-16.54,15.06-35.79-.95-9.73-7.17-12.5-13.37-15.7,5,.82,10.9-3.2,10.9-3.2A60.67,60.67,0,0,1,422,139.48L419.89,144a14.78,14.78,0,0,1-2.54,3.77l-3.55,4.12c.06-.18,4.13,4.46,4,5.46-.94,3.37-3,6.25-3.05,10.87-.07,11.21,7.85,9.87,8.69,15.94s-5.37,7.59-5.37,7.59c5.65-1.23,8.19-3.18,8.93-5.46a10,10,0,0,1,1.69,7.1c-.72,5.27-5.74,10-3.08,18.5a14.46,14.46,0,0,1,3.75-9.2c-2.68,4.22-5.54,16.94,9,16.16C438.38,218.8,434.09,218,435.55,210.46Z" fill="#fff" stroke="#4c5054" stroke-miterlimit="10" stroke-width="2"/><path d="M437.6,79.7c-10.6-26-31.19-17.61-31.19-17.61s-15.06-20.93-44.61-8.27c-38.12,16.34-21.67,66.76-21,72.35,2.34,21,1.95,31.12-16,56.41,0,0,33.7-24.61,29.84-44.51.32-.22,3.91,6.81,4.78,9.57,2.71,8.52,1.8,19,1.88,18.92-.2,0,5.3-19.27,4.28-26-.52-3.36-2.44-6.95-4.29-10.27s-4.24-20.09.19-28.09c6.63-10.46,10-8.78,17.92-20.37a12.12,12.12,0,0,1,9.67-5.32c9.13-.24,22.29,1.43,24,3.91,5.6,8.21,7.1,14.7,8.92,25.1,2,11.48,2.7,18.73.2,34.53.08.06,1.4-1,3.87-4.23,9.26-12.07,16.86-29.15,14.76-44.22A47.07,47.07,0,0,0,437.6,79.7Z" fill="#fff" stroke="#4c5054" stroke-miterlimit="10" stroke-width="2"/><line x1="413.78" y1="156.85" x2="426.61" y2="141.8" fill="#fff" stroke="#4c5054" stroke-miterlimit="10" stroke-width="7"/></svg>