<svg xmlns="http://www.w3.org/2000/svg" xmlns:xlink="http://www.w3.org/1999/xlink" width="781" height="440" viewBox="0 0 781 440"><defs><clipPath id="a"><path d="M213.39,225.24H174.06c-6.83,0-33.17-5.59-33.17-12.42l21.53-51.33a8.53,8.53,0,0,1,8-5.61l21.88-1.73,24,1.73a6.68,6.68,0,0,1,4.74,2l2,2a6.7,6.7,0,0,1,1.91,5.44l-5.82,54.28A5.74,5.74,0,0,1,213.39,225.24Z" fill="none"/></clipPath></defs><title>CSRF Infographic</title><polygon points="75.06 119.79 83.94 125.67 75.02 131.79 75.06 119.79" fill="#cbd0d1"/><polygon points="76.2 192.59 67.32 186.71 76.24 180.59 76.2 192.59" fill="#cbd0d1"/><polygon points="82.67 61.54 88.56 52.66 94.67 61.58 82.67 61.54" fill="#cbd0d1"/><polygon points="279.21 204.44 273.32 213.34 267.21 204.41 279.21 204.44" fill="#cbd0d1"/><polygon points="299.07 260.71 307.96 266.6 299.04 272.71 299.07 260.71" fill="#cbd0d1"/><polygon points="349.77 160.89 343.88 169.78 337.77 160.86 349.77 160.89" fill="#cbd0d1"/><polygon points="343.54 102.43 334.65 96.54 343.57 90.43 343.54 102.43" fill="#cbd0d1"/><polyline points="325.27 53.63 325.27 73 381.58 73 381.58 96.11 308.71 96.11 308.71 157.99 273.27 157.99 273.27 267.01 300.45 267.01" fill="none" stroke="#cbd0d1" stroke-miterlimit="10"/><rect x="24.4" y="17.43" width="619.85" height="30" fill="#ebf0f2" stroke="#4c5054" stroke-miterlimit="10"/><g style="isolation:isolate"><text transform="translate(37.04 37.98)" font-size="17" fill="#333332" font-family="Arial-BoldMT, Arial" font-weight="700" style="isolation:isolate">https://vulnerable-website.com/email/change?email=pwned@evil-use<tspan x="559.31" y="0" letter-spacing="-0.06em">r</tspan><tspan x="564.99" y="0">.net</tspan></text></g><polyline points="105.77 186.21 41.9 186.21 41.9 126.46 101.15 126.46 101.15 88.36 30.72 88.36 30.72 104.58 66.19 104.58 66.19 76.26 88.08 76.26 88.08 59.5" fill="none" stroke="#cbd0d1" stroke-miterlimit="10"/><path d="M232.35,306.48h23.21a2.51,2.51,0,0,1,0,5h-.43a1.62,1.62,0,0,0-1.4,1.6h0a1.61,1.61,0,0,0,1.4,1.6h6.67a2.51,2.51,0,0,1,0,5h0a1.63,1.63,0,0,0-1.4,1.6h0a1.61,1.61,0,0,0,1.4,1.6h6.9a2.51,2.51,0,0,1,0,5H255.18a2.51,2.51,0,0,1,0-5h.36a1.6,1.6,0,0,0,1.6-1.6h0a1.6,1.6,0,0,0-1.6-1.6H242.93a2.51,2.51,0,1,1,0-5h-.15a1.6,1.6,0,0,0,1.6-1.6h0a1.6,1.6,0,0,0-1.6-1.6H232.35a2.51,2.51,0,1,1,0-5Z" fill="#159c80"/><path d="M235,347.76l1.16,12.5,2,21.41,1.75,18.82a.81.81,0,0,0,.81.74h25a1,1,0,0,0,1-1l1.74-18.61,2-21.41,1.17-12.5Z" fill="#fff" stroke="#159c80" stroke-miterlimit="10" stroke-width="2"/><path d="M232.57,347.76h41.51a.27.27,0,0,0,.25-.36l-.58-1.64-.07-.21H233l-.08.21-.6,1.64A.27.27,0,0,0,232.57,347.76Z" fill="#159c80"/><path d="M233,344.65v.9h40.68v-.9a.57.57,0,0,0-.57-.56H233.56A.56.56,0,0,0,233,344.65Z" fill="#159c80"/><path d="M235,344.09h36.63l-.1-.6L271,340.3a1.16,1.16,0,0,0-1.17-1.16H236.79a1.16,1.16,0,0,0-1.17,1.16l-.51,3.19Z" fill="#159c80"/><path d="M262.72,339.14h5.52v-.33a.77.77,0,0,0-.77-.77h-4a.76.76,0,0,0-.77.77Z" fill="#159c80"/><polygon points="235.97 356.11 238.09 390.45 268.4 390.45 270.27 356.11 235.97 356.11" fill="#159c80" stroke="#159c80" stroke-miterlimit="10" stroke-width="2.42"/><g opacity="0.2"><path d="M40.88,357c0-.1,0-.19.06-.29C40.92,356.85,40.89,357,40.88,357Z" fill="#fff"/></g><line x1="159.5" y1="266.22" x2="159.5" y2="303.77" fill="none" stroke="#4c5054" stroke-linecap="round" stroke-miterlimit="10" stroke-width="7"/><line x1="186.94" y1="318.49" x2="158.89" y2="304.64" fill="none" stroke="#4c5054" stroke-linecap="round" stroke-miterlimit="10" stroke-width="7"/><line x1="161.1" y1="303.33" x2="198.27" y2="301.57" fill="none" stroke="#4c5054" stroke-linecap="round" stroke-miterlimit="10" stroke-width="7"/><line x1="158.89" y1="303.77" x2="115.63" y2="315.68" fill="none" stroke="#4c5054" stroke-linecap="round" stroke-miterlimit="10" stroke-width="7"/><path d="M157.49,303.77c0-.52-24.33-4.93-24.33-4.93" fill="none" stroke="#4c5054" stroke-linecap="round" stroke-miterlimit="10" stroke-width="7"/><rect x="120.36" y="289.83" width="11" height="18.69" transform="translate(-67.13 38.21) rotate(-13.67)" fill="#fff" stroke="#4c5054" stroke-miterlimit="10" stroke-width="2"/><path d="M227,130.17s-25.57,2.25-31.17,1.34-28.37-3.42-32.57-6.1S148,115.72,143,116.3s-7,15.56-6.14,19.16,11.44,24.62,12.49,29.87,1.68,19.38-1.73,25.22-15.11,18.27-19.47,21.18S103,233.29,103,233.29l4.17,20L134,260.86l26.13-1.38,14.08-18.26,24.31-19.45,25.85-20.33,12.43-33.89Z" fill="#fff" stroke="#4c5054" stroke-miterlimit="10" stroke-width="2"/><path d="M213.39,225.24H174.06c-6.83,0-33.17-5.59-33.17-12.42l21.53-51.33a8.53,8.53,0,0,1,8-5.61l21.88-1.73,24,1.73a6.68,6.68,0,0,1,4.74,2l2,2a6.7,6.7,0,0,1,1.91,5.44l-5.82,54.28A5.74,5.74,0,0,1,213.39,225.24Z" fill="#fff" stroke="#4c5054" stroke-miterlimit="10" stroke-width="2"/><g clip-path="url(#a)"><path d="M159.12,169.45s16.33,3.72,31.3,3.94,32.11-3.28,32.11-3.28" fill="none" stroke="#4c5054" stroke-miterlimit="10" stroke-width="4"/><path d="M159.12,181.07S175,185,190,185.24s32.56-3.51,32.56-3.51" fill="none" stroke="#4c5054" stroke-miterlimit="10" stroke-width="4"/><path d="M159.12,204.73s16.07,5.07,31,5.29,32.36-4.63,32.36-4.63" fill="none" stroke="#4c5054" stroke-miterlimit="10" stroke-width="4"/><path d="M159.91,160.29s16,1,31,1.78,32.3.73,32.3.73" fill="none" stroke="#4c5054" stroke-miterlimit="10" stroke-width="4"/></g><ellipse cx="155.64" cy="225.51" rx="25.32" ry="12.63" fill="#4c5054"/><path d="M253.56,126.8c-.62-1.23-10.75-14.21-16.1-14-4.18.16-5.8,2-8.86,9s-.9,15.78-.11,22.14c3.37,27.26-.92,36.42-4.76,46.26C219.58,200.86,203.81,209.07,200,210s-12.5,4.63-18.27,8.69-12,16.35-16.56,23.94a37.25,37.25,0,0,1-9.59,10.19h0s-5.3,2.91-7.9,3.35-33.23-1.67-41.34-2.24c0,0,1.3,6.89,2.79,12.61,0,0-1.49,1.3,6.17,2.33,5.6.76,38.08,2.14,44.05,2.14s36.68-7.41,42.84-9.33c7.2-2.24,9.71-13.05,13.31-21.61s28.78-79.32,30.83-86S254.17,128,253.56,126.8Z" fill="#fff" stroke="#4c5054" stroke-miterlimit="10" stroke-width="2"/><path d="M109.27,161.29l48.18.57a2.4,2.4,0,0,1,2.32,1.86l11.23,48-53.58-6.09L106.9,164.3A2.42,2.42,0,0,1,109.27,161.29Z" fill="#fff" stroke="#4c5054" stroke-miterlimit="10" stroke-width="2"/><path d="M114.77,296.3l-13.5-53.72a17.4,17.4,0,0,1,14.09-21.22l48.81-7.58,2.92,18.77-46.91,7.29,13,51.83Z" fill="#4c5054"/><path d="M219.94,169.24l2.4,19a8.54,8.54,0,0,1-8.23,10.83H177.35" fill="none" stroke="#4c5054" stroke-miterlimit="10" stroke-width="14"/><path d="M218.44,163.35l3.9,24.88a8.54,8.54,0,0,1-8.23,10.83H177.35" fill="none" stroke="#fff" stroke-miterlimit="10" stroke-width="10"/><path d="M133.36,304.78a1.48,1.48,0,0,1,1.71.61c.55,1,1.29,8.36,1.29,8.94s.61,3.11-.77,3.54a45.67,45.67,0,0,1-7.26,1.34c-2,.15-8.3.76-10.59,1.22s-7.54,2.08-11,2.05-9.07,0-9.4-.4a4.56,4.56,0,0,1-1-2.2,5,5,0,0,1,1.4-3.48c1.28-1,2.76-2.27,4.13-3.42a76,76,0,0,1,7.17-4.92,56.74,56.74,0,0,1,6.22-3.35,8.67,8.67,0,0,1,4.94.16c1.38.61,5.1,3.87,6.65,4.06s5.8-1.19,6.44-2.17A2,2,0,0,0,133.36,304.78Z" fill="#4c5054"/><path d="M180.72,205a35.6,35.6,0,0,0-4.23.13c-.89.05-3,1.52-5,1.43s-7.54-1.83-8.21-2.9-.89-3-1.38-3.43-2.16-1.88-2.24-3.16-1.59-1.63-2-1.88a3.83,3.83,0,0,1-1.2-2c0-.46-.68-1-.71-1.38a2.15,2.15,0,0,1,1.27-2.13c1.21-.5,8.05-.64,8.55-.6s-.11-1.49-.29-2.24-1.27-2.83-.39-3.29,2,.78,2.45,1.31a5.9,5.9,0,0,0,2.59,1.66c.7.08,2.58,0,3.58,1.14a26.29,26.29,0,0,1,3.4,4.39c.67,1.35,2.4,1,3.29,1" fill="#fff" stroke="#4c5054" stroke-miterlimit="10" stroke-width="2"/><rect x="70.73" y="219.07" width="26.58" height="9" transform="translate(-61.49 34.18) rotate(-16.94)" fill="#fff" stroke="#4c5054" stroke-miterlimit="10" stroke-width="2"/><path d="M77.92,219.12a10.42,10.42,0,0,0-2.59-.19,32.25,32.25,0,0,0-4.64.35c-1.28.17-10.86.95-12.64.91s-6-.35-8.25,1.89-1.24,5.95.17,7.63,6.34,5.51,11,5.81,10.32-1.42,11.94-1.72,8-2.21,9.08-2.9,1.08-.12,1-.8c-.05-.38-6-.07-7.4-4.92C74.85,222.52,77.92,219.12,77.92,219.12Z" fill="#4c5054"/><path d="M169.8,232.1l-18.58-10.76-.83-.81a10.64,10.64,0,0,0-10.8-2.44l-.32.1L93.43,231.75,88,213.54,133.74,200a29.57,29.57,0,0,1,28.91,6l16.68,9.66Z" fill="#4c5054"/><line x1="188.16" y1="144.23" x2="188.16" y2="158.05" fill="#fff" stroke="#4c5054" stroke-linecap="round" stroke-miterlimit="10" stroke-width="17"/><line x1="188.16" y1="144.23" x2="188.16" y2="158.05" fill="#4c5054" stroke="#fff" stroke-linecap="round" stroke-miterlimit="10" stroke-width="13"/><path d="M158.77,99.62c-1,1.1-.73,16.6-.49,18.93s2.21,9.54,2.57,12.52,8.77,24.71,14.3,25.26,13.32-2.35,19.67-8.3,9.52-11.66,9.3-13.71-1.23-6.28-.11-6.39,4.73.16,6.18-4,2.26-6.9,1.33-9.56c-.63-1.78-2-2.12-2.1-2.8s-1.68-9.4-2.14-13.8-.53-14.07-12.69-17.87S170.27,82.67,167,86,158.77,99.62,158.77,99.62Z" fill="#fff" stroke="#4c5054" stroke-miterlimit="10" stroke-width="2.31"/><path d="M200.13,123.84a13.84,13.84,0,0,0-.31-6.32c-1.61-5.31-4-7.56-6.56-9.14s-6.44-4.26-6.09-6.54-.11-9-12.1-7.36S160.38,97,158.81,97.84c-.76.39-1.67,9.71-1.64,13.78,0,0-4.78-13.85-2.24-17.88s7.75-14.94,21-17.65,21.58-.12,25.27,3.08,7.45,12.71,7.91,16.73a96.7,96.7,0,0,1,.51,17.56s-7-6.83-7.59,1.71a54,54,0,0,0,.12,5.72" fill="#4c5054"/><path d="M201.74,120.58c.19,4.3.56,7.75.56,7.75s2.35,4.84,2.41,5.43-4,9.77-7.67,13.26-9.65,5.71-13.45,7.43-7.06,1.21-8.54,1.28-3.12-1.27-4.71-3.07-6.27-11.46-6.27-11.46,5.68,9.32,9.56,9.3,10-1.52,12.92-4.24,2.49-6,5.09-7.85,5.8-4,6.34-7.74c.31-2.15,1.26-4.54,1.69-7.18" fill="#4c5054"/><path d="M178,107.75c-3.54.52-3,9.48-6.64,10.5s-5.58-8.68-9.16-8c-2.55.51-3.75,2.9-4.25,5.57-.22,1.22,0,.23,0,1.39,0,1.41-.21,5-.07,5.84.63,4.13,2.38,9,7.75,8.58s3-10.22,6.09-10.65,2.08,7.54,9.58,6.59c2.67-.33,7.39-2.94,6.49-11.53-.06-.45-.43-2-.49-2.47a9.52,9.52,0,0,0-.86-3.47C185.16,107.08,180.53,107.38,178,107.75ZM164,124a2.28,2.28,0,0,1-2.68-1.85,2.37,2.37,0,0,1,2.07-2.59,2.31,2.31,0,0,1,2.68,1.84A2.44,2.44,0,0,1,164,124Zm17-2.55c-1.65.44-3.24-.27-3.54-1.6s.81-2.74,2.46-3.18,3.27.32,3.55,1.58S182.74,121,181.07,121.42Z" fill="#4c5054"/><path d="M185,114.62c.4.21.83,4.28.83,4.28l14.48-7-.52-1.44-15.28,4.24" fill="#4c5054"/><path d="M171.45,139.85c4.31,0,6.55-.1,10.12-4.36" fill="#fff" stroke="#4c5054" stroke-linecap="round" stroke-linejoin="round" stroke-width="2.12"/><path d="M158.83,210.38c.16,0,16.67,1.81,16.83,1.81s12.45,2.57,12.45,2.57-8.67,4.77-9.43,6-8,.39-9.1.06-6.47-1.76-7.35-2.52S158.83,210.38,158.83,210.38Z" fill="#4c5054"/><path d="M211.38,190l21.16-4.15s-4.56-27-13.23-30.12c-6.82-2.45-15.07,3.08-13.05,11.48S211.38,190,211.38,190Z" fill="#4c5054"/><path d="M141.36,182a4.16,4.16,0,0,0-2.28-3.3,8,8,0,0,0-1.87.22s-.83.16-1.52.37-.75.88-.13,2.77a4.2,4.2,0,0,0,4.17,2.94C141.3,184.73,141.44,183.6,141.36,182Z" fill="#d60000"/><path d="M135.06,184s-.95.28-.83,2.4.19,2.84.37,2.87.44-.73.65-1.12.23-.64.51-.65,1.07,1.09,1.29,1.32.17.24.34.2a10.27,10.27,0,0,0-.89-3.31C136,184.56,135.44,184,135.06,184Z" fill="#d60000"/><path d="M151.62,191c-1.06-.8-3.24-.47-4.87-.79s-5.1-1.52-5.65-1.71a1.12,1.12,0,0,1,.27-.47,8,8,0,0,0,1.54-2.16l1.82-.86a17.9,17.9,0,0,1,4.34-1.44,1.71,1.71,0,0,0,1.43-1.93,1.83,1.83,0,0,0-.85-1.38,5.89,5.89,0,0,0-.14-.68,1.75,1.75,0,0,0-.72-1.1,1.33,1.33,0,0,0-1.86.11,11.06,11.06,0,0,1-1.84,2.08c-.4.32-1.49,1-2.08,1.33a14.51,14.51,0,0,1-.22-2.67,44.51,44.51,0,0,0,.08-5.27c-.14-2-.47-3.87-3.12-5.44a13,13,0,0,0-8.58-2.25l-.26,0c-1.47.09-3.78.45-5.08,1.83-2,2.14-2.2,3.78-1.71,5.91s1.72,5.62,2,6.7c.17.66.26,1.21.34,1.7-.72-.34-2-1-2.48-1.27a12.23,12.23,0,0,1-2.08-1.82,1.32,1.32,0,0,0-1.89-.07,1.39,1.39,0,0,0-.35,1.2c0,.46.1.73.1.73a1.45,1.45,0,0,0-.37,1.5,2.59,2.59,0,0,0,2.11,2,15.71,15.71,0,0,1,4.33,1l2.18.8a6.75,6.75,0,0,0,2.17,2,3.76,3.76,0,0,1,1,.74,37.14,37.14,0,0,1-4.91,2.44c-1.5.46-3.47.27-4.23,1.21a2.08,2.08,0,0,0-.19,2.47,2,2,0,0,0,1,1.18l.25.1a2.43,2.43,0,0,0,1,1.9c1,.61,1.73.72,2.54-1a10.2,10.2,0,0,1,3.77-4c1.32-.87,2.26-1.45,2.56-1.64a5.16,5.16,0,0,0,3.36,1.3h.39c.78,0,2.67-.25,3.42-1.61.08-.16.15-.32.22-.47.36.15,1.48.63,3.07,1.34a14.53,14.53,0,0,1,5,3.42c1.34,1.46,2.3,1.34,3,.67s.09-1.87.09-1.87,0-.05.2-.17a1.39,1.39,0,0,0,.86-1.15A2.43,2.43,0,0,0,151.62,191Zm-8.5-8.45s1.94-1.12,2.39-1.47a6.4,6.4,0,0,0,1.52-1.78,1,1,0,0,1,1.59-.25,2.06,2.06,0,0,1,.52,1.14,3,3,0,0,1-.26,1.06,1.9,1.9,0,0,0,.36-.67,1.11,1.11,0,0,1,.69,1.11c0,.57-.14.95-1.83,1.3a16.52,16.52,0,0,0-4,1.57l-1,.46s0-.11,0-.27a3.81,3.81,0,0,0,.06-.95,5.06,5.06,0,0,0,0-.58C143.14,182.66,143.12,182.58,143.12,182.58ZM126.3,185.3a23,23,0,0,0-4.49-1.24c-1.81-.29-1.75-.59-2-1.2-.3-.84.3-1.24.33-1.18a2.37,2.37,0,0,0,.59.7,4.35,4.35,0,0,1-.63-1.11,1.83,1.83,0,0,1,.12-1.23c.12-.35.67-.86,1.31-.12a9.85,9.85,0,0,0,2.13,1.82c.54.32,2.6,1.3,2.86,1.42,0,.08,0,.18,0,.26a4.17,4.17,0,0,0,.12.42v0a13.31,13.31,0,0,0,.68,1.85Zm2.11,8.87a8.49,8.49,0,0,0-2.45,3.08c-.45.77-1.22,1.51-2.18.59s-.2-2.52-.22-2.5a2.84,2.84,0,0,0-.41.79,1.81,1.81,0,0,1-.73-.46,2,2,0,0,1-.34-2c.27-.72,1.56-.88,3.79-1.37a20.05,20.05,0,0,0,5.44-2.72l.4.73c.2.34.72,1.14.72,1.14S129.94,193,128.41,194.17Zm11-4.5,0,.08c-.09,0-.16,0-.11.18a1.27,1.27,0,0,1-.1,1.23c-.3.33-.52-.55-.52-.55l-.06,0s.27.89,0,1-.43-.8-.43-.8H138s.4,1-.07,1.22-.53-1.05-.53-1.05h-.21s.49,1.28-.2,1.35-.67-1.23-.67-1.23H136s.49,1.27-.23,1.32-.67-1.31-.67-1.31h-.27s.32,1.13-.13,1.17-.53-1.27-.53-1.27h-.1s0,.29,0,.58-.2.41-.36.22a3.19,3.19,0,0,1-.23-1h-.06s0,0,0,.24,0,.5-.29.47-.45-1-.51-1.32a1.16,1.16,0,0,1,0-.13s-.64-.94-1-1.6-.87-.63-1.81-1.08-2.15-1-2.82-4.41a1.09,1.09,0,0,1,0-.12l0-.15h0c-.06-.34-.12-.7-.17-1.09-.16-1.33.58-2.94.25-5.54s-.9-2.94-1-2.77.1,3.27.11,4.55a10.94,10.94,0,0,1-.12,1.95s-2.12-5.84-1.45-7.63a7.07,7.07,0,0,1,3.07-4.06,17.2,17.2,0,0,1,4-1.11,12.12,12.12,0,0,1,4.34.77c2.46.93,5.44,3.68,5.79,5.35a15.29,15.29,0,0,1,.29,4.26c0,1.82-.05,2.42-.05,2.42s-2-5.28-2.27-6-.65-.77-.63,0a10.76,10.76,0,0,0,1.36,4.46c1.06,2,2,3.67,1.95,5.64s-1.33,2.79-2.15,3.54A4.26,4.26,0,0,0,139.37,189.67Zm12.39,4.07a1.4,1.4,0,0,1-.56.5,3.88,3.88,0,0,0-.66-.7s1.22,1.37.59,2.33-1.63.35-2.31-.31a12,12,0,0,0-3.42-2.65c-1.85-1-4.71-2.22-4.86-2.28a13.77,13.77,0,0,0,.4-1.5,34.83,34.83,0,0,0,6.32,1.76c2.36.27,3.67.31,4.17,1A1.79,1.79,0,0,1,151.76,193.74Z" fill="#d60000"/><path d="M132.7,179.29c-.75-.19-1.64-.33-1.64-.33a8.61,8.61,0,0,0-1.94-.17c-.58.09-1.62,1.77-1.14,3.45s1,2.83,2.64,3a3,3,0,0,0,3.14-3.16C133.74,180.15,133.46,179.48,132.7,179.29Z" fill="#d60000"/><path d="M142.82,183.44a4.2,4.2,0,0,0-2.27-3.3,8.06,8.06,0,0,0-1.88.22s-.83.17-1.52.37-.74.88-.13,2.78a4.22,4.22,0,0,0,4.17,2.94C142.77,186.21,142.9,185.08,142.82,183.44Z" fill="#60bcd8"/><path d="M136.52,185.46s-.94.27-.83,2.39.19,2.84.38,2.88.43-.73.64-1.13.24-.64.52-.65,1.06,1.09,1.29,1.32.16.25.34.21a10.15,10.15,0,0,0-.9-3.32C137.48,186,136.9,185.44,136.52,185.46Z" fill="#60bcd8"/><path d="M153.08,192.52c-1.05-.8-3.24-.48-4.86-.79s-5.11-1.53-5.65-1.72a1.31,1.31,0,0,1,.26-.47,7.86,7.86,0,0,0,1.55-2.16l1.81-.85a17.72,17.72,0,0,1,4.34-1.45,1.71,1.71,0,0,0,1.44-1.93,1.8,1.8,0,0,0-.85-1.37s0-.26-.14-.69a1.8,1.8,0,0,0-.73-1.1,1.34,1.34,0,0,0-1.86.11,11.05,11.05,0,0,1-1.83,2.08c-.41.32-1.49,1-2.08,1.33a13.62,13.62,0,0,1-.22-2.67,44.49,44.49,0,0,0,.07-5.26c-.14-2-.46-3.87-3.12-5.45a13.1,13.1,0,0,0-8.58-2.25l-.26,0c-1.46.09-3.77.45-5.08,1.83-2,2.15-2.2,3.78-1.71,5.91s1.73,5.63,2,6.7c.17.66.26,1.22.34,1.7-.72-.34-2-1-2.49-1.27a12.23,12.23,0,0,1-2.08-1.82,1.32,1.32,0,0,0-1.89-.07,1.4,1.4,0,0,0-.34,1.2c.05.46.1.73.1.73a1.44,1.44,0,0,0-.37,1.5,2.58,2.58,0,0,0,2.1,2,15.28,15.28,0,0,1,4.34,1l2.17.8a6.69,6.69,0,0,0,2.18,2,3.68,3.68,0,0,1,1,.75,36.66,36.66,0,0,1-4.91,2.43c-1.49.46-3.46.27-4.23,1.21a2.1,2.1,0,0,0-.19,2.47,2,2,0,0,0,1,1.18l.26.1a2.45,2.45,0,0,0,1,1.91c1,.6,1.74.71,2.55-1a10.24,10.24,0,0,1,3.76-4c1.33-.87,2.27-1.45,2.57-1.64a5.1,5.1,0,0,0,3.35,1.31h.4c.78,0,2.66-.24,3.41-1.61.09-.16.16-.32.23-.47l3.07,1.34a14.9,14.9,0,0,1,5,3.42c1.33,1.46,2.3,1.34,3,.68s.08-1.87.08-1.87,0-.05.2-.18A1.41,1.41,0,0,0,154,195,2.44,2.44,0,0,0,153.08,192.52Zm-8.49-8.45s1.93-1.13,2.38-1.47a6.46,6.46,0,0,0,1.53-1.79,1,1,0,0,1,1.59-.25,2.13,2.13,0,0,1,.52,1.14,3,3,0,0,1-.27,1.06,1.59,1.59,0,0,0,.36-.67,1.12,1.12,0,0,1,.69,1.11c0,.57-.13,1-1.82,1.3a16.75,16.75,0,0,0-4,1.58l-.95.45s0-.11,0-.27a4.44,4.44,0,0,0,0-.95,3.53,3.53,0,0,0,0-.58Zm-16.83,2.71a22.82,22.82,0,0,0-4.49-1.24c-1.8-.29-1.74-.58-2-1.19-.3-.85.3-1.25.33-1.18a2.92,2.92,0,0,0,.6.7,4.61,4.61,0,0,1-.64-1.12,2,2,0,0,1,.12-1.23c.13-.34.68-.86,1.31-.12a10.51,10.51,0,0,0,2.14,1.83c.53.32,2.59,1.29,2.85,1.41,0,.09,0,.18,0,.26a3.31,3.31,0,0,0,.11.42v0a12.6,12.6,0,0,0,.67,1.84Zm2.11,8.87a8.74,8.74,0,0,0-2.45,3.09c-.44.76-1.22,1.5-2.17.58s-.21-2.52-.23-2.5a2.78,2.78,0,0,0-.4.8,2,2,0,0,1-.74-.47,2,2,0,0,1-.34-2c.28-.72,1.56-.88,3.8-1.37a19.93,19.93,0,0,0,5.43-2.72s.21.39.41.73.71,1.14.71,1.14S131.41,194.48,129.87,195.65Zm11-4.5-.05.08c-.09,0-.16,0-.11.19a1.3,1.3,0,0,1-.09,1.23c-.31.32-.53-.56-.53-.56l-.05,0s.26.89,0,1-.43-.8-.43-.8h-.11s.4,1-.08,1.22-.52-1.05-.52-1.05h-.22s.49,1.27-.2,1.34-.67-1.23-.67-1.23l-.27,0s.49,1.26-.24,1.32-.66-1.32-.66-1.32h-.27s.32,1.13-.13,1.17-.53-1.27-.53-1.27h-.1s0,.29,0,.58-.2.41-.35.22a3,3,0,0,1-.24-1h-.05s0,0,0,.24,0,.5-.29.47-.45-1-.52-1.32v-.12s-.65-.95-1-1.61-.87-.63-1.81-1.08-2.15-1-2.82-4.41v-.11l0-.16h0c-.06-.34-.11-.69-.16-1.09-.16-1.33.58-2.94.25-5.54s-.91-2.94-1-2.77.1,3.28.11,4.56a10.74,10.74,0,0,1-.12,1.94s-2.13-5.84-1.46-7.63a7.11,7.11,0,0,1,3.07-4.06,17.93,17.93,0,0,1,4-1.11,12.12,12.12,0,0,1,4.34.77c2.45.93,5.44,3.69,5.79,5.35a15.36,15.36,0,0,1,.29,4.27c0,1.81-.05,2.41-.05,2.41s-2-5.28-2.27-6-.66-.76-.63.05a10.66,10.66,0,0,0,1.35,4.46c1.07,2,2.06,3.67,2,5.65s-1.33,2.78-2.15,3.54A4,4,0,0,0,140.84,191.15Zm12.38,4.07a1.33,1.33,0,0,1-.56.5,3.88,3.88,0,0,0-.66-.7s1.23,1.38.6,2.33-1.63.35-2.32-.31a12,12,0,0,0-3.42-2.65c-1.85-1-4.71-2.21-4.85-2.28a12.94,12.94,0,0,0,.39-1.5,34.83,34.83,0,0,0,6.32,1.76c2.36.27,3.67.31,4.18.95A1.78,1.78,0,0,1,153.22,195.22Z" fill="#60bcd8"/><path d="M134.17,180.78c-.76-.19-1.64-.34-1.64-.34a8.61,8.61,0,0,0-1.94-.17c-.58.09-1.63,1.77-1.15,3.45s1,2.83,2.65,3a3,3,0,0,0,3.14-3.16C135.2,181.63,134.93,181,134.17,180.78Z" fill="#60bcd8"/><path d="M142.36,183a4.16,4.16,0,0,0-2.28-3.3,8,8,0,0,0-1.87.22s-.83.16-1.52.37-.75.88-.13,2.77a4.2,4.2,0,0,0,4.17,2.94C142.3,185.73,142.44,184.6,142.36,183Z" fill="#4c5054"/><path d="M136.06,185s-.95.28-.83,2.4.19,2.84.37,2.87.44-.73.65-1.12.23-.64.51-.65,1.07,1.09,1.29,1.32.17.24.34.2a10.27,10.27,0,0,0-.89-3.31C137,185.56,136.44,185,136.06,185Z" fill="#4c5054"/><path d="M152.62,192c-1.06-.8-3.24-.47-4.87-.79s-5.1-1.52-5.65-1.71a1.12,1.12,0,0,1,.27-.47,8,8,0,0,0,1.54-2.16l1.82-.86a17.9,17.9,0,0,1,4.34-1.44,1.71,1.71,0,0,0,1.43-1.93,1.83,1.83,0,0,0-.85-1.38,5.89,5.89,0,0,0-.14-.68,1.75,1.75,0,0,0-.72-1.1,1.33,1.33,0,0,0-1.86.11,11.06,11.06,0,0,1-1.84,2.08c-.4.32-1.49,1-2.08,1.33a14.51,14.51,0,0,1-.22-2.67,44.51,44.51,0,0,0,.08-5.27c-.14-2-.47-3.87-3.12-5.44a13,13,0,0,0-8.58-2.25l-.26,0c-1.47.09-3.78.45-5.08,1.83-2,2.14-2.2,3.78-1.71,5.91s1.72,5.62,2,6.7c.17.66.26,1.21.34,1.7-.72-.34-2-1-2.48-1.27a12.23,12.23,0,0,1-2.08-1.82,1.32,1.32,0,0,0-1.89-.07,1.39,1.39,0,0,0-.35,1.2c0,.46.1.73.1.73a1.45,1.45,0,0,0-.37,1.5,2.59,2.59,0,0,0,2.11,2,15.71,15.71,0,0,1,4.33,1l2.18.8a6.75,6.75,0,0,0,2.17,2,3.76,3.76,0,0,1,1,.74,37.14,37.14,0,0,1-4.91,2.44c-1.5.46-3.47.27-4.23,1.21a2.08,2.08,0,0,0-.19,2.47,2,2,0,0,0,1,1.18l.25.1a2.43,2.43,0,0,0,1,1.9c1,.61,1.73.72,2.54-1a10.2,10.2,0,0,1,3.77-4c1.32-.87,2.26-1.45,2.56-1.64a5.16,5.16,0,0,0,3.36,1.3h.39c.78,0,2.67-.25,3.42-1.61.08-.16.15-.32.22-.47.36.15,1.48.63,3.07,1.34a14.53,14.53,0,0,1,5,3.42c1.34,1.46,2.3,1.34,3,.67s.09-1.87.09-1.87,0-.05.2-.17a1.39,1.39,0,0,0,.86-1.15A2.43,2.43,0,0,0,152.62,192Zm-8.5-8.45s1.94-1.12,2.39-1.47a6.4,6.4,0,0,0,1.52-1.78,1,1,0,0,1,1.59-.25,2.06,2.06,0,0,1,.52,1.14,3,3,0,0,1-.26,1.06,1.9,1.9,0,0,0,.36-.67,1.11,1.11,0,0,1,.69,1.11c0,.57-.14.95-1.83,1.3a16.52,16.52,0,0,0-4,1.57l-1,.46s0-.11,0-.27a3.81,3.81,0,0,0,.06-.95,5.06,5.06,0,0,0,0-.58C144.14,183.66,144.12,183.58,144.12,183.58ZM127.3,186.3a23,23,0,0,0-4.49-1.24c-1.81-.29-1.75-.59-2-1.2-.3-.84.3-1.24.33-1.18a2.37,2.37,0,0,0,.59.7,4.35,4.35,0,0,1-.63-1.11,1.83,1.83,0,0,1,.12-1.23c.12-.35.67-.86,1.31-.12a9.85,9.85,0,0,0,2.13,1.82c.54.32,2.6,1.3,2.86,1.42,0,.08,0,.18,0,.26a4.17,4.17,0,0,0,.12.42v0a13.31,13.31,0,0,0,.68,1.85Zm2.11,8.87a8.49,8.49,0,0,0-2.45,3.08c-.45.77-1.22,1.51-2.18.59s-.2-2.52-.22-2.5a2.84,2.84,0,0,0-.41.79,1.81,1.81,0,0,1-.73-.46,2,2,0,0,1-.34-2c.27-.72,1.56-.88,3.79-1.37a20.05,20.05,0,0,0,5.44-2.72l.4.73c.2.34.72,1.14.72,1.14S130.94,194,129.41,195.17Zm11-4.5,0,.08c-.09,0-.16,0-.11.18a1.27,1.27,0,0,1-.1,1.23c-.3.33-.52-.55-.52-.55l-.06,0s.27.89,0,1-.43-.8-.43-.8H139s.4,1-.07,1.22-.53-1.05-.53-1.05h-.21s.49,1.28-.2,1.35-.67-1.23-.67-1.23H137s.49,1.27-.23,1.32-.67-1.31-.67-1.31h-.27s.32,1.13-.13,1.17-.53-1.27-.53-1.27h-.1s0,.29,0,.58-.2.41-.36.22a3.19,3.19,0,0,1-.23-1h-.06s0,0,0,.24,0,.5-.29.47-.45-1-.51-1.32a1.16,1.16,0,0,1,0-.13s-.64-.94-1-1.6-.87-.63-1.81-1.08-2.15-1-2.82-4.41a1.09,1.09,0,0,1,0-.12l0-.15h0c-.06-.34-.12-.7-.17-1.09-.16-1.33.58-2.94.25-5.54s-.9-2.94-1-2.77.1,3.27.11,4.55a10.94,10.94,0,0,1-.12,1.95s-2.12-5.84-1.45-7.63a7.07,7.07,0,0,1,3.07-4.06,17.2,17.2,0,0,1,4-1.11,12.12,12.12,0,0,1,4.34.77c2.46.93,5.44,3.68,5.79,5.35a15.29,15.29,0,0,1,.29,4.26c0,1.82-.05,2.42-.05,2.42s-2-5.28-2.27-6-.65-.77-.63,0a10.76,10.76,0,0,0,1.36,4.46c1.06,2,2,3.67,1.95,5.64s-1.33,2.79-2.15,3.54A4.26,4.26,0,0,0,140.37,190.67Zm12.39,4.07a1.4,1.4,0,0,1-.56.5,3.88,3.88,0,0,0-.66-.7s1.22,1.37.59,2.33-1.63.35-2.31-.31a12,12,0,0,0-3.42-2.65c-1.85-1-4.71-2.22-4.86-2.28a13.77,13.77,0,0,0,.4-1.5,34.83,34.83,0,0,0,6.32,1.76c2.36.27,3.67.31,4.17,1A1.79,1.79,0,0,1,152.76,194.74Z" fill="#4c5054"/><path d="M133.7,180.29c-.75-.19-1.64-.33-1.64-.33a8.61,8.61,0,0,0-1.94-.17c-.58.09-1.62,1.77-1.14,3.45s1,2.83,2.64,3a3,3,0,0,0,3.14-3.16C134.74,181.15,134.46,180.48,133.7,180.29Z" fill="#4c5054"/><path d="M196.33,158a8,8,0,0,1-8,8.05c-4.44,0-8.16-4.44-8.16-8.88" fill="none" stroke="#4c5054" stroke-linecap="round" stroke-miterlimit="10" stroke-width="3.66"/><path d="M67.18,283.13c-.49,6.45-6.66,10.94-15.93,11.27-6.43.22-18.65-4.88-17.64-11.27,1.14-7.17,7.52-11.72,16.79-11.72S67.41,280.17,67.18,283.13Z" fill="#4c5054"/><path d="M60.75,280a7.77,7.77,0,0,1-3.61,3.17,7.75,7.75,0,0,1-4.81,0,7.84,7.84,0,0,1,3.61-3.17A7.83,7.83,0,0,1,60.75,280Z" fill="#fff"/><path d="M40.48,279.64a7.89,7.89,0,0,0,3.61,3.18,7.83,7.83,0,0,0,4.81,0,7.83,7.83,0,0,0-3.61-3.18A7.83,7.83,0,0,0,40.48,279.64Z" fill="#fff"/><path d="M38,275.51c0-.07,2.41-6.85,3.57-10.07a.82.82,0,0,1,1.5-.17c1.47,2.46,4.27,7.09,4.35,7.14S38,275.51,38,275.51Z" fill="#4c5054"/><path d="M54.87,272.85s1.89-6.94,3.27-7.38,2.81,3.42,3.55,6.64a29.25,29.25,0,0,1,.8,4.82s.08.32-.24.26a5.35,5.35,0,0,1-1.77-.15C59.44,276.75,54.87,272.85,54.87,272.85Z" fill="#4c5054"/><path d="M64.31,280.72c.74-.23,1.45-.42,2.18-.59s1.46-.34,2.19-.47a16.2,16.2,0,0,1,4.44-.28A16,16,0,0,0,69,280.7a36.84,36.84,0,0,0-3.79,2Z" fill="#4c5054"/><path d="M65,282.67a30.52,30.52,0,0,1,3.47.13,25.92,25.92,0,0,1,3.39.51,17,17,0,0,1,3.26,1,9.57,9.57,0,0,1,2.82,1.85,9.19,9.19,0,0,0-3-1.34,16,16,0,0,0-3.23-.47,25.32,25.32,0,0,0-3.26,0,27.14,27.14,0,0,0-3.2.41Z" fill="#4c5054"/><path d="M65,286s0,0,0,0l.1,0,.22.11.46.22.92.46c.61.32,1.21.66,1.79,1a11.77,11.77,0,0,1,1.67,1.23,5.42,5.42,0,0,1,1.31,1.56,5.21,5.21,0,0,0-1.61-1.11,12.15,12.15,0,0,0-1.82-.69c-.63-.19-1.26-.35-1.9-.49l-1-.19-.49-.08-.25-.05-.14,0-.22-.07Z" fill="#4c5054"/><path d="M35.92,281l-.2-.1-.06,0-.1-.07-.2-.13-.4-.26c-.27-.18-.55-.34-.83-.5a16.83,16.83,0,0,0-1.76-.86,13.51,13.51,0,0,0-3.85-1,13.93,13.93,0,0,1,4.13,0,18.83,18.83,0,0,1,2.07.39l1,.28.52.17.25.09.12,0,.06,0-.09,0Z" fill="#4c5054"/><path d="M34.72,284.83c-2.29-.35-4.63-.63-7-.81-1.16-.08-2.33-.14-3.5-.14a17.84,17.84,0,0,0-3.5.28,17.51,17.51,0,0,1,3.45-.82c1.18-.18,2.36-.31,3.55-.4,2.38-.19,4.74-.27,7.14-.27Z" fill="#4c5054"/><path d="M36.55,287.49c-1.07.42-2.14.89-3.19,1.37-.53.24-1,.49-1.56.76a9.86,9.86,0,0,0-1.48.92,9.22,9.22,0,0,1,1.15-1.35c.42-.42.85-.83,1.28-1.23.88-.8,1.77-1.58,2.69-2.34Z" fill="#4c5054"/><path d="M42.17,292.45c.71.27,4.75,1,4.75,5.56s-2.42,11.75-3.32,13.63-1.25,3.41-.18,8.16,1,15.51,1.44,17.85,3,11.65,3,11.65l5.56.18s.09.36.8-.62,4-8.25,4-8.25S60.1,323.3,59.92,319s1.17-4.57-.54-7.44-5.65-8.07-5.29-11.93-.53-4.12,1.35-4.75,5.83-2.24,7.26-4.12-13.36-.45-14.26-.54a26.11,26.11,0,0,0-2.78.09C45,290.3,42.17,292.45,42.17,292.45Z" fill="#4c5054"/><path d="M47.86,347.94s-3.37-13.8-4.82-16.15-4.16-3.22-5.32-1.91-.29,7.85.68,10.7,2.28,6.77,4,8.75,2.8,2.09,3.22,1.94a6.22,6.22,0,0,1,1.19-.22c.41-.08.15.37.71-.11s.45.22.6-.6a5,5,0,0,0-.34-2.1Z" fill="#4c5054"/><path d="M55.75,347.94s3.36-13.8,4.82-16.15,4.15-3.22,5.31-1.91.3,7.85-.67,10.7-2.28,6.77-4,8.75-2.81,2.09-3.22,1.94a6.32,6.32,0,0,0-1.2-.22c-.41-.08-.15.37-.71-.11s-.45.22-.6-.6a5,5,0,0,1,.34-2.1Z" fill="#4c5054"/><ellipse cx="44.53" cy="351.23" rx="5.27" ry="2.32" fill="#4c5054"/><ellipse cx="59.27" cy="351.23" rx="5.27" ry="2.32" fill="#4c5054"/><ellipse cx="51.71" cy="347.36" rx="6.62" ry="4.51" fill="#4c5054"/><path d="M61.12,345s8.79,5.84,14.25-.93,5.09-15.22,4.79-19.37-1.65-7.3-3.89-9.35-3.18-2.1-4.23-1.91a2.74,2.74,0,0,0-2.09,2c-.11.82-.75,4-3.41,3.55s-4.48-3.74-2-6.73,6.17-4.67,9.73-3.89,8.56,5.16,9,12.12S85,333.16,82,339.89c-3.21,7.14-7.32,10.7-10.27,10.85s-11.15.3-13.58-.64-.34-3.44-.34-3.44.19-.15.3-.22S61.12,345,61.12,345Z" fill="#4c5054"/><path d="M196.63,155.7s1.37,1.19,1.46,1.87a7.5,7.5,0,0,1-.84,2.5,10.67,10.67,0,0,0-.44-1.22,6.18,6.18,0,0,1-.6-.8c-.09-.24,0,.06-.15-.42A5.29,5.29,0,0,1,196.63,155.7Z" fill="#4c5054"/><path d="M395.11,232.09a10.28,10.28,0,0,1-10.28-10.28v-19a10.28,10.28,0,1,1,20.55,0v19A10.27,10.27,0,0,1,395.11,232.09Z" fill="#fff" stroke="#159c80" stroke-miterlimit="10" stroke-width="2"/><path d="M381.33,186.88s4.05,11.32,1.38,21.34c-2.6,9.71-14.91,11.1-34.69,15.27-11.91,1.62-38.16,51.09-36.43,70.16,1.4,15.42,27.71,37.14,27.71,37.14" fill="#fff" stroke="#159c80" stroke-miterlimit="10" stroke-width="2"/><path d="M404.28,186.88a32.83,32.83,0,0,0-1.48,21.33c2.91,9.71,14.92,11.1,34.69,15.26,19.33,7.49,29.63,43.54,35.25,65.15a27.37,27.37,0,0,1-7.23,26.4C454.61,325.75,439,335.68,439,335.68" fill="#fff" stroke="#159c80" stroke-miterlimit="10" stroke-width="2"/><polygon points="349.45 346.99 358.9 339.96 432.55 346.02 438.85 353.29 392.09 387.2 361.57 374.12 349.45 346.99" fill="#fff" stroke="#159c80" stroke-miterlimit="10" stroke-width="2.14"/><path d="M390.89,107.27s-20.16-2.43-31.09,13.85-26.32,39.27-26.62,61.6c-.14,10,4,29.24.63,34.34s-13.75,10.72-12.32,33.61c.67,10.76,3.27,1.77,5.26-1.26,5.16-7.83,8.2-.83,14.51-11s24.44-.62,24.8-7.42c.79-15.17,15-15.72,15-15.72s33.95-.35,36.55,4.84,6.71,17.1,22,14.34c15.54-2.79,4.2-28,3-37.28S448,185,445.78,169.7s-9.23-21.86-10.93-29.64S425.38,107.27,390.89,107.27Z" fill="#159c80"/><rect x="329.84" y="252.25" width="125.71" height="98.96" rx="4.56" fill="#fff" stroke="#159c80" stroke-miterlimit="10" stroke-width="1.89"/><path d="M367,147.06c-6.65,3.92-8.16,14.51-7.25,21.93-3.52-.14-4.78-4.68-8.41.16-5.13,18.63,7.5,19.95,9.62,20.55,0,2.42,2.87,12.84,6.34,17.68,3.26,4.54,12.1,15.54,27.81,15.54s27-16.83,28.58-19.63c1.81-3.31,5.47-8.68,5.78-13.51,11.78-5.44,10.88-21.77,7.95-23.44-3.32-1.88-6.94-.85-8,1.9,2.12-6-17.42-19-42.18-16.93-14,1.21-21.57-5.63-24.65-9.22" fill="#fff" stroke="#159c80" stroke-miterlimit="10" stroke-width="2"/><circle cx="392.69" cy="301.73" r="8.85" fill="#159c80"/><path d="M401.76,203.06a10,10,0,0,1-13.4,2.2" fill="none" stroke="#159c80" stroke-linecap="round" stroke-linejoin="round" stroke-width="2"/><path d="M371.45,175.16s1.64-1.81,7.47-1.81,7.86,1.91,7.86,1.91" fill="none" stroke="#159c80" stroke-linecap="round" stroke-linejoin="round" stroke-width="2.31"/><path d="M417.68,175.16s-1.64-1.81-7.47-1.81-7.86,1.91-7.86,1.91" fill="none" stroke="#159c80" stroke-linecap="round" stroke-linejoin="round" stroke-width="2.31"/><path d="M386.81,183.17c0,.81-3.4,3.05-7.46,3.05s-7.24-2-7.26-3.05c0-.67,3.19-2.78,7.26-2.78S386.82,182.43,386.81,183.17Z" fill="#fff" stroke="#159c80" stroke-miterlimit="10" stroke-width="1.89"/><circle cx="379.49" cy="183.51" r="2.95" fill="#159c80"/><path d="M417,183.17c0,.81-3.4,3.05-7.46,3.05s-7.24-2-7.25-3.05c0-.67,3.19-2.78,7.25-2.78S417,182.43,417,183.17Z" fill="#fff" stroke="#159c80" stroke-miterlimit="10" stroke-width="1.89"/><circle cx="409.66" cy="183.51" r="2.95" fill="#159c80"/><path d="M345.89,398c.21,0,.41,0,.62,0,11-1.15,30.08-6,30.89-6.16a6.41,6.41,0,0,0-3.14-12.43c-.19,0-19,4.78-29.09,5.84a6.41,6.41,0,0,0,.72,12.78Z" fill="#fff" stroke="#159c80" stroke-miterlimit="10" stroke-width="2.14"/><path d="M289.37,384c-2.72,13.49,3.12,16.88,9.32,18.81s23.23,1.24,27.6-.07,15.87-2.13,18.27-2.52,5.52.49,5.43-.44-.19-1.14.61-1.27,3,.28,3.2-.46,2.51-9.38,1.65-12.11-1.73-3.75-2.36-3.65-1.13.24-1.18-.45.93-1.09,0-1.64-11-1.84-13.5-2.08-24.37-4.47-25.84-5.29C308.6,370.63,292.1,370.47,289.37,384Z" fill="#fff" stroke="#159c80" stroke-miterlimit="10" stroke-width="2"/><path d="M310.21,386.9c-.72,10.31-8.63,12.86-4.06,13.69,9.1,1.66,15.77,3.42,20.14,2.11s15.87-2.13,18.27-2.52,5.52.49,5.43-.44-.19-1.14.61-1.27,3,.28,3.2-.46,2.51-9.38,1.65-12.11-1.73-3.75-2.36-3.65-1.13.24-1.18-.45.93-1.09,0-1.64-11-1.84-13.5-2.08-18.84-5-24.37-3.84C304.05,376.29,310.68,380.32,310.21,386.9Z" fill="#159c80"/><path d="M314.65,374.8s-9.19,0-13.5,4.28-6.55,8.37-4.78,14.46,5.41,6.78,13.31,7.17" fill="none" stroke="#159c80" stroke-miterlimit="10" stroke-width="2"/><line x1="325.98" y1="381.92" x2="325.37" y2="393.94" fill="none" stroke="#fff" stroke-linecap="round" stroke-linejoin="round" stroke-width="2.14"/><line x1="332.58" y1="382.44" x2="331.97" y2="394.46" fill="none" stroke="#fff" stroke-linecap="round" stroke-linejoin="round" stroke-width="2.14"/><line x1="339.65" y1="382.72" x2="339.04" y2="394.74" fill="none" stroke="#fff" stroke-linecap="round" stroke-linejoin="round" stroke-width="2.14"/><path d="M367.89,375.6l108.45-52.2c6.56-2.92,19.2,1.89,22.37,11.14,3.53,10.32-4.16,18.51-10.72,21.43L378.48,399.35Z" fill="#fff" stroke="#159c80" stroke-miterlimit="10" stroke-width="2"/><path d="M443.46,402.66c-.2,0-.41-.05-.61-.09-10.83-2.11-29.44-8.59-30.23-8.86a6.41,6.41,0,0,1,4.23-12.11c.18.06,18.53,6.45,28.45,8.39a6.41,6.41,0,0,1-1.84,12.67Z" fill="#fff" stroke="#159c80" stroke-miterlimit="10" stroke-width="2.14"/><path d="M497.93,386.35c3.09,13.41-2.66,17-8.79,19s-23.2,1.87-27.6.69-15.92-1.71-18.34-2-5.5.64-5.43-.29.16-1.14-.64-1.25-3,.35-3.22-.38-2.76-9.3-2-12.06,1.62-3.8,2.25-3.71,1.14.21,1.18-.48-1-1.07,0-1.64,11-2.15,13.45-2.45,24.23-5.14,25.68-6C478.35,373.54,494.85,372.94,497.93,386.35Z" fill="#fff" stroke="#159c80" stroke-miterlimit="10" stroke-width="2"/><path d="M477.18,389.85c1,10.29,9,12.62,4.43,13.58-9.05,1.91-15.67,3.84-20.07,2.66s-15.92-1.71-18.34-2-5.5.64-5.43-.29.16-1.14-.64-1.25-3,.35-3.22-.38-2.76-9.3-2-12.06,1.62-3.8,2.25-3.71,1.14.21,1.18-.48-1-1.07,0-1.64,11-2.15,13.45-2.45,19.41-5.73,25-4.74C483.78,378.84,476.54,383.28,477.18,389.85Z" fill="#159c80"/><path d="M472.41,377.87s9.2-.25,13.62,3.92,6.78,8.19,5.17,14.32S486,403,478.09,403.64" fill="none" stroke="#159c80" stroke-miterlimit="10" stroke-width="2"/><line x1="460.8" y1="398.08" x2="460.08" y2="386.06" fill="none" stroke="#fff" stroke-linecap="round" stroke-linejoin="round" stroke-width="2.14"/><line x1="454.18" y1="398.28" x2="453.46" y2="386.27" fill="none" stroke="#fff" stroke-linecap="round" stroke-linejoin="round" stroke-width="2.14"/><line x1="447.12" y1="398.79" x2="446.41" y2="386.77" fill="none" stroke="#fff" stroke-linecap="round" stroke-linejoin="round" stroke-width="2.14"/><path d="M413.28,402.3,302,359.38c-6.56-2.92-11.21-13.4-7.07-23.38,4-9.69,12.9-12.57,19.46-9.65l109.53,52.2Z" fill="#fff" stroke="#159c80" stroke-miterlimit="10" stroke-width="2"/><line x1="310.92" y1="325.63" x2="330.73" y2="328.95" fill="#fff" stroke="#159c80" stroke-miterlimit="10" stroke-width="2.14"/><line x1="477.28" y1="323.09" x2="455.85" y2="328.34" fill="#fff" stroke="#159c80" stroke-miterlimit="10" stroke-width="2.14"/><path d="M443.62,227.69s7.95,7.35,12.54,15.61l4.59,8.26s5.2-21.11-4.59-32.74c-5.73-6.8-9.79-7-12.24-14.07s-8.87-2.14-9.48-.92.61,11.32.92,13.46S443,228.92,443,228.92" fill="#159c80"/><path d="M475.88,267h50V158.46h-57.3v53.91s31,.66,30.33,0,0-124.5,0-124.5h204v-25h-76.1V106.4h25.12v12.5" fill="none" stroke="#d60000" stroke-miterlimit="10"/><line x1="652.05" y1="143" x2="652.05" y2="193.59" fill="none" stroke="#d60000" stroke-miterlimit="10"/><line x1="599.49" y1="312.09" x2="709.62" y2="312.09" fill="none" stroke="#d60000" stroke-miterlimit="10"/><line x1="599.49" y1="318.12" x2="709.62" y2="318.12" fill="none" stroke="#d60000" stroke-miterlimit="10"/><line x1="599.49" y1="324.07" x2="643.26" y2="324.07" fill="none" stroke="#d60000" stroke-miterlimit="10"/><line x1="599.49" y1="333.59" x2="699.62" y2="333.59" fill="none" stroke="#d60000" stroke-miterlimit="10"/><line x1="599.49" y1="339.62" x2="709.62" y2="339.62" fill="none" stroke="#d60000" stroke-miterlimit="10"/><line x1="599.49" y1="345.57" x2="688.26" y2="345.57" fill="none" stroke="#d60000" stroke-miterlimit="10"/><line x1="599.49" y1="354.59" x2="699.62" y2="354.59" fill="none" stroke="#d60000" stroke-miterlimit="10"/><line x1="599.49" y1="360.62" x2="709.62" y2="360.62" fill="none" stroke="#d60000" stroke-miterlimit="10"/><line x1="599.49" y1="366.57" x2="688.26" y2="366.57" fill="none" stroke="#d60000" stroke-miterlimit="10"/><text transform="translate(599.49 238.05)" font-size="20.99" fill="#d60000" font-family="Arial-BoldMT, Arial" font-weight="700">Email<tspan x="0" y="25.19">changed</tspan></text><rect x="588.09" y="211.22" width="132.14" height="171.3" fill="none" stroke="#d60000" stroke-miterlimit="10" stroke-width="2"/><rect x="545.81" y="193.59" width="210.79" height="17.76" fill="#edd6d6" stroke="#d60000" stroke-miterlimit="10" stroke-width="2"/><rect x="599.49" y="276.75" width="41.9" height="2.89" fill="#d60000"/><line x1="599.49" y1="290.59" x2="709.62" y2="290.59" fill="none" stroke="#d60000" stroke-miterlimit="10"/><line x1="599.49" y1="296.62" x2="709.62" y2="296.62" fill="none" stroke="#d60000" stroke-miterlimit="10"/><line x1="599.49" y1="302.57" x2="668.26" y2="302.57" fill="none" stroke="#d60000" stroke-miterlimit="10"/><rect x="545.81" y="211.22" width="210.79" height="171.3" fill="none" stroke="#d60000" stroke-miterlimit="10" stroke-width="2"/><rect x="557.67" y="118.73" width="189.8" height="24.27" rx="12.13" fill="#edd6d6" stroke="#d60000" stroke-miterlimit="10"/><text transform="translate(588.02 136.09)" font-size="14" fill="#d60000" font-family="Arial-BoldMT, Arial" font-weight="700" style="isolation:isolate">Change email address</text><polygon points="520.06 224.07 525.95 215.18 532.06 224.1 520.06 224.07" fill="#d60000"/><polygon points="567.79 81.83 576.68 87.72 567.76 93.83 567.79 81.83" fill="#d60000"/><polygon points="657.93 166.37 652.04 175.26 645.93 166.34 657.93 166.37" fill="#d60000"/><rect x="567.42" y="125.59" width="14.09" height="9.89" fill="none" stroke="#d60000" stroke-miterlimit="10"/><polyline points="567.42 125.59 574.72 131.17 581.52 125.59" fill="none" stroke="#d60000" stroke-miterlimit="10"/><line x1="567.59" y1="135.48" x2="573.59" y2="130.57" fill="none" stroke="#d60000" stroke-miterlimit="10"/><line x1="575.82" y1="130.57" x2="580.95" y2="135.09" fill="none" stroke="#d60000" stroke-miterlimit="10"/><polygon points="668.23 68.85 659.34 62.96 668.26 56.85 668.23 68.85" fill="#d60000"/></svg>